<?xml version="1.0" encoding="iso-8859-1"?>
<!-- Generator: Adobe Illustrator 19.0.0, SVG Export Plug-In . SVG Version: 6.00 Build 0)  -->
<svg version="1.1" id="Capa_1" xmlns="http://www.w3.org/2000/svg" xmlns:xlink="http://www.w3.org/1999/xlink" x="0px" y="0px"
	 viewBox="0 0 512.007 512.007" style="enable-background:new 0 0 512.007 512.007;" xml:space="preserve">
<circle style="fill:#E6EFF4;" cx="256.003" cy="256.003" r="256.003"/>
<path style="fill:#B6D1DD;" d="M385.581,107.256L385.581,107.256c-5.101-5.102-12.148-8.258-19.932-8.258H146.354
	c-15.567,0-28.187,12.619-28.187,28.187v219.295c0,7.785,3.156,14.832,8.258,19.933l0,0l145.105,145.105
	C405.682,503.489,512.001,392.169,512.001,256c0-8.086-0.393-16.081-1.126-23.976L385.581,107.256z"/>
<path style="fill:#41A0D7;" d="M365.647,98.999H146.353c-15.567,0-28.187,12.619-28.187,28.187v219.294
	c0,15.567,12.619,28.187,28.187,28.187h43.971v38.334l53.377-38.334h121.946c15.567,0,28.187-12.619,28.187-28.187V127.185
	C393.834,111.618,381.215,98.999,365.647,98.999z"/>
<path style="fill:#FFFFFF;" d="M393.834,340.942v-44.17c-5.73-5.85-13.714-9.484-22.55-9.484h-64.188l86.738-118.175V131.24
	c-4.466-3.988-10.304-6.31-16.5-6.31h-131.2c-17.435,0-31.57,14.135-31.57,31.57s14.135,31.57,31.57,31.57h55.168L212,311.089
	c-5.474,7.539-6.255,17.512-2.024,25.812c4.231,8.3,12.76,13.526,22.077,13.526h139.232
	C380.121,350.426,388.104,346.792,393.834,340.942z"/>
<g>
</g>
<g>
</g>
<g>
</g>
<g>
</g>
<g>
</g>
<g>
</g>
<g>
</g>
<g>
</g>
<g>
</g>
<g>
</g>
<g>
</g>
<g>
</g>
<g>
</g>
<g>
</g>
<g>
</g>
</svg>
