<svg xmlns="http://www.w3.org/2000/svg" xmlns:xlink="http://www.w3.org/1999/xlink" width="500" zoomAndPan="magnify" viewBox="0 0 375 52.499999" height="70" preserveAspectRatio="xMidYMid meet" version="1.0"><defs><g/><clipPath id="id1"><path d="M 1.769531 9 L 17 9 L 17 51.261719 L 1.769531 51.261719 Z M 1.769531 9 " clip-rule="nonzero"/></clipPath><clipPath id="id2"><path d="M 20 0 L 53.03125 0 L 53.03125 51.261719 L 20 51.261719 Z M 20 0 " clip-rule="nonzero"/></clipPath></defs><g clip-path="url(#id1)"><path fill="#03acbb" d="M 1.769531 12.546875 L 1.769531 51.261719 L 16.71875 51.261719 L 16.71875 9.746094 Z M 12.449219 46.988281 L 6.039062 46.988281 L 6.039062 42.71875 L 12.449219 42.71875 Z M 12.449219 38.445312 L 6.039062 38.445312 L 6.039062 34.175781 L 12.449219 34.175781 Z M 12.449219 29.902344 L 6.039062 29.902344 L 6.039062 25.632812 L 12.449219 25.632812 Z M 12.449219 21.359375 L 6.039062 21.359375 L 6.039062 17.085938 L 12.449219 17.085938 Z M 12.449219 21.359375 " fill-opacity="1" fill-rule="nonzero"/></g><g clip-path="url(#id2)"><path fill="#03acbb" d="M 20.992188 0 L 20.992188 51.261719 L 53.03125 51.261719 L 53.03125 6.007812 Z M 33.808594 46.988281 L 27.398438 46.988281 L 27.398438 42.71875 L 33.808594 42.71875 Z M 33.808594 38.445312 L 27.398438 38.445312 L 27.398438 34.175781 L 33.808594 34.175781 Z M 33.808594 29.902344 L 27.398438 29.902344 L 27.398438 25.632812 L 33.808594 25.632812 Z M 33.808594 21.359375 L 27.398438 21.359375 L 27.398438 17.085938 L 33.808594 17.085938 Z M 33.808594 12.816406 L 27.398438 12.816406 L 27.398438 8.542969 L 33.808594 8.542969 Z M 46.621094 46.988281 L 40.214844 46.988281 L 40.214844 42.71875 L 46.621094 42.71875 Z M 46.621094 38.445312 L 40.214844 38.445312 L 40.214844 34.175781 L 46.621094 34.175781 Z M 46.621094 29.902344 L 40.214844 29.902344 L 40.214844 25.632812 L 46.621094 25.632812 Z M 46.621094 21.359375 L 40.214844 21.359375 L 40.214844 17.085938 L 46.621094 17.085938 Z M 46.621094 21.359375 " fill-opacity="1" fill-rule="nonzero"/></g><g fill="#03acbb" fill-opacity="1"><g transform="translate(65.866787, 28.498311)"><g><path d="M 10.4375 0 L 6.3125 0 C 5.988281 0 5.753906 -0.0703125 5.609375 -0.21875 C 5.460938 -0.363281 5.390625 -0.597656 5.390625 -0.921875 L 5.390625 -13.453125 L 1.640625 -13.453125 C 1.316406 -13.453125 1.082031 -13.523438 0.9375 -13.671875 C 0.789062 -13.816406 0.71875 -14.050781 0.71875 -14.375 L 0.71875 -17.46875 C 0.71875 -17.789062 0.789062 -18.019531 0.9375 -18.15625 C 1.082031 -18.300781 1.316406 -18.375 1.640625 -18.375 L 15.109375 -18.375 C 15.429688 -18.375 15.664062 -18.300781 15.8125 -18.15625 C 15.957031 -18.019531 16.03125 -17.789062 16.03125 -17.46875 L 16.03125 -14.375 C 16.03125 -14.050781 15.957031 -13.816406 15.8125 -13.671875 C 15.664062 -13.523438 15.429688 -13.453125 15.109375 -13.453125 L 11.359375 -13.453125 L 11.359375 -0.921875 C 11.359375 -0.597656 11.285156 -0.363281 11.140625 -0.21875 C 10.992188 -0.0703125 10.757812 0 10.4375 0 Z M 10.4375 0 "/></g></g></g><g fill="#03acbb" fill-opacity="1"><g transform="translate(83.633725, 28.498311)"><g><path d="M 6.640625 0 L 2.6875 0 C 2.363281 0 2.128906 -0.0703125 1.984375 -0.21875 C 1.835938 -0.363281 1.765625 -0.597656 1.765625 -0.921875 L 1.765625 -17.46875 C 1.765625 -17.789062 1.835938 -18.019531 1.984375 -18.15625 C 2.128906 -18.300781 2.363281 -18.375 2.6875 -18.375 L 6.640625 -18.375 C 6.960938 -18.375 7.195312 -18.300781 7.34375 -18.15625 C 7.488281 -18.019531 7.5625 -17.789062 7.5625 -17.46875 L 7.5625 -11.921875 L 11.828125 -11.921875 L 11.828125 -17.46875 C 11.828125 -17.789062 11.894531 -18.019531 12.03125 -18.15625 C 12.175781 -18.300781 12.410156 -18.375 12.734375 -18.375 L 16.703125 -18.375 C 17.023438 -18.375 17.253906 -18.300781 17.390625 -18.15625 C 17.535156 -18.019531 17.609375 -17.789062 17.609375 -17.46875 L 17.609375 -0.921875 C 17.609375 -0.597656 17.535156 -0.363281 17.390625 -0.21875 C 17.253906 -0.0703125 17.023438 0 16.703125 0 L 12.734375 0 C 12.410156 0 12.175781 -0.0703125 12.03125 -0.21875 C 11.894531 -0.363281 11.828125 -0.597656 11.828125 -0.921875 L 11.828125 -6.59375 L 7.5625 -6.59375 L 7.5625 -0.921875 C 7.5625 -0.597656 7.488281 -0.363281 7.34375 -0.21875 C 7.195312 -0.0703125 6.960938 0 6.640625 0 Z M 6.640625 0 "/></g></g></g><g fill="#03acbb" fill-opacity="1"><g transform="translate(104.029886, 28.498311)"><g><path d="M 17.40625 -4.828125 C 17.40625 -4.046875 17.289062 -3.332031 17.0625 -2.6875 C 16.832031 -2.050781 16.425781 -1.507812 15.84375 -1.0625 C 15.257812 -0.613281 14.453125 -0.257812 13.421875 0 C 12.398438 0.257812 11.097656 0.390625 9.515625 0.390625 C 7.941406 0.390625 6.640625 0.257812 5.609375 0 C 4.585938 -0.257812 3.785156 -0.613281 3.203125 -1.0625 C 2.617188 -1.507812 2.210938 -2.050781 1.984375 -2.6875 C 1.753906 -3.332031 1.640625 -4.046875 1.640625 -4.828125 L 1.640625 -17.46875 C 1.640625 -17.789062 1.707031 -18.019531 1.84375 -18.15625 C 1.988281 -18.300781 2.222656 -18.375 2.546875 -18.375 L 6.5625 -18.375 C 6.882812 -18.375 7.117188 -18.300781 7.265625 -18.15625 C 7.410156 -18.019531 7.484375 -17.789062 7.484375 -17.46875 L 7.484375 -5.828125 C 7.484375 -5.484375 7.609375 -5.195312 7.859375 -4.96875 C 8.117188 -4.738281 8.691406 -4.625 9.578125 -4.625 C 10.472656 -4.625 11.046875 -4.738281 11.296875 -4.96875 C 11.554688 -5.195312 11.6875 -5.484375 11.6875 -5.828125 L 11.6875 -17.46875 C 11.6875 -17.789062 11.757812 -18.019531 11.90625 -18.15625 C 12.050781 -18.300781 12.285156 -18.375 12.609375 -18.375 L 16.5 -18.375 C 16.820312 -18.375 17.050781 -18.300781 17.1875 -18.15625 C 17.332031 -18.019531 17.40625 -17.789062 17.40625 -17.46875 Z M 17.40625 -4.828125 "/></g></g></g><g fill="#03acbb" fill-opacity="1"><g transform="translate(124.094207, 28.498311)"><g><path d="M 14.53125 0 L 2.6875 0 C 2.363281 0 2.128906 -0.0703125 1.984375 -0.21875 C 1.835938 -0.363281 1.765625 -0.597656 1.765625 -0.921875 L 1.765625 -17.46875 C 1.765625 -17.789062 1.835938 -18.019531 1.984375 -18.15625 C 2.128906 -18.300781 2.363281 -18.375 2.6875 -18.375 L 14.53125 -18.375 C 14.851562 -18.375 15.085938 -18.300781 15.234375 -18.15625 C 15.378906 -18.019531 15.453125 -17.789062 15.453125 -17.46875 L 15.453125 -14.46875 C 15.453125 -14.144531 15.378906 -13.910156 15.234375 -13.765625 C 15.085938 -13.628906 14.851562 -13.5625 14.53125 -13.5625 L 7.484375 -13.5625 L 7.484375 -11.59375 L 12.453125 -11.59375 C 12.773438 -11.59375 13.007812 -11.519531 13.15625 -11.375 C 13.300781 -11.226562 13.375 -10.992188 13.375 -10.671875 L 13.375 -7.9375 C 13.375 -7.613281 13.300781 -7.378906 13.15625 -7.234375 C 13.007812 -7.085938 12.773438 -7.015625 12.453125 -7.015625 L 7.484375 -7.015625 L 7.484375 -4.828125 L 14.53125 -4.828125 C 14.851562 -4.828125 15.085938 -4.753906 15.234375 -4.609375 C 15.378906 -4.460938 15.453125 -4.226562 15.453125 -3.90625 L 15.453125 -0.921875 C 15.453125 -0.597656 15.378906 -0.363281 15.234375 -0.21875 C 15.085938 -0.0703125 14.851562 0 14.53125 0 Z M 14.53125 0 "/></g></g></g><g fill="#03acbb" fill-opacity="1"><g transform="translate(141.810086, 28.498311)"><g><path d="M 13.984375 0 L 7.765625 0 C 5.628906 0 4.046875 -0.421875 3.015625 -1.265625 C 1.992188 -2.117188 1.484375 -3.429688 1.484375 -5.203125 L 1.484375 -13.15625 C 1.484375 -14.914062 1.992188 -16.222656 3.015625 -17.078125 C 4.046875 -17.941406 5.628906 -18.375 7.765625 -18.375 L 13.984375 -18.375 C 14.304688 -18.375 14.539062 -18.300781 14.6875 -18.15625 C 14.832031 -18.019531 14.90625 -17.789062 14.90625 -17.46875 L 14.90625 -14.375 C 14.90625 -14.050781 14.832031 -13.816406 14.6875 -13.671875 C 14.539062 -13.523438 14.304688 -13.453125 13.984375 -13.453125 L 8.859375 -13.453125 C 8.328125 -13.453125 7.929688 -13.34375 7.671875 -13.125 C 7.421875 -12.914062 7.296875 -12.597656 7.296875 -12.171875 L 7.296875 -6.109375 C 7.296875 -5.679688 7.421875 -5.367188 7.671875 -5.171875 C 7.929688 -4.972656 8.328125 -4.875 8.859375 -4.875 L 13.984375 -4.875 C 14.304688 -4.875 14.539062 -4.800781 14.6875 -4.65625 C 14.832031 -4.507812 14.90625 -4.273438 14.90625 -3.953125 L 14.90625 -0.921875 C 14.90625 -0.597656 14.832031 -0.363281 14.6875 -0.21875 C 14.539062 -0.0703125 14.304688 0 13.984375 0 Z M 13.984375 0 "/></g></g></g><g fill="#03acbb" fill-opacity="1"><g transform="translate(158.862281, 28.498311)"><g><path d="M 8.421875 -13.015625 L 7.21875 -9.140625 L 11.234375 -9.140625 L 10.03125 -13.015625 C 9.96875 -13.171875 9.894531 -13.28125 9.8125 -13.34375 C 9.738281 -13.414062 9.648438 -13.453125 9.546875 -13.453125 L 8.90625 -13.453125 C 8.800781 -13.453125 8.710938 -13.414062 8.640625 -13.34375 C 8.566406 -13.28125 8.492188 -13.171875 8.421875 -13.015625 Z M 6.96875 -0.921875 C 6.96875 -0.597656 6.894531 -0.363281 6.75 -0.21875 C 6.601562 -0.0703125 6.367188 0 6.046875 0 L 2.296875 0 C 1.972656 0 1.738281 -0.0703125 1.59375 -0.21875 C 1.445312 -0.363281 1.375 -0.597656 1.375 -0.921875 L 1.375 -7.65625 C 1.375 -8.164062 1.453125 -8.753906 1.609375 -9.421875 C 1.773438 -10.085938 2.03125 -10.863281 2.375 -11.75 L 4.59375 -17.546875 C 4.695312 -17.828125 4.851562 -18.035156 5.0625 -18.171875 C 5.28125 -18.304688 5.554688 -18.375 5.890625 -18.375 L 12.765625 -18.375 C 13.085938 -18.375 13.351562 -18.304688 13.5625 -18.171875 C 13.78125 -18.035156 13.941406 -17.828125 14.046875 -17.546875 L 16.265625 -11.75 C 16.609375 -10.863281 16.859375 -10.085938 17.015625 -9.421875 C 17.179688 -8.753906 17.265625 -8.164062 17.265625 -7.65625 L 17.265625 -0.921875 C 17.265625 -0.597656 17.191406 -0.363281 17.046875 -0.21875 C 16.898438 -0.0703125 16.664062 0 16.34375 0 L 12.484375 0 C 12.140625 0 11.882812 -0.0703125 11.71875 -0.21875 C 11.5625 -0.363281 11.484375 -0.597656 11.484375 -0.921875 L 11.484375 -4.5 L 6.96875 -4.5 Z M 6.96875 -0.921875 "/></g></g></g><g fill="#03acbb" fill-opacity="1"><g transform="translate(178.518174, 28.498311)"><g><path d="M 6.515625 0 L 2.6875 0 C 2.363281 0 2.128906 -0.0703125 1.984375 -0.21875 C 1.835938 -0.363281 1.765625 -0.597656 1.765625 -0.921875 L 1.765625 -17.46875 C 1.765625 -17.789062 1.835938 -18.019531 1.984375 -18.15625 C 2.128906 -18.300781 2.363281 -18.375 2.6875 -18.375 L 5.34375 -18.375 C 5.664062 -18.375 5.941406 -18.320312 6.171875 -18.21875 C 6.398438 -18.125 6.625 -17.945312 6.84375 -17.6875 L 11.796875 -12.03125 L 11.796875 -17.46875 C 11.796875 -17.789062 11.867188 -18.019531 12.015625 -18.15625 C 12.160156 -18.300781 12.394531 -18.375 12.71875 -18.375 L 16.546875 -18.375 C 16.867188 -18.375 17.101562 -18.300781 17.25 -18.15625 C 17.394531 -18.019531 17.46875 -17.789062 17.46875 -17.46875 L 17.46875 -0.921875 C 17.46875 -0.597656 17.394531 -0.363281 17.25 -0.21875 C 17.101562 -0.0703125 16.867188 0 16.546875 0 L 12.71875 0 C 12.394531 0 12.160156 -0.0703125 12.015625 -0.21875 C 11.867188 -0.363281 11.796875 -0.597656 11.796875 -0.921875 L 11.796875 -4.0625 L 7.421875 -9.34375 L 7.421875 -0.921875 C 7.421875 -0.597656 7.347656 -0.363281 7.203125 -0.21875 C 7.066406 -0.0703125 6.835938 0 6.515625 0 Z M 6.515625 0 "/></g></g></g><g fill="#03acbb" fill-opacity="1"><g transform="translate(198.761177, 28.498311)"><g><path d="M 6.640625 0 L 2.6875 0 C 2.363281 0 2.128906 -0.0703125 1.984375 -0.21875 C 1.835938 -0.363281 1.765625 -0.597656 1.765625 -0.921875 L 1.765625 -17.46875 C 1.765625 -17.789062 1.835938 -18.019531 1.984375 -18.15625 C 2.128906 -18.300781 2.363281 -18.375 2.6875 -18.375 L 6.640625 -18.375 C 6.960938 -18.375 7.195312 -18.300781 7.34375 -18.15625 C 7.488281 -18.019531 7.5625 -17.789062 7.5625 -17.46875 L 7.5625 -11.921875 L 11.828125 -11.921875 L 11.828125 -17.46875 C 11.828125 -17.789062 11.894531 -18.019531 12.03125 -18.15625 C 12.175781 -18.300781 12.410156 -18.375 12.734375 -18.375 L 16.703125 -18.375 C 17.023438 -18.375 17.253906 -18.300781 17.390625 -18.15625 C 17.535156 -18.019531 17.609375 -17.789062 17.609375 -17.46875 L 17.609375 -0.921875 C 17.609375 -0.597656 17.535156 -0.363281 17.390625 -0.21875 C 17.253906 -0.0703125 17.023438 0 16.703125 0 L 12.734375 0 C 12.410156 0 12.175781 -0.0703125 12.03125 -0.21875 C 11.894531 -0.363281 11.828125 -0.597656 11.828125 -0.921875 L 11.828125 -6.59375 L 7.5625 -6.59375 L 7.5625 -0.921875 C 7.5625 -0.597656 7.488281 -0.363281 7.34375 -0.21875 C 7.195312 -0.0703125 6.960938 0 6.640625 0 Z M 6.640625 0 "/></g></g></g><g fill="#03acbb" fill-opacity="1"><g transform="translate(219.157342, 28.498311)"><g><path d="M 17.328125 -4.828125 C 17.328125 -4.046875 17.210938 -3.332031 16.984375 -2.6875 C 16.753906 -2.050781 16.347656 -1.507812 15.765625 -1.0625 C 15.179688 -0.613281 14.375 -0.257812 13.34375 0 C 12.3125 0.257812 11.003906 0.390625 9.421875 0.390625 C 7.835938 0.390625 6.523438 0.257812 5.484375 0 C 4.453125 -0.257812 3.640625 -0.613281 3.046875 -1.0625 C 2.460938 -1.507812 2.054688 -2.050781 1.828125 -2.6875 C 1.597656 -3.332031 1.484375 -4.046875 1.484375 -4.828125 L 1.484375 -13.53125 C 1.484375 -14.3125 1.597656 -15.019531 1.828125 -15.65625 C 2.054688 -16.300781 2.460938 -16.851562 3.046875 -17.3125 C 3.640625 -17.769531 4.453125 -18.125 5.484375 -18.375 C 6.523438 -18.632812 7.835938 -18.765625 9.421875 -18.765625 C 11.003906 -18.765625 12.3125 -18.632812 13.34375 -18.375 C 14.375 -18.125 15.179688 -17.769531 15.765625 -17.3125 C 16.347656 -16.851562 16.753906 -16.300781 16.984375 -15.65625 C 17.210938 -15.019531 17.328125 -14.3125 17.328125 -13.53125 Z M 7.28125 -5.75 C 7.28125 -5.40625 7.40625 -5.117188 7.65625 -4.890625 C 7.914062 -4.660156 8.503906 -4.546875 9.421875 -4.546875 C 10.335938 -4.546875 10.921875 -4.660156 11.171875 -4.890625 C 11.429688 -5.117188 11.5625 -5.40625 11.5625 -5.75 L 11.5625 -12.609375 C 11.5625 -12.929688 11.429688 -13.207031 11.171875 -13.4375 C 10.921875 -13.664062 10.335938 -13.78125 9.421875 -13.78125 C 8.503906 -13.78125 7.914062 -13.664062 7.65625 -13.4375 C 7.40625 -13.207031 7.28125 -12.929688 7.28125 -12.609375 Z M 7.28125 -5.75 "/></g></g></g><g fill="#d92227" fill-opacity="1"><g transform="translate(238.991406, 28.498311)"><g><path d="M 13.421875 0 L 2.140625 0 C 1.816406 0 1.582031 -0.0703125 1.4375 -0.21875 C 1.289062 -0.363281 1.21875 -0.597656 1.21875 -0.921875 L 1.21875 -4.015625 C 1.21875 -4.335938 1.289062 -4.566406 1.4375 -4.703125 C 1.582031 -4.847656 1.816406 -4.921875 2.140625 -4.921875 L 5 -4.921875 L 5 -13.453125 L 2.65625 -13.453125 C 2.332031 -13.453125 2.097656 -13.523438 1.953125 -13.671875 C 1.804688 -13.816406 1.734375 -14.050781 1.734375 -14.375 L 1.734375 -17.46875 C 1.734375 -17.789062 1.804688 -18.019531 1.953125 -18.15625 C 2.097656 -18.300781 2.332031 -18.375 2.65625 -18.375 L 10.0625 -18.375 C 10.382812 -18.375 10.617188 -18.300781 10.765625 -18.15625 C 10.910156 -18.019531 10.984375 -17.789062 10.984375 -17.46875 L 10.984375 -4.921875 L 13.421875 -4.921875 C 13.753906 -4.921875 13.988281 -4.847656 14.125 -4.703125 C 14.269531 -4.566406 14.34375 -4.335938 14.34375 -4.015625 L 14.34375 -0.921875 C 14.34375 -0.597656 14.269531 -0.363281 14.125 -0.21875 C 13.988281 -0.0703125 13.753906 0 13.421875 0 Z M 13.421875 0 "/></g></g></g><g fill="#d92227" fill-opacity="1"><g transform="translate(255.354389, 28.498311)"><g><path d="M 14.09375 0 L 1.9375 0 C 1.613281 0 1.378906 -0.0703125 1.234375 -0.21875 C 1.085938 -0.363281 1.015625 -0.597656 1.015625 -0.921875 L 1.015625 -5.3125 C 1.015625 -6.300781 1.113281 -7.113281 1.3125 -7.75 C 1.507812 -8.382812 1.785156 -8.90625 2.140625 -9.3125 C 2.503906 -9.726562 2.929688 -10.050781 3.421875 -10.28125 C 3.910156 -10.519531 4.445312 -10.726562 5.03125 -10.90625 L 8.453125 -11.96875 C 8.722656 -12.039062 8.90625 -12.144531 9 -12.28125 C 9.09375 -12.414062 9.140625 -12.617188 9.140625 -12.890625 C 9.140625 -13.148438 9.085938 -13.328125 8.984375 -13.421875 C 8.878906 -13.515625 8.703125 -13.5625 8.453125 -13.5625 L 2.90625 -13.5625 C 2.582031 -13.5625 2.347656 -13.628906 2.203125 -13.765625 C 2.054688 -13.910156 1.984375 -14.144531 1.984375 -14.46875 L 1.984375 -17.46875 C 1.984375 -17.789062 2.054688 -18.019531 2.203125 -18.15625 C 2.347656 -18.300781 2.582031 -18.375 2.90625 -18.375 L 10.4375 -18.375 C 11.882812 -18.375 12.992188 -18.015625 13.765625 -17.296875 C 14.546875 -16.578125 14.9375 -15.523438 14.9375 -14.140625 L 14.9375 -11.75 C 14.9375 -10.46875 14.578125 -9.484375 13.859375 -8.796875 C 13.148438 -8.117188 12.179688 -7.59375 10.953125 -7.21875 L 7.484375 -6.125 C 7.222656 -6.0625 7.046875 -5.984375 6.953125 -5.890625 C 6.859375 -5.804688 6.8125 -5.628906 6.8125 -5.359375 L 6.8125 -4.828125 L 14.09375 -4.828125 C 14.414062 -4.828125 14.648438 -4.753906 14.796875 -4.609375 C 14.941406 -4.460938 15.015625 -4.226562 15.015625 -3.90625 L 15.015625 -0.921875 C 15.015625 -0.597656 14.941406 -0.363281 14.796875 -0.21875 C 14.648438 -0.0703125 14.414062 0 14.09375 0 Z M 14.09375 0 "/></g></g></g><g fill="#d92227" fill-opacity="1"><g transform="translate(272.687369, 28.498311)"><g><path d="M 2.171875 -4.828125 L 8.578125 -4.828125 C 8.984375 -4.828125 9.242188 -4.898438 9.359375 -5.046875 C 9.484375 -5.203125 9.546875 -5.382812 9.546875 -5.59375 L 9.546875 -6.28125 C 9.546875 -6.488281 9.484375 -6.660156 9.359375 -6.796875 C 9.242188 -6.941406 8.984375 -7.015625 8.578125 -7.015625 L 4.234375 -7.015625 C 3.910156 -7.015625 3.675781 -7.085938 3.53125 -7.234375 C 3.382812 -7.378906 3.3125 -7.613281 3.3125 -7.9375 L 3.3125 -10.671875 C 3.3125 -10.992188 3.382812 -11.226562 3.53125 -11.375 C 3.675781 -11.519531 3.910156 -11.59375 4.234375 -11.59375 L 6.921875 -11.59375 C 7.328125 -11.59375 7.585938 -11.664062 7.703125 -11.8125 C 7.828125 -11.96875 7.890625 -12.148438 7.890625 -12.359375 L 7.890625 -12.734375 C 7.890625 -12.941406 7.828125 -13.117188 7.703125 -13.265625 C 7.585938 -13.421875 7.328125 -13.5 6.921875 -13.5 L 2.171875 -13.5 C 1.847656 -13.5 1.613281 -13.570312 1.46875 -13.71875 C 1.320312 -13.863281 1.25 -14.097656 1.25 -14.421875 L 1.25 -17.46875 C 1.25 -17.789062 1.320312 -18.019531 1.46875 -18.15625 C 1.613281 -18.300781 1.847656 -18.375 2.171875 -18.375 L 9.296875 -18.375 C 10.703125 -18.375 11.75 -18.046875 12.4375 -17.390625 C 13.132812 -16.742188 13.484375 -15.859375 13.484375 -14.734375 L 13.484375 -13.25 C 13.484375 -12.601562 13.367188 -12.039062 13.140625 -11.5625 C 12.921875 -11.082031 12.53125 -10.726562 11.96875 -10.5 C 13.175781 -10.363281 14.015625 -9.988281 14.484375 -9.375 C 14.953125 -8.769531 15.1875 -7.910156 15.1875 -6.796875 L 15.1875 -4.234375 C 15.1875 -2.921875 14.769531 -1.882812 13.9375 -1.125 C 13.101562 -0.375 11.867188 0 10.234375 0 L 2.171875 0 C 1.847656 0 1.613281 -0.0703125 1.46875 -0.21875 C 1.320312 -0.363281 1.25 -0.597656 1.25 -0.921875 L 1.25 -3.90625 C 1.25 -4.226562 1.320312 -4.460938 1.46875 -4.609375 C 1.613281 -4.753906 1.847656 -4.828125 2.171875 -4.828125 Z M 2.171875 -4.828125 "/></g></g></g><g fill="#d1d1d1" fill-opacity="1"><g transform="translate(289.962994, 28.498311)"><g><path d="M 7.484375 0 L 2.328125 0 C 2.003906 0 1.769531 -0.0703125 1.625 -0.21875 C 1.476562 -0.363281 1.40625 -0.597656 1.40625 -0.921875 L 1.40625 -6.109375 C 1.40625 -6.429688 1.476562 -6.660156 1.625 -6.796875 C 1.769531 -6.941406 2.003906 -7.015625 2.328125 -7.015625 L 7.484375 -7.015625 C 7.804688 -7.015625 8.039062 -6.941406 8.1875 -6.796875 C 8.332031 -6.660156 8.40625 -6.429688 8.40625 -6.109375 L 8.40625 -0.921875 C 8.40625 -0.597656 8.332031 -0.363281 8.1875 -0.21875 C 8.039062 -0.0703125 7.804688 0 7.484375 0 Z M 7.484375 0 "/></g></g></g><g fill="#d1d1d1" fill-opacity="1"><g transform="translate(300.786726, 28.498311)"><g><path d="M 13.984375 0 L 7.765625 0 C 5.628906 0 4.046875 -0.421875 3.015625 -1.265625 C 1.992188 -2.117188 1.484375 -3.429688 1.484375 -5.203125 L 1.484375 -13.15625 C 1.484375 -14.914062 1.992188 -16.222656 3.015625 -17.078125 C 4.046875 -17.941406 5.628906 -18.375 7.765625 -18.375 L 13.984375 -18.375 C 14.304688 -18.375 14.539062 -18.300781 14.6875 -18.15625 C 14.832031 -18.019531 14.90625 -17.789062 14.90625 -17.46875 L 14.90625 -14.375 C 14.90625 -14.050781 14.832031 -13.816406 14.6875 -13.671875 C 14.539062 -13.523438 14.304688 -13.453125 13.984375 -13.453125 L 8.859375 -13.453125 C 8.328125 -13.453125 7.929688 -13.34375 7.671875 -13.125 C 7.421875 -12.914062 7.296875 -12.597656 7.296875 -12.171875 L 7.296875 -6.109375 C 7.296875 -5.679688 7.421875 -5.367188 7.671875 -5.171875 C 7.929688 -4.972656 8.328125 -4.875 8.859375 -4.875 L 13.984375 -4.875 C 14.304688 -4.875 14.539062 -4.800781 14.6875 -4.65625 C 14.832031 -4.507812 14.90625 -4.273438 14.90625 -3.953125 L 14.90625 -0.921875 C 14.90625 -0.597656 14.832031 -0.363281 14.6875 -0.21875 C 14.539062 -0.0703125 14.304688 0 13.984375 0 Z M 13.984375 0 "/></g></g></g><g fill="#d1d1d1" fill-opacity="1"><g transform="translate(317.83892, 28.498311)"><g><path d="M 17.328125 -4.828125 C 17.328125 -4.046875 17.210938 -3.332031 16.984375 -2.6875 C 16.753906 -2.050781 16.347656 -1.507812 15.765625 -1.0625 C 15.179688 -0.613281 14.375 -0.257812 13.34375 0 C 12.3125 0.257812 11.003906 0.390625 9.421875 0.390625 C 7.835938 0.390625 6.523438 0.257812 5.484375 0 C 4.453125 -0.257812 3.640625 -0.613281 3.046875 -1.0625 C 2.460938 -1.507812 2.054688 -2.050781 1.828125 -2.6875 C 1.597656 -3.332031 1.484375 -4.046875 1.484375 -4.828125 L 1.484375 -13.53125 C 1.484375 -14.3125 1.597656 -15.019531 1.828125 -15.65625 C 2.054688 -16.300781 2.460938 -16.851562 3.046875 -17.3125 C 3.640625 -17.769531 4.453125 -18.125 5.484375 -18.375 C 6.523438 -18.632812 7.835938 -18.765625 9.421875 -18.765625 C 11.003906 -18.765625 12.3125 -18.632812 13.34375 -18.375 C 14.375 -18.125 15.179688 -17.769531 15.765625 -17.3125 C 16.347656 -16.851562 16.753906 -16.300781 16.984375 -15.65625 C 17.210938 -15.019531 17.328125 -14.3125 17.328125 -13.53125 Z M 7.28125 -5.75 C 7.28125 -5.40625 7.40625 -5.117188 7.65625 -4.890625 C 7.914062 -4.660156 8.503906 -4.546875 9.421875 -4.546875 C 10.335938 -4.546875 10.921875 -4.660156 11.171875 -4.890625 C 11.429688 -5.117188 11.5625 -5.40625 11.5625 -5.75 L 11.5625 -12.609375 C 11.5625 -12.929688 11.429688 -13.207031 11.171875 -13.4375 C 10.921875 -13.664062 10.335938 -13.78125 9.421875 -13.78125 C 8.503906 -13.78125 7.914062 -13.664062 7.65625 -13.4375 C 7.40625 -13.207031 7.28125 -12.929688 7.28125 -12.609375 Z M 7.28125 -5.75 "/></g></g></g><g fill="#d1d1d1" fill-opacity="1"><g transform="translate(337.673502, 28.498311)"><g><path d="M 6.484375 0 L 2.6875 0 C 2.363281 0 2.128906 -0.0703125 1.984375 -0.21875 C 1.835938 -0.363281 1.765625 -0.597656 1.765625 -0.921875 L 1.765625 -17.46875 C 1.765625 -17.789062 1.835938 -18.019531 1.984375 -18.15625 C 2.128906 -18.300781 2.363281 -18.375 2.6875 -18.375 L 6.796875 -18.375 C 7.066406 -18.375 7.289062 -18.316406 7.46875 -18.203125 C 7.644531 -18.085938 7.8125 -17.890625 7.96875 -17.609375 L 10.265625 -13.453125 C 10.347656 -13.296875 10.414062 -13.179688 10.46875 -13.109375 C 10.53125 -13.046875 10.613281 -13.015625 10.71875 -13.015625 L 10.953125 -13.015625 C 11.054688 -13.015625 11.132812 -13.046875 11.1875 -13.109375 C 11.25 -13.179688 11.320312 -13.296875 11.40625 -13.453125 L 13.6875 -17.609375 C 13.84375 -17.890625 14.007812 -18.085938 14.1875 -18.203125 C 14.363281 -18.316406 14.585938 -18.375 14.859375 -18.375 L 19 -18.375 C 19.320312 -18.375 19.554688 -18.300781 19.703125 -18.15625 C 19.847656 -18.019531 19.921875 -17.789062 19.921875 -17.46875 L 19.921875 -0.921875 C 19.921875 -0.597656 19.847656 -0.363281 19.703125 -0.21875 C 19.554688 -0.0703125 19.320312 0 19 0 L 15.0625 0 C 14.738281 0 14.503906 -0.0703125 14.359375 -0.21875 C 14.210938 -0.363281 14.140625 -0.597656 14.140625 -0.921875 L 14.140625 -9.90625 L 12.640625 -7.125 C 12.484375 -6.832031 12.296875 -6.625 12.078125 -6.5 C 11.867188 -6.375 11.601562 -6.3125 11.28125 -6.3125 L 10.265625 -6.3125 C 9.941406 -6.3125 9.671875 -6.375 9.453125 -6.5 C 9.242188 -6.625 9.0625 -6.832031 8.90625 -7.125 L 7.40625 -9.90625 L 7.40625 -0.921875 C 7.40625 -0.597656 7.332031 -0.363281 7.1875 -0.21875 C 7.039062 -0.0703125 6.804688 0 6.484375 0 Z M 6.484375 0 "/></g></g></g><g fill="#000000" fill-opacity="1"><g transform="translate(69.683952, 44.678695)"><g><path d="M 2.234375 0.015625 C 1.929688 0.015625 1.757812 -0.046875 1.71875 -0.171875 L 0.046875 -6.84375 C 0.0351562 -6.925781 0.03125 -6.976562 0.03125 -7 C 0.03125 -7.15625 0.21875 -7.234375 0.59375 -7.234375 L 0.796875 -7.234375 C 1.160156 -7.234375 1.363281 -7.144531 1.40625 -6.96875 L 2.359375 -3.046875 L 2.5 -2.375 L 2.640625 -1.75 C 2.671875 -1.925781 2.742188 -2.253906 2.859375 -2.734375 L 2.953125 -3.046875 L 3.9375 -7.03125 C 3.96875 -7.164062 4.132812 -7.234375 4.4375 -7.234375 L 4.765625 -7.234375 C 5.066406 -7.234375 5.234375 -7.164062 5.265625 -7.03125 L 6.25 -3.046875 C 6.300781 -2.828125 6.367188 -2.523438 6.453125 -2.140625 L 6.53125 -1.6875 L 6.84375 -3.046875 L 7.8125 -6.96875 C 7.851562 -7.144531 8.050781 -7.234375 8.40625 -7.234375 L 8.5 -7.234375 C 8.875 -7.234375 9.0625 -7.15625 9.0625 -7 L 9.046875 -6.84375 L 7.328125 -0.171875 C 7.304688 -0.109375 7.25 -0.0625 7.15625 -0.03125 C 7.0625 0 6.945312 0.015625 6.8125 0.015625 L 6.171875 0.015625 C 6.035156 0.015625 5.921875 0 5.828125 -0.03125 C 5.734375 -0.0625 5.675781 -0.109375 5.65625 -0.171875 L 4.71875 -3.953125 L 4.53125 -4.890625 L 4.359375 -3.953125 L 3.375 -0.171875 C 3.363281 -0.109375 3.3125 -0.0625 3.21875 -0.03125 C 3.125 0 3.007812 0.015625 2.875 0.015625 Z M 2.234375 0.015625 "/></g></g></g><g fill="#000000" fill-opacity="1"><g transform="translate(80.829861, 44.678695)"><g><path d="M 1.234375 0 C 1.109375 0 1.015625 -0.03125 0.953125 -0.09375 C 0.890625 -0.15625 0.859375 -0.25 0.859375 -0.375 L 0.859375 -6.84375 C 0.859375 -6.976562 0.890625 -7.070312 0.953125 -7.125 C 1.015625 -7.1875 1.109375 -7.21875 1.234375 -7.21875 L 4.84375 -7.21875 C 4.9375 -7.21875 5.003906 -7.179688 5.046875 -7.109375 C 5.097656 -7.046875 5.125 -6.9375 5.125 -6.78125 L 5.125 -6.5 C 5.125 -6.34375 5.097656 -6.226562 5.046875 -6.15625 C 5.003906 -6.09375 4.9375 -6.0625 4.84375 -6.0625 L 2.203125 -6.0625 L 2.203125 -4.265625 L 4.5625 -4.265625 C 4.65625 -4.265625 4.722656 -4.226562 4.765625 -4.15625 C 4.816406 -4.09375 4.84375 -3.984375 4.84375 -3.828125 L 4.84375 -3.5625 C 4.84375 -3.40625 4.816406 -3.289062 4.765625 -3.21875 C 4.722656 -3.144531 4.65625 -3.109375 4.5625 -3.109375 L 2.203125 -3.109375 L 2.203125 -1.15625 L 4.859375 -1.15625 C 4.953125 -1.15625 5.019531 -1.117188 5.0625 -1.046875 C 5.113281 -0.984375 5.140625 -0.875 5.140625 -0.71875 L 5.140625 -0.4375 C 5.140625 -0.28125 5.113281 -0.164062 5.0625 -0.09375 C 5.019531 -0.03125 4.953125 0 4.859375 0 Z M 1.234375 0 "/></g></g></g><g fill="#000000" fill-opacity="1"><g transform="translate(88.512255, 44.678695)"><g><path d="M 1.234375 0 C 1.109375 0 1.015625 -0.03125 0.953125 -0.09375 C 0.890625 -0.15625 0.859375 -0.25 0.859375 -0.375 L 0.859375 -6.84375 C 0.859375 -6.976562 0.890625 -7.070312 0.953125 -7.125 C 1.015625 -7.1875 1.109375 -7.21875 1.234375 -7.21875 L 3.203125 -7.21875 C 4.003906 -7.21875 4.601562 -7.050781 5 -6.71875 C 5.394531 -6.394531 5.59375 -5.953125 5.59375 -5.390625 C 5.59375 -5.046875 5.484375 -4.726562 5.265625 -4.4375 C 5.054688 -4.144531 4.789062 -3.941406 4.46875 -3.828125 L 4.484375 -3.78125 C 4.679688 -3.75 4.890625 -3.65625 5.109375 -3.5 C 5.328125 -3.351562 5.515625 -3.15625 5.671875 -2.90625 C 5.828125 -2.664062 5.90625 -2.390625 5.90625 -2.078125 C 5.90625 -1.398438 5.679688 -0.882812 5.234375 -0.53125 C 4.796875 -0.175781 4.144531 0 3.28125 0 Z M 3.09375 -4.265625 C 3.425781 -4.265625 3.691406 -4.347656 3.890625 -4.515625 C 4.097656 -4.691406 4.203125 -4.914062 4.203125 -5.1875 C 4.203125 -5.78125 3.832031 -6.078125 3.09375 -6.078125 L 2.203125 -6.078125 L 2.203125 -4.265625 Z M 3.390625 -1.15625 C 3.742188 -1.15625 4.015625 -1.242188 4.203125 -1.421875 C 4.398438 -1.597656 4.5 -1.847656 4.5 -2.171875 C 4.5 -2.472656 4.390625 -2.703125 4.171875 -2.859375 C 3.953125 -3.023438 3.640625 -3.109375 3.234375 -3.109375 L 2.203125 -3.109375 L 2.203125 -1.15625 Z M 3.390625 -1.15625 "/></g></g></g><g fill="#000000" fill-opacity="1"><g transform="translate(96.679121, 44.678695)"><g><path d="M 2.609375 0.078125 C 2.148438 0.078125 1.738281 0.03125 1.375 -0.0625 C 1.007812 -0.164062 0.726562 -0.289062 0.53125 -0.4375 C 0.363281 -0.5625 0.28125 -0.675781 0.28125 -0.78125 C 0.28125 -0.914062 0.347656 -1.078125 0.484375 -1.265625 C 0.617188 -1.460938 0.734375 -1.5625 0.828125 -1.5625 C 0.867188 -1.5625 0.953125 -1.523438 1.078125 -1.453125 C 1.296875 -1.347656 1.503906 -1.257812 1.703125 -1.1875 C 1.910156 -1.113281 2.15625 -1.078125 2.4375 -1.078125 C 2.738281 -1.078125 2.992188 -1.148438 3.203125 -1.296875 C 3.421875 -1.453125 3.53125 -1.675781 3.53125 -1.96875 C 3.53125 -2.15625 3.472656 -2.3125 3.359375 -2.4375 C 3.253906 -2.5625 3.125 -2.664062 2.96875 -2.75 C 2.8125 -2.84375 2.59375 -2.945312 2.3125 -3.0625 L 1.953125 -3.21875 C 1.628906 -3.351562 1.359375 -3.5 1.140625 -3.65625 C 0.929688 -3.8125 0.757812 -4.019531 0.625 -4.28125 C 0.488281 -4.539062 0.421875 -4.867188 0.421875 -5.265625 C 0.421875 -5.703125 0.53125 -6.070312 0.75 -6.375 C 0.96875 -6.6875 1.257812 -6.914062 1.625 -7.0625 C 1.988281 -7.21875 2.382812 -7.296875 2.8125 -7.296875 C 3.125 -7.296875 3.421875 -7.257812 3.703125 -7.1875 C 3.992188 -7.113281 4.222656 -7.019531 4.390625 -6.90625 C 4.523438 -6.800781 4.59375 -6.695312 4.59375 -6.59375 C 4.59375 -6.476562 4.535156 -6.320312 4.421875 -6.125 C 4.304688 -5.925781 4.203125 -5.828125 4.109375 -5.828125 C 4.078125 -5.828125 4.023438 -5.84375 3.953125 -5.875 C 3.878906 -5.914062 3.820312 -5.941406 3.78125 -5.953125 C 3.5 -6.078125 3.203125 -6.140625 2.890625 -6.140625 C 2.523438 -6.140625 2.253906 -6.0625 2.078125 -5.90625 C 1.898438 -5.757812 1.8125 -5.578125 1.8125 -5.359375 C 1.8125 -5.148438 1.863281 -4.984375 1.96875 -4.859375 C 2.070312 -4.734375 2.195312 -4.628906 2.34375 -4.546875 C 2.5 -4.472656 2.722656 -4.378906 3.015625 -4.265625 C 3.410156 -4.109375 3.734375 -3.953125 3.984375 -3.796875 C 4.242188 -3.648438 4.460938 -3.4375 4.640625 -3.15625 C 4.828125 -2.882812 4.921875 -2.53125 4.921875 -2.09375 C 4.921875 -1.375 4.695312 -0.832031 4.25 -0.46875 C 3.8125 -0.101562 3.265625 0.078125 2.609375 0.078125 Z M 2.609375 0.078125 "/></g></g></g><g fill="#000000" fill-opacity="1"><g transform="translate(103.887334, 44.678695)"><g><path d="M 1.328125 0.03125 C 0.960938 0.03125 0.78125 -0.0703125 0.78125 -0.28125 L 0.78125 -6.9375 C 0.78125 -7.144531 0.960938 -7.25 1.328125 -7.25 L 1.59375 -7.25 C 1.957031 -7.25 2.140625 -7.144531 2.140625 -6.9375 L 2.140625 -0.28125 C 2.140625 -0.0703125 1.957031 0.03125 1.59375 0.03125 Z M 1.328125 0.03125 "/></g></g></g><g fill="#000000" fill-opacity="1"><g transform="translate(108.858691, 44.678695)"><g><path d="M 2.703125 0.015625 C 2.335938 0.015625 2.15625 -0.0820312 2.15625 -0.28125 L 2.15625 -6.0625 L 0.40625 -6.0625 C 0.3125 -6.0625 0.238281 -6.09375 0.1875 -6.15625 C 0.144531 -6.226562 0.125 -6.34375 0.125 -6.5 L 0.125 -6.78125 C 0.125 -6.9375 0.144531 -7.046875 0.1875 -7.109375 C 0.238281 -7.179688 0.3125 -7.21875 0.40625 -7.21875 L 5.265625 -7.21875 C 5.359375 -7.21875 5.425781 -7.179688 5.46875 -7.109375 C 5.507812 -7.046875 5.53125 -6.9375 5.53125 -6.78125 L 5.53125 -6.5 C 5.53125 -6.34375 5.507812 -6.226562 5.46875 -6.15625 C 5.425781 -6.09375 5.359375 -6.0625 5.265625 -6.0625 L 3.515625 -6.0625 L 3.515625 -0.28125 C 3.515625 -0.0820312 3.332031 0.015625 2.96875 0.015625 Z M 2.703125 0.015625 "/></g></g></g><g fill="#000000" fill-opacity="1"><g transform="translate(116.572008, 44.678695)"><g><path d="M 1.234375 0 C 1.109375 0 1.015625 -0.03125 0.953125 -0.09375 C 0.890625 -0.15625 0.859375 -0.25 0.859375 -0.375 L 0.859375 -6.84375 C 0.859375 -6.976562 0.890625 -7.070312 0.953125 -7.125 C 1.015625 -7.1875 1.109375 -7.21875 1.234375 -7.21875 L 4.84375 -7.21875 C 4.9375 -7.21875 5.003906 -7.179688 5.046875 -7.109375 C 5.097656 -7.046875 5.125 -6.9375 5.125 -6.78125 L 5.125 -6.5 C 5.125 -6.34375 5.097656 -6.226562 5.046875 -6.15625 C 5.003906 -6.09375 4.9375 -6.0625 4.84375 -6.0625 L 2.203125 -6.0625 L 2.203125 -4.265625 L 4.5625 -4.265625 C 4.65625 -4.265625 4.722656 -4.226562 4.765625 -4.15625 C 4.816406 -4.09375 4.84375 -3.984375 4.84375 -3.828125 L 4.84375 -3.5625 C 4.84375 -3.40625 4.816406 -3.289062 4.765625 -3.21875 C 4.722656 -3.144531 4.65625 -3.109375 4.5625 -3.109375 L 2.203125 -3.109375 L 2.203125 -1.15625 L 4.859375 -1.15625 C 4.953125 -1.15625 5.019531 -1.117188 5.0625 -1.046875 C 5.113281 -0.984375 5.140625 -0.875 5.140625 -0.71875 L 5.140625 -0.4375 C 5.140625 -0.28125 5.113281 -0.164062 5.0625 -0.09375 C 5.019531 -0.03125 4.953125 0 4.859375 0 Z M 1.234375 0 "/></g></g></g><g fill="#000000" fill-opacity="1"><g transform="translate(124.2544, 44.678695)"><g/></g></g><g fill="#000000" fill-opacity="1"><g transform="translate(128.782514, 44.678695)"><g><path d="M 3.875 0.078125 C 2.71875 0.078125 1.863281 -0.21875 1.3125 -0.8125 C 0.769531 -1.414062 0.5 -2.351562 0.5 -3.625 C 0.5 -6.070312 1.640625 -7.296875 3.921875 -7.296875 C 4.253906 -7.296875 4.59375 -7.257812 4.9375 -7.1875 C 5.28125 -7.113281 5.550781 -7.019531 5.75 -6.90625 C 5.914062 -6.8125 6 -6.707031 6 -6.59375 C 6 -6.507812 5.96875 -6.398438 5.90625 -6.265625 C 5.84375 -6.140625 5.765625 -6.023438 5.671875 -5.921875 C 5.585938 -5.816406 5.507812 -5.765625 5.4375 -5.765625 C 5.425781 -5.765625 5.347656 -5.796875 5.203125 -5.859375 C 5.054688 -5.929688 4.875 -5.992188 4.65625 -6.046875 C 4.4375 -6.109375 4.179688 -6.140625 3.890625 -6.140625 C 3.210938 -6.140625 2.707031 -5.929688 2.375 -5.515625 C 2.050781 -5.109375 1.890625 -4.472656 1.890625 -3.609375 C 1.890625 -2.765625 2.050781 -2.128906 2.375 -1.703125 C 2.707031 -1.285156 3.207031 -1.078125 3.875 -1.078125 C 4.195312 -1.078125 4.472656 -1.113281 4.703125 -1.1875 C 4.929688 -1.257812 5.15625 -1.34375 5.375 -1.4375 C 5.476562 -1.5 5.550781 -1.53125 5.59375 -1.53125 C 5.675781 -1.53125 5.753906 -1.476562 5.828125 -1.375 C 5.910156 -1.28125 5.976562 -1.164062 6.03125 -1.03125 C 6.082031 -0.894531 6.109375 -0.800781 6.109375 -0.75 C 6.109375 -0.59375 5.992188 -0.445312 5.765625 -0.3125 C 5.546875 -0.195312 5.257812 -0.101562 4.90625 -0.03125 C 4.5625 0.0390625 4.21875 0.078125 3.875 0.078125 Z M 3.875 0.078125 "/></g></g></g><g fill="#000000" fill-opacity="1"><g transform="translate(137.217387, 44.678695)"><g><path d="M 1.40625 0.015625 C 1.039062 0.015625 0.859375 -0.0820312 0.859375 -0.28125 L 0.859375 -6.9375 C 0.859375 -7.132812 1.039062 -7.234375 1.40625 -7.234375 L 1.671875 -7.234375 C 2.035156 -7.234375 2.21875 -7.132812 2.21875 -6.9375 L 2.21875 -4.265625 L 5.328125 -4.265625 L 5.328125 -6.9375 C 5.328125 -7.132812 5.507812 -7.234375 5.875 -7.234375 L 6.140625 -7.234375 C 6.503906 -7.234375 6.6875 -7.132812 6.6875 -6.9375 L 6.6875 -0.28125 C 6.6875 -0.0820312 6.503906 0.015625 6.140625 0.015625 L 5.875 0.015625 C 5.507812 0.015625 5.328125 -0.0820312 5.328125 -0.28125 L 5.328125 -3.109375 L 2.21875 -3.109375 L 2.21875 -0.28125 C 2.21875 -0.0820312 2.035156 0.015625 1.671875 0.015625 Z M 1.40625 0.015625 "/></g></g></g><g fill="#000000" fill-opacity="1"><g transform="translate(146.827385, 44.678695)"><g><path d="M 3.78125 0.078125 C 2.726562 0.078125 1.914062 -0.238281 1.34375 -0.875 C 0.78125 -1.507812 0.5 -2.425781 0.5 -3.625 C 0.5 -4.8125 0.78125 -5.71875 1.34375 -6.34375 C 1.914062 -6.976562 2.726562 -7.296875 3.78125 -7.296875 C 4.832031 -7.296875 5.632812 -6.984375 6.1875 -6.359375 C 6.75 -5.734375 7.03125 -4.820312 7.03125 -3.625 C 7.03125 -2.425781 6.75 -1.507812 6.1875 -0.875 C 5.632812 -0.238281 4.832031 0.078125 3.78125 0.078125 Z M 3.78125 -1.078125 C 4.382812 -1.078125 4.84375 -1.289062 5.15625 -1.71875 C 5.476562 -2.15625 5.640625 -2.789062 5.640625 -3.625 C 5.640625 -4.445312 5.476562 -5.070312 5.15625 -5.5 C 4.84375 -5.925781 4.382812 -6.140625 3.78125 -6.140625 C 3.164062 -6.140625 2.695312 -5.925781 2.375 -5.5 C 2.050781 -5.070312 1.890625 -4.445312 1.890625 -3.625 C 1.890625 -2.789062 2.050781 -2.15625 2.375 -1.71875 C 2.695312 -1.289062 3.164062 -1.078125 3.78125 -1.078125 Z M 3.78125 -1.078125 "/></g></g></g><g fill="#000000" fill-opacity="1"><g transform="translate(156.416763, 44.678695)"><g/></g></g><g fill="#000000" fill-opacity="1"><g transform="translate(160.944877, 44.678695)"><g><path d="M 2.703125 0.015625 C 2.335938 0.015625 2.15625 -0.0820312 2.15625 -0.28125 L 2.15625 -6.0625 L 0.40625 -6.0625 C 0.3125 -6.0625 0.238281 -6.09375 0.1875 -6.15625 C 0.144531 -6.226562 0.125 -6.34375 0.125 -6.5 L 0.125 -6.78125 C 0.125 -6.9375 0.144531 -7.046875 0.1875 -7.109375 C 0.238281 -7.179688 0.3125 -7.21875 0.40625 -7.21875 L 5.265625 -7.21875 C 5.359375 -7.21875 5.425781 -7.179688 5.46875 -7.109375 C 5.507812 -7.046875 5.53125 -6.9375 5.53125 -6.78125 L 5.53125 -6.5 C 5.53125 -6.34375 5.507812 -6.226562 5.46875 -6.15625 C 5.425781 -6.09375 5.359375 -6.0625 5.265625 -6.0625 L 3.515625 -6.0625 L 3.515625 -0.28125 C 3.515625 -0.0820312 3.332031 0.015625 2.96875 0.015625 Z M 2.703125 0.015625 "/></g></g></g><g fill="#000000" fill-opacity="1"><g transform="translate(168.6582, 44.678695)"><g><path d="M 1.40625 0.015625 C 1.039062 0.015625 0.859375 -0.0820312 0.859375 -0.28125 L 0.859375 -6.9375 C 0.859375 -7.132812 1.039062 -7.234375 1.40625 -7.234375 L 1.671875 -7.234375 C 2.035156 -7.234375 2.21875 -7.132812 2.21875 -6.9375 L 2.21875 -4.265625 L 5.328125 -4.265625 L 5.328125 -6.9375 C 5.328125 -7.132812 5.507812 -7.234375 5.875 -7.234375 L 6.140625 -7.234375 C 6.503906 -7.234375 6.6875 -7.132812 6.6875 -6.9375 L 6.6875 -0.28125 C 6.6875 -0.0820312 6.503906 0.015625 6.140625 0.015625 L 5.875 0.015625 C 5.507812 0.015625 5.328125 -0.0820312 5.328125 -0.28125 L 5.328125 -3.109375 L 2.21875 -3.109375 L 2.21875 -0.28125 C 2.21875 -0.0820312 2.035156 0.015625 1.671875 0.015625 Z M 1.40625 0.015625 "/></g></g></g><g fill="#000000" fill-opacity="1"><g transform="translate(178.268198, 44.678695)"><g><path d="M 3.671875 0.078125 C 2.734375 0.078125 2.007812 -0.132812 1.5 -0.5625 C 1 -1 0.75 -1.601562 0.75 -2.375 L 0.75 -6.9375 C 0.75 -7.132812 0.929688 -7.234375 1.296875 -7.234375 L 1.546875 -7.234375 C 1.910156 -7.234375 2.09375 -7.132812 2.09375 -6.9375 L 2.09375 -2.4375 C 2.09375 -2.03125 2.238281 -1.703125 2.53125 -1.453125 C 2.832031 -1.203125 3.210938 -1.078125 3.671875 -1.078125 C 4.128906 -1.078125 4.507812 -1.203125 4.8125 -1.453125 C 5.113281 -1.710938 5.265625 -2.039062 5.265625 -2.4375 L 5.265625 -6.9375 C 5.265625 -7.132812 5.445312 -7.234375 5.8125 -7.234375 L 6.046875 -7.234375 C 6.410156 -7.234375 6.59375 -7.132812 6.59375 -6.9375 L 6.59375 -2.375 C 6.59375 -1.601562 6.335938 -1 5.828125 -0.5625 C 5.328125 -0.132812 4.609375 0.078125 3.671875 0.078125 Z M 3.671875 0.078125 "/></g></g></g><g fill="#000000" fill-opacity="1"><g transform="translate(187.661733, 44.678695)"><g><path d="M 1.234375 0 C 1.109375 0 1.015625 -0.03125 0.953125 -0.09375 C 0.890625 -0.15625 0.859375 -0.25 0.859375 -0.375 L 0.859375 -6.84375 C 0.859375 -6.976562 0.890625 -7.070312 0.953125 -7.125 C 1.015625 -7.1875 1.109375 -7.21875 1.234375 -7.21875 L 4.84375 -7.21875 C 4.9375 -7.21875 5.003906 -7.179688 5.046875 -7.109375 C 5.097656 -7.046875 5.125 -6.9375 5.125 -6.78125 L 5.125 -6.5 C 5.125 -6.34375 5.097656 -6.226562 5.046875 -6.15625 C 5.003906 -6.09375 4.9375 -6.0625 4.84375 -6.0625 L 2.203125 -6.0625 L 2.203125 -4.265625 L 4.5625 -4.265625 C 4.65625 -4.265625 4.722656 -4.226562 4.765625 -4.15625 C 4.816406 -4.09375 4.84375 -3.984375 4.84375 -3.828125 L 4.84375 -3.5625 C 4.84375 -3.40625 4.816406 -3.289062 4.765625 -3.21875 C 4.722656 -3.144531 4.65625 -3.109375 4.5625 -3.109375 L 2.203125 -3.109375 L 2.203125 -1.15625 L 4.859375 -1.15625 C 4.953125 -1.15625 5.019531 -1.117188 5.0625 -1.046875 C 5.113281 -0.984375 5.140625 -0.875 5.140625 -0.71875 L 5.140625 -0.4375 C 5.140625 -0.28125 5.113281 -0.164062 5.0625 -0.09375 C 5.019531 -0.03125 4.953125 0 4.859375 0 Z M 1.890625 -7.90625 C 1.742188 -7.90625 1.671875 -7.945312 1.671875 -8.03125 C 1.671875 -8.070312 1.691406 -8.128906 1.734375 -8.203125 L 2.375 -9.203125 C 2.414062 -9.285156 2.484375 -9.335938 2.578125 -9.359375 C 2.671875 -9.390625 2.796875 -9.40625 2.953125 -9.40625 L 3.109375 -9.40625 C 3.253906 -9.40625 3.375 -9.390625 3.46875 -9.359375 C 3.5625 -9.335938 3.632812 -9.285156 3.6875 -9.203125 L 4.3125 -8.203125 C 4.351562 -8.140625 4.375 -8.082031 4.375 -8.03125 C 4.375 -7.945312 4.304688 -7.90625 4.171875 -7.90625 L 4.015625 -7.90625 C 3.734375 -7.90625 3.539062 -7.976562 3.4375 -8.125 L 3.015625 -8.65625 L 2.625 -8.125 C 2.550781 -8.039062 2.46875 -7.984375 2.375 -7.953125 C 2.289062 -7.921875 2.179688 -7.90625 2.046875 -7.90625 Z M 1.890625 -7.90625 "/></g></g></g><g fill="#000000" fill-opacity="1"><g transform="translate(195.344125, 44.678695)"><g/></g></g><g fill="#000000" fill-opacity="1"><g transform="translate(199.872239, 44.678695)"><g><path d="M 3.875 0.078125 C 2.71875 0.078125 1.863281 -0.21875 1.3125 -0.8125 C 0.769531 -1.414062 0.5 -2.351562 0.5 -3.625 C 0.5 -6.070312 1.640625 -7.296875 3.921875 -7.296875 C 4.253906 -7.296875 4.59375 -7.257812 4.9375 -7.1875 C 5.28125 -7.113281 5.550781 -7.019531 5.75 -6.90625 C 5.914062 -6.8125 6 -6.707031 6 -6.59375 C 6 -6.507812 5.96875 -6.398438 5.90625 -6.265625 C 5.84375 -6.140625 5.765625 -6.023438 5.671875 -5.921875 C 5.585938 -5.816406 5.507812 -5.765625 5.4375 -5.765625 C 5.425781 -5.765625 5.347656 -5.796875 5.203125 -5.859375 C 5.054688 -5.929688 4.875 -5.992188 4.65625 -6.046875 C 4.4375 -6.109375 4.179688 -6.140625 3.890625 -6.140625 C 3.210938 -6.140625 2.707031 -5.929688 2.375 -5.515625 C 2.050781 -5.109375 1.890625 -4.472656 1.890625 -3.609375 C 1.890625 -2.765625 2.050781 -2.128906 2.375 -1.703125 C 2.707031 -1.285156 3.207031 -1.078125 3.875 -1.078125 C 4.195312 -1.078125 4.472656 -1.113281 4.703125 -1.1875 C 4.929688 -1.257812 5.15625 -1.34375 5.375 -1.4375 C 5.476562 -1.5 5.550781 -1.53125 5.59375 -1.53125 C 5.675781 -1.53125 5.753906 -1.476562 5.828125 -1.375 C 5.910156 -1.28125 5.976562 -1.164062 6.03125 -1.03125 C 6.082031 -0.894531 6.109375 -0.800781 6.109375 -0.75 C 6.109375 -0.59375 5.992188 -0.445312 5.765625 -0.3125 C 5.546875 -0.195312 5.257812 -0.101562 4.90625 -0.03125 C 4.5625 0.0390625 4.21875 0.078125 3.875 0.078125 Z M 3.875 0.078125 "/></g></g></g><g fill="#000000" fill-opacity="1"><g transform="translate(208.307112, 44.678695)"><g><path d="M 0.609375 0.015625 C 0.234375 0.015625 0.046875 -0.0507812 0.046875 -0.1875 C 0.046875 -0.207031 0.0546875 -0.265625 0.078125 -0.359375 L 2.40625 -7.046875 C 2.445312 -7.171875 2.625 -7.234375 2.9375 -7.234375 L 3.390625 -7.234375 C 3.691406 -7.234375 3.867188 -7.171875 3.921875 -7.046875 L 6.25 -0.359375 C 6.269531 -0.296875 6.28125 -0.238281 6.28125 -0.1875 C 6.28125 -0.0507812 6.113281 0.015625 5.78125 0.015625 L 5.46875 0.015625 C 5.164062 0.015625 4.988281 -0.046875 4.9375 -0.171875 L 4.46875 -1.59375 L 1.828125 -1.59375 L 1.34375 -0.171875 C 1.300781 -0.046875 1.148438 0.015625 0.890625 0.015625 Z M 4.078125 -2.75 L 3.328125 -5.015625 C 3.265625 -5.171875 3.210938 -5.382812 3.171875 -5.65625 L 3.140625 -5.65625 C 3.128906 -5.613281 3.109375 -5.519531 3.078125 -5.375 C 3.054688 -5.238281 3.023438 -5.117188 2.984375 -5.015625 L 2.203125 -2.75 Z M 3 -7.953125 C 2.726562 -7.953125 2.472656 -8.003906 2.234375 -8.109375 C 2.003906 -8.210938 1.820312 -8.351562 1.6875 -8.53125 C 1.5625 -8.71875 1.5 -8.921875 1.5 -9.140625 C 1.5 -9.296875 1.59375 -9.375 1.78125 -9.375 C 1.851562 -9.375 1.90625 -9.359375 1.9375 -9.328125 C 1.96875 -9.304688 1.992188 -9.273438 2.015625 -9.234375 C 2.046875 -9.203125 2.066406 -9.179688 2.078125 -9.171875 C 2.253906 -8.929688 2.5625 -8.8125 3 -8.8125 C 3.457031 -8.8125 3.765625 -8.929688 3.921875 -9.171875 C 3.984375 -9.253906 4.03125 -9.304688 4.0625 -9.328125 C 4.09375 -9.359375 4.144531 -9.375 4.21875 -9.375 C 4.40625 -9.375 4.5 -9.296875 4.5 -9.140625 C 4.5 -8.921875 4.429688 -8.71875 4.296875 -8.53125 C 4.171875 -8.351562 3.988281 -8.210938 3.75 -8.109375 C 3.519531 -8.003906 3.269531 -7.953125 3 -7.953125 Z M 3 -7.953125 "/></g></g></g><g fill="#000000" fill-opacity="1"><g transform="translate(216.680146, 44.678695)"><g><path d="M 1.328125 0.015625 C 0.960938 0.015625 0.78125 -0.0820312 0.78125 -0.28125 L 0.78125 -6.9375 C 0.78125 -7.132812 0.960938 -7.234375 1.328125 -7.234375 L 1.703125 -7.234375 C 1.847656 -7.234375 1.96875 -7.21875 2.0625 -7.1875 C 2.15625 -7.15625 2.234375 -7.085938 2.296875 -6.984375 L 4.921875 -2.953125 C 5.066406 -2.753906 5.191406 -2.550781 5.296875 -2.34375 L 5.328125 -2.34375 C 5.316406 -2.507812 5.3125 -2.742188 5.3125 -3.046875 L 5.3125 -6.9375 C 5.3125 -7.132812 5.492188 -7.234375 5.859375 -7.234375 L 6.078125 -7.234375 C 6.441406 -7.234375 6.625 -7.132812 6.625 -6.9375 L 6.625 -0.28125 C 6.625 -0.0820312 6.441406 0.015625 6.078125 0.015625 L 5.75 0.015625 C 5.601562 0.015625 5.488281 0 5.40625 -0.03125 C 5.320312 -0.0625 5.25 -0.125 5.1875 -0.21875 L 2.484375 -4.328125 C 2.335938 -4.535156 2.21875 -4.734375 2.125 -4.921875 L 2.078125 -4.921875 C 2.097656 -4.765625 2.109375 -4.53125 2.109375 -4.21875 L 2.109375 -0.28125 C 2.109375 -0.0820312 1.925781 0.015625 1.5625 0.015625 Z M 1.328125 0.015625 "/></g></g></g><g fill="#000000" fill-opacity="1"><g transform="translate(226.145836, 44.678695)"><g/></g></g><g fill="#000000" fill-opacity="1"><g transform="translate(230.67395, 44.678695)"><g><path d="M 1.40625 0.015625 C 1.039062 0.015625 0.859375 -0.0820312 0.859375 -0.28125 L 0.859375 -6.9375 C 0.859375 -7.132812 1.039062 -7.234375 1.40625 -7.234375 L 1.671875 -7.234375 C 2.035156 -7.234375 2.21875 -7.132812 2.21875 -6.9375 L 2.21875 -4.265625 L 5.328125 -4.265625 L 5.328125 -6.9375 C 5.328125 -7.132812 5.507812 -7.234375 5.875 -7.234375 L 6.140625 -7.234375 C 6.503906 -7.234375 6.6875 -7.132812 6.6875 -6.9375 L 6.6875 -0.28125 C 6.6875 -0.0820312 6.503906 0.015625 6.140625 0.015625 L 5.875 0.015625 C 5.507812 0.015625 5.328125 -0.0820312 5.328125 -0.28125 L 5.328125 -3.109375 L 2.21875 -3.109375 L 2.21875 -0.28125 C 2.21875 -0.0820312 2.035156 0.015625 1.671875 0.015625 Z M 1.40625 0.015625 "/></g></g></g><g fill="#000000" fill-opacity="1"><g transform="translate(240.283948, 44.678695)"><g><path d="M 3.78125 0.078125 C 2.726562 0.078125 1.914062 -0.238281 1.34375 -0.875 C 0.78125 -1.507812 0.5 -2.425781 0.5 -3.625 C 0.5 -4.8125 0.78125 -5.71875 1.34375 -6.34375 C 1.914062 -6.976562 2.726562 -7.296875 3.78125 -7.296875 C 4.832031 -7.296875 5.632812 -6.984375 6.1875 -6.359375 C 6.75 -5.734375 7.03125 -4.820312 7.03125 -3.625 C 7.03125 -2.425781 6.75 -1.507812 6.1875 -0.875 C 5.632812 -0.238281 4.832031 0.078125 3.78125 0.078125 Z M 3.78125 -1.078125 C 4.382812 -1.078125 4.84375 -1.289062 5.15625 -1.71875 C 5.476562 -2.15625 5.640625 -2.789062 5.640625 -3.625 C 5.640625 -4.445312 5.476562 -5.070312 5.15625 -5.5 C 4.84375 -5.925781 4.382812 -6.140625 3.78125 -6.140625 C 3.164062 -6.140625 2.695312 -5.925781 2.375 -5.5 C 2.050781 -5.070312 1.890625 -4.445312 1.890625 -3.625 C 1.890625 -2.789062 2.050781 -2.15625 2.375 -1.71875 C 2.695312 -1.289062 3.164062 -1.078125 3.78125 -1.078125 Z M 3.796875 2 C 3.429688 2 3.25 1.898438 3.25 1.703125 L 3.25 1.125 C 3.25 0.925781 3.4375 0.828125 3.8125 0.828125 C 4.175781 0.828125 4.359375 0.925781 4.359375 1.125 L 4.359375 1.703125 C 4.359375 1.898438 4.171875 2 3.796875 2 Z M 2.890625 -7.90625 C 2.742188 -7.90625 2.671875 -7.945312 2.671875 -8.03125 C 2.671875 -8.070312 2.691406 -8.128906 2.734375 -8.203125 L 3.375 -9.203125 C 3.414062 -9.285156 3.484375 -9.335938 3.578125 -9.359375 C 3.671875 -9.390625 3.796875 -9.40625 3.953125 -9.40625 L 4.109375 -9.40625 C 4.253906 -9.40625 4.375 -9.390625 4.46875 -9.359375 C 4.5625 -9.335938 4.632812 -9.285156 4.6875 -9.203125 L 5.3125 -8.203125 C 5.351562 -8.140625 5.375 -8.082031 5.375 -8.03125 C 5.375 -7.945312 5.304688 -7.90625 5.171875 -7.90625 L 5.015625 -7.90625 C 4.734375 -7.90625 4.539062 -7.976562 4.4375 -8.125 L 4.015625 -8.65625 L 3.625 -8.125 C 3.550781 -8.039062 3.46875 -7.984375 3.375 -7.953125 C 3.289062 -7.921875 3.179688 -7.90625 3.046875 -7.90625 Z M 2.890625 -7.90625 "/></g></g></g><g fill="#000000" fill-opacity="1"><g transform="translate(249.873326, 44.678695)"><g/></g></g><g fill="#000000" fill-opacity="1"><g transform="translate(254.401441, 44.678695)"><g><path d="M 2.609375 0.078125 C 2.148438 0.078125 1.738281 0.03125 1.375 -0.0625 C 1.007812 -0.164062 0.726562 -0.289062 0.53125 -0.4375 C 0.363281 -0.5625 0.28125 -0.675781 0.28125 -0.78125 C 0.28125 -0.914062 0.347656 -1.078125 0.484375 -1.265625 C 0.617188 -1.460938 0.734375 -1.5625 0.828125 -1.5625 C 0.867188 -1.5625 0.953125 -1.523438 1.078125 -1.453125 C 1.296875 -1.347656 1.503906 -1.257812 1.703125 -1.1875 C 1.910156 -1.113281 2.15625 -1.078125 2.4375 -1.078125 C 2.738281 -1.078125 2.992188 -1.148438 3.203125 -1.296875 C 3.421875 -1.453125 3.53125 -1.675781 3.53125 -1.96875 C 3.53125 -2.15625 3.472656 -2.3125 3.359375 -2.4375 C 3.253906 -2.5625 3.125 -2.664062 2.96875 -2.75 C 2.8125 -2.84375 2.59375 -2.945312 2.3125 -3.0625 L 1.953125 -3.21875 C 1.628906 -3.351562 1.359375 -3.5 1.140625 -3.65625 C 0.929688 -3.8125 0.757812 -4.019531 0.625 -4.28125 C 0.488281 -4.539062 0.421875 -4.867188 0.421875 -5.265625 C 0.421875 -5.703125 0.53125 -6.070312 0.75 -6.375 C 0.96875 -6.6875 1.257812 -6.914062 1.625 -7.0625 C 1.988281 -7.21875 2.382812 -7.296875 2.8125 -7.296875 C 3.125 -7.296875 3.421875 -7.257812 3.703125 -7.1875 C 3.992188 -7.113281 4.222656 -7.019531 4.390625 -6.90625 C 4.523438 -6.800781 4.59375 -6.695312 4.59375 -6.59375 C 4.59375 -6.476562 4.535156 -6.320312 4.421875 -6.125 C 4.304688 -5.925781 4.203125 -5.828125 4.109375 -5.828125 C 4.078125 -5.828125 4.023438 -5.84375 3.953125 -5.875 C 3.878906 -5.914062 3.820312 -5.941406 3.78125 -5.953125 C 3.5 -6.078125 3.203125 -6.140625 2.890625 -6.140625 C 2.523438 -6.140625 2.253906 -6.0625 2.078125 -5.90625 C 1.898438 -5.757812 1.8125 -5.578125 1.8125 -5.359375 C 1.8125 -5.148438 1.863281 -4.984375 1.96875 -4.859375 C 2.070312 -4.734375 2.195312 -4.628906 2.34375 -4.546875 C 2.5 -4.472656 2.722656 -4.378906 3.015625 -4.265625 C 3.410156 -4.109375 3.734375 -3.953125 3.984375 -3.796875 C 4.242188 -3.648438 4.460938 -3.4375 4.640625 -3.15625 C 4.828125 -2.882812 4.921875 -2.53125 4.921875 -2.09375 C 4.921875 -1.375 4.695312 -0.832031 4.25 -0.46875 C 3.8125 -0.101562 3.265625 0.078125 2.609375 0.078125 Z M 2.609375 0.078125 "/></g></g></g><g fill="#000000" fill-opacity="1"><g transform="translate(261.609654, 44.678695)"><g><path d="M 4.96875 -8.6875 C 4.863281 -8.6875 4.789062 -8.695312 4.75 -8.71875 C 4.707031 -8.738281 4.6875 -8.773438 4.6875 -8.828125 C 4.6875 -8.859375 4.707031 -8.914062 4.75 -9 C 4.800781 -9.09375 4.867188 -9.210938 4.953125 -9.359375 C 5.035156 -9.492188 5.160156 -9.710938 5.328125 -10.015625 C 5.421875 -10.191406 5.6875 -10.28125 6.125 -10.28125 C 6.320312 -10.28125 6.460938 -10.269531 6.546875 -10.25 C 6.640625 -10.226562 6.6875 -10.191406 6.6875 -10.140625 C 6.6875 -10.097656 6.660156 -10.039062 6.609375 -9.96875 C 6.554688 -9.90625 6.382812 -9.710938 6.09375 -9.390625 L 5.65625 -8.921875 C 5.507812 -8.765625 5.28125 -8.6875 4.96875 -8.6875 Z M 2.65625 -7.734375 C 2.507812 -7.734375 2.4375 -7.773438 2.4375 -7.859375 C 2.4375 -7.898438 2.457031 -7.953125 2.5 -8.015625 L 3.140625 -9.03125 C 3.179688 -9.101562 3.25 -9.15625 3.34375 -9.1875 C 3.4375 -9.21875 3.5625 -9.234375 3.71875 -9.234375 L 3.875 -9.234375 C 4.019531 -9.234375 4.140625 -9.21875 4.234375 -9.1875 C 4.328125 -9.15625 4.394531 -9.101562 4.4375 -9.03125 L 5.078125 -8.015625 C 5.117188 -7.960938 5.140625 -7.910156 5.140625 -7.859375 C 5.140625 -7.773438 5.066406 -7.734375 4.921875 -7.734375 L 4.78125 -7.734375 C 4.5 -7.734375 4.304688 -7.804688 4.203125 -7.953125 L 3.78125 -8.484375 L 3.375 -7.953125 C 3.3125 -7.867188 3.234375 -7.8125 3.140625 -7.78125 C 3.054688 -7.75 2.945312 -7.734375 2.8125 -7.734375 Z M 3.78125 0.078125 C 2.726562 0.078125 1.914062 -0.238281 1.34375 -0.875 C 0.78125 -1.507812 0.5 -2.425781 0.5 -3.625 C 0.5 -4.8125 0.78125 -5.71875 1.34375 -6.34375 C 1.914062 -6.976562 2.726562 -7.296875 3.78125 -7.296875 C 4.832031 -7.296875 5.632812 -6.984375 6.1875 -6.359375 C 6.75 -5.734375 7.03125 -4.820312 7.03125 -3.625 C 7.03125 -2.425781 6.75 -1.507812 6.1875 -0.875 C 5.632812 -0.238281 4.832031 0.078125 3.78125 0.078125 Z M 3.78125 -1.078125 C 4.382812 -1.078125 4.84375 -1.289062 5.15625 -1.71875 C 5.476562 -2.15625 5.640625 -2.789062 5.640625 -3.625 C 5.640625 -4.445312 5.476562 -5.070312 5.15625 -5.5 C 4.84375 -5.925781 4.382812 -6.140625 3.78125 -6.140625 C 3.164062 -6.140625 2.695312 -5.925781 2.375 -5.5 C 2.050781 -5.070312 1.890625 -4.445312 1.890625 -3.625 C 1.890625 -2.789062 2.050781 -2.15625 2.375 -1.71875 C 2.695312 -1.289062 3.164062 -1.078125 3.78125 -1.078125 Z M 3.78125 -1.078125 "/></g></g></g><g fill="#000000" fill-opacity="1"><g transform="translate(271.199043, 44.678695)"><g/></g></g><g fill="#000000" fill-opacity="1"><g transform="translate(275.727168, 44.678695)"><g><path d="M 0.71875 0 C 0.613281 0 0.539062 -0.03125 0.5 -0.09375 C 0.457031 -0.164062 0.4375 -0.28125 0.4375 -0.4375 L 0.4375 -0.59375 C 0.4375 -0.75 0.457031 -0.863281 0.5 -0.9375 C 0.539062 -1.007812 0.613281 -1.046875 0.71875 -1.046875 L 2.234375 -1.046875 L 2.234375 -6 L 0.6875 -5.75 C 0.582031 -5.75 0.503906 -5.832031 0.453125 -6 C 0.410156 -6.164062 0.390625 -6.332031 0.390625 -6.5 C 0.390625 -6.644531 0.46875 -6.734375 0.625 -6.765625 L 3.140625 -7.25 C 3.222656 -7.25 3.304688 -7.222656 3.390625 -7.171875 C 3.484375 -7.128906 3.53125 -7.078125 3.53125 -7.015625 L 3.53125 -1.046875 L 4.78125 -1.046875 C 4.875 -1.046875 4.941406 -1.007812 4.984375 -0.9375 C 5.023438 -0.863281 5.046875 -0.75 5.046875 -0.59375 L 5.046875 -0.4375 C 5.046875 -0.28125 5.023438 -0.164062 4.984375 -0.09375 C 4.941406 -0.03125 4.875 0 4.78125 0 Z M 0.71875 0 "/></g></g></g><g fill="#000000" fill-opacity="1"><g transform="translate(283.296165, 44.678695)"><g/></g></g><g fill="#000000" fill-opacity="1"><g transform="translate(287.824291, 44.678695)"><g><path d="M 2.9375 0.015625 C 2.625 0.015625 2.453125 -0.046875 2.421875 -0.171875 L 0.140625 -6.859375 C 0.117188 -6.929688 0.109375 -6.988281 0.109375 -7.03125 C 0.109375 -7.164062 0.296875 -7.234375 0.671875 -7.234375 L 0.921875 -7.234375 C 1.222656 -7.234375 1.40625 -7.148438 1.46875 -6.984375 L 3.046875 -2.171875 L 3.140625 -1.75 L 3.1875 -1.75 L 3.296875 -2.171875 L 4.90625 -6.984375 C 4.957031 -7.148438 5.132812 -7.234375 5.4375 -7.234375 L 5.671875 -7.234375 C 6.046875 -7.234375 6.234375 -7.164062 6.234375 -7.03125 C 6.234375 -6.988281 6.222656 -6.929688 6.203125 -6.859375 L 3.921875 -0.171875 C 3.890625 -0.046875 3.71875 0.015625 3.40625 0.015625 Z M 2.9375 0.015625 "/></g></g></g><g fill="#000000" fill-opacity="1"><g transform="translate(296.238554, 44.678695)"><g><path d="M 1.328125 0.03125 C 0.960938 0.03125 0.78125 -0.0703125 0.78125 -0.28125 L 0.78125 -6.9375 C 0.78125 -7.144531 0.960938 -7.25 1.328125 -7.25 L 1.59375 -7.25 C 1.957031 -7.25 2.140625 -7.144531 2.140625 -6.9375 L 2.140625 -0.28125 C 2.140625 -0.0703125 1.957031 0.03125 1.59375 0.03125 Z M 1.328125 0.03125 "/></g></g></g><g fill="#000000" fill-opacity="1"><g transform="translate(301.209922, 44.678695)"><g><path d="M 1.234375 0 C 1.109375 0 1.015625 -0.03125 0.953125 -0.09375 C 0.890625 -0.15625 0.859375 -0.25 0.859375 -0.375 L 0.859375 -6.84375 C 0.859375 -6.976562 0.890625 -7.070312 0.953125 -7.125 C 1.015625 -7.1875 1.109375 -7.21875 1.234375 -7.21875 L 4.84375 -7.21875 C 4.9375 -7.21875 5.003906 -7.179688 5.046875 -7.109375 C 5.097656 -7.046875 5.125 -6.9375 5.125 -6.78125 L 5.125 -6.5 C 5.125 -6.34375 5.097656 -6.226562 5.046875 -6.15625 C 5.003906 -6.09375 4.9375 -6.0625 4.84375 -6.0625 L 2.203125 -6.0625 L 2.203125 -4.265625 L 4.5625 -4.265625 C 4.65625 -4.265625 4.722656 -4.226562 4.765625 -4.15625 C 4.816406 -4.09375 4.84375 -3.984375 4.84375 -3.828125 L 4.84375 -3.5625 C 4.84375 -3.40625 4.816406 -3.289062 4.765625 -3.21875 C 4.722656 -3.144531 4.65625 -3.109375 4.5625 -3.109375 L 2.203125 -3.109375 L 2.203125 -1.15625 L 4.859375 -1.15625 C 4.953125 -1.15625 5.019531 -1.117188 5.0625 -1.046875 C 5.113281 -0.984375 5.140625 -0.875 5.140625 -0.71875 L 5.140625 -0.4375 C 5.140625 -0.28125 5.113281 -0.164062 5.0625 -0.09375 C 5.019531 -0.03125 4.953125 0 4.859375 0 Z M 3.015625 2 C 2.648438 2 2.46875 1.898438 2.46875 1.703125 L 2.46875 1.125 C 2.46875 0.925781 2.65625 0.828125 3.03125 0.828125 C 3.394531 0.828125 3.578125 0.925781 3.578125 1.125 L 3.578125 1.703125 C 3.578125 1.898438 3.390625 2 3.015625 2 Z M 1.890625 -7.90625 C 1.742188 -7.90625 1.671875 -7.945312 1.671875 -8.03125 C 1.671875 -8.070312 1.691406 -8.128906 1.734375 -8.203125 L 2.375 -9.203125 C 2.414062 -9.285156 2.484375 -9.335938 2.578125 -9.359375 C 2.671875 -9.390625 2.796875 -9.40625 2.953125 -9.40625 L 3.109375 -9.40625 C 3.253906 -9.40625 3.375 -9.390625 3.46875 -9.359375 C 3.5625 -9.335938 3.632812 -9.285156 3.6875 -9.203125 L 4.3125 -8.203125 C 4.351562 -8.140625 4.375 -8.082031 4.375 -8.03125 C 4.375 -7.945312 4.304688 -7.90625 4.171875 -7.90625 L 4.015625 -7.90625 C 3.734375 -7.90625 3.539062 -7.976562 3.4375 -8.125 L 3.015625 -8.65625 L 2.625 -8.125 C 2.550781 -8.039062 2.46875 -7.984375 2.375 -7.953125 C 2.289062 -7.921875 2.179688 -7.90625 2.046875 -7.90625 Z M 1.890625 -7.90625 "/></g></g></g><g fill="#000000" fill-opacity="1"><g transform="translate(308.892326, 44.678695)"><g><path d="M 2.703125 0.015625 C 2.335938 0.015625 2.15625 -0.0820312 2.15625 -0.28125 L 2.15625 -6.0625 L 0.40625 -6.0625 C 0.3125 -6.0625 0.238281 -6.09375 0.1875 -6.15625 C 0.144531 -6.226562 0.125 -6.34375 0.125 -6.5 L 0.125 -6.78125 C 0.125 -6.9375 0.144531 -7.046875 0.1875 -7.109375 C 0.238281 -7.179688 0.3125 -7.21875 0.40625 -7.21875 L 5.265625 -7.21875 C 5.359375 -7.21875 5.425781 -7.179688 5.46875 -7.109375 C 5.507812 -7.046875 5.53125 -6.9375 5.53125 -6.78125 L 5.53125 -6.5 C 5.53125 -6.34375 5.507812 -6.226562 5.46875 -6.15625 C 5.425781 -6.09375 5.359375 -6.0625 5.265625 -6.0625 L 3.515625 -6.0625 L 3.515625 -0.28125 C 3.515625 -0.0820312 3.332031 0.015625 2.96875 0.015625 Z M 2.703125 0.015625 "/></g></g></g><g fill="#000000" fill-opacity="1"><g transform="translate(316.605654, 44.678695)"><g/></g></g><g fill="#000000" fill-opacity="1"><g transform="translate(321.133779, 44.678695)"><g><path d="M 1.328125 0.015625 C 0.960938 0.015625 0.78125 -0.0820312 0.78125 -0.28125 L 0.78125 -6.9375 C 0.78125 -7.132812 0.960938 -7.234375 1.328125 -7.234375 L 1.703125 -7.234375 C 1.847656 -7.234375 1.96875 -7.21875 2.0625 -7.1875 C 2.15625 -7.15625 2.234375 -7.085938 2.296875 -6.984375 L 4.921875 -2.953125 C 5.066406 -2.753906 5.191406 -2.550781 5.296875 -2.34375 L 5.328125 -2.34375 C 5.316406 -2.507812 5.3125 -2.742188 5.3125 -3.046875 L 5.3125 -6.9375 C 5.3125 -7.132812 5.492188 -7.234375 5.859375 -7.234375 L 6.078125 -7.234375 C 6.441406 -7.234375 6.625 -7.132812 6.625 -6.9375 L 6.625 -0.28125 C 6.625 -0.0820312 6.441406 0.015625 6.078125 0.015625 L 5.75 0.015625 C 5.601562 0.015625 5.488281 0 5.40625 -0.03125 C 5.320312 -0.0625 5.25 -0.125 5.1875 -0.21875 L 2.484375 -4.328125 C 2.335938 -4.535156 2.21875 -4.734375 2.125 -4.921875 L 2.078125 -4.921875 C 2.097656 -4.765625 2.109375 -4.53125 2.109375 -4.21875 L 2.109375 -0.28125 C 2.109375 -0.0820312 1.925781 0.015625 1.5625 0.015625 Z M 1.328125 0.015625 "/></g></g></g><g fill="#000000" fill-opacity="1"><g transform="translate(330.599469, 44.678695)"><g><path d="M 0.609375 0.015625 C 0.234375 0.015625 0.046875 -0.0507812 0.046875 -0.1875 C 0.046875 -0.207031 0.0546875 -0.265625 0.078125 -0.359375 L 2.40625 -7.046875 C 2.445312 -7.171875 2.625 -7.234375 2.9375 -7.234375 L 3.390625 -7.234375 C 3.691406 -7.234375 3.867188 -7.171875 3.921875 -7.046875 L 6.25 -0.359375 C 6.269531 -0.296875 6.28125 -0.238281 6.28125 -0.1875 C 6.28125 -0.0507812 6.113281 0.015625 5.78125 0.015625 L 5.46875 0.015625 C 5.164062 0.015625 4.988281 -0.046875 4.9375 -0.171875 L 4.46875 -1.59375 L 1.828125 -1.59375 L 1.34375 -0.171875 C 1.300781 -0.046875 1.148438 0.015625 0.890625 0.015625 Z M 4.078125 -2.75 L 3.328125 -5.015625 C 3.265625 -5.171875 3.210938 -5.382812 3.171875 -5.65625 L 3.140625 -5.65625 C 3.128906 -5.613281 3.109375 -5.519531 3.078125 -5.375 C 3.054688 -5.238281 3.023438 -5.117188 2.984375 -5.015625 L 2.203125 -2.75 Z M 4.078125 -2.75 "/></g></g></g><g fill="#000000" fill-opacity="1"><g transform="translate(338.972514, 44.678695)"><g><path d="M 4.1875 -1.828125 C 4.03125 -1.828125 3.914062 -1.882812 3.84375 -2 L 2.375 -4.59375 C 2.289062 -4.707031 2.210938 -4.847656 2.140625 -5.015625 L 2.09375 -5 C 2.101562 -4.882812 2.109375 -4.707031 2.109375 -4.46875 L 2.109375 -0.28125 C 2.109375 -0.0820312 1.925781 0.015625 1.5625 0.015625 L 1.328125 0.015625 C 0.960938 0.015625 0.78125 -0.0820312 0.78125 -0.28125 L 0.78125 -6.9375 C 0.78125 -7.132812 0.960938 -7.234375 1.328125 -7.234375 L 1.8125 -7.234375 C 2.113281 -7.234375 2.304688 -7.148438 2.390625 -6.984375 L 4.1875 -3.828125 C 4.257812 -3.710938 4.316406 -3.597656 4.359375 -3.484375 C 4.378906 -3.578125 4.429688 -3.695312 4.515625 -3.84375 L 6.328125 -6.984375 C 6.410156 -7.148438 6.597656 -7.234375 6.890625 -7.234375 L 7.359375 -7.234375 C 7.722656 -7.234375 7.90625 -7.132812 7.90625 -6.9375 L 7.90625 -0.28125 C 7.90625 -0.0820312 7.722656 0.015625 7.359375 0.015625 L 7.140625 0.015625 C 6.773438 0.015625 6.59375 -0.0820312 6.59375 -0.28125 L 6.59375 -4.453125 C 6.59375 -4.691406 6.59375 -4.867188 6.59375 -4.984375 L 6.5625 -4.984375 C 6.488281 -4.828125 6.410156 -4.6875 6.328125 -4.5625 L 4.875 -2 C 4.789062 -1.882812 4.671875 -1.828125 4.515625 -1.828125 Z M 4.1875 -1.828125 "/></g></g></g></svg>