<svg xmlns="http://www.w3.org/2000/svg" xmlns:xlink="http://www.w3.org/1999/xlink" width="500" zoomAndPan="magnify" viewBox="0 0 375 52.499999" height="70" preserveAspectRatio="xMidYMid meet" version="1.0"><defs><g><g id="id1"/><g id="id2"/></g><clipPath id="id3"><path d="M 1.769531 16 L 7 16 L 7 51.261719 L 1.769531 51.261719 Z M 1.769531 16 " clip-rule="nonzero"/></clipPath><clipPath id="id4"><path d="M 48 16 L 53 16 L 53 51.261719 L 48 51.261719 Z M 48 16 " clip-rule="nonzero"/></clipPath><clipPath id="id5"><path d="M 2 46 L 53 46 L 53 51.261719 L 2 51.261719 Z M 2 46 " clip-rule="nonzero"/></clipPath></defs><g fill="rgb(85.099792%, 13.328552%, 15.289307%)" fill-opacity="1"><g transform="translate(67.097584, 33.296515)"><g><path d="M 16.703125 0 L 9.265625 0 C 6.722656 0 4.835938 -0.503906 3.609375 -1.515625 C 2.378906 -2.535156 1.765625 -4.101562 1.765625 -6.21875 L 1.765625 -15.703125 C 1.765625 -17.816406 2.378906 -19.382812 3.609375 -20.40625 C 4.835938 -21.4375 6.722656 -21.953125 9.265625 -21.953125 L 16.703125 -21.953125 C 17.085938 -21.953125 17.363281 -21.863281 17.53125 -21.6875 C 17.707031 -21.519531 17.796875 -21.238281 17.796875 -20.84375 L 17.796875 -17.15625 C 17.796875 -16.769531 17.707031 -16.488281 17.53125 -16.3125 C 17.363281 -16.144531 17.085938 -16.0625 16.703125 -16.0625 L 10.578125 -16.0625 C 9.953125 -16.0625 9.484375 -15.929688 9.171875 -15.671875 C 8.867188 -15.421875 8.71875 -15.046875 8.71875 -14.546875 L 8.71875 -7.28125 C 8.71875 -6.78125 8.867188 -6.410156 9.171875 -6.171875 C 9.484375 -5.941406 9.953125 -5.828125 10.578125 -5.828125 L 16.703125 -5.828125 C 17.085938 -5.828125 17.363281 -5.738281 17.53125 -5.5625 C 17.707031 -5.382812 17.796875 -5.101562 17.796875 -4.71875 L 17.796875 -1.09375 C 17.796875 -0.707031 17.707031 -0.425781 17.53125 -0.25 C 17.363281 -0.0820312 17.085938 0 16.703125 0 Z M 16.703125 0 "/></g></g></g><g fill="rgb(85.099792%, 13.328552%, 15.289307%)" fill-opacity="1"><g transform="translate(87.459604, 33.296515)"><g><path d="M 7.921875 0 L 3.203125 0 C 2.816406 0 2.535156 -0.0820312 2.359375 -0.25 C 2.191406 -0.425781 2.109375 -0.707031 2.109375 -1.09375 L 2.109375 -20.84375 C 2.109375 -21.238281 2.191406 -21.519531 2.359375 -21.6875 C 2.535156 -21.863281 2.816406 -21.953125 3.203125 -21.953125 L 7.921875 -21.953125 C 8.304688 -21.953125 8.582031 -21.863281 8.75 -21.6875 C 8.925781 -21.519531 9.015625 -21.238281 9.015625 -20.84375 L 9.015625 -14.234375 L 14.109375 -14.234375 L 14.109375 -20.84375 C 14.109375 -21.238281 14.191406 -21.519531 14.359375 -21.6875 C 14.535156 -21.863281 14.820312 -21.953125 15.21875 -21.953125 L 19.9375 -21.953125 C 20.320312 -21.953125 20.597656 -21.863281 20.765625 -21.6875 C 20.941406 -21.519531 21.03125 -21.238281 21.03125 -20.84375 L 21.03125 -1.09375 C 21.03125 -0.707031 20.941406 -0.425781 20.765625 -0.25 C 20.597656 -0.0820312 20.320312 0 19.9375 0 L 15.21875 0 C 14.820312 0 14.535156 -0.0820312 14.359375 -0.25 C 14.191406 -0.425781 14.109375 -0.707031 14.109375 -1.09375 L 14.109375 -7.859375 L 9.015625 -7.859375 L 9.015625 -1.09375 C 9.015625 -0.707031 8.925781 -0.425781 8.75 -0.25 C 8.582031 -0.0820312 8.304688 0 7.921875 0 Z M 7.921875 0 "/></g></g></g><g fill="rgb(85.099792%, 13.328552%, 15.289307%)" fill-opacity="1"><g transform="translate(111.814683, 33.296515)"><g><path d="M 20.703125 -5.765625 C 20.703125 -4.828125 20.5625 -3.976562 20.28125 -3.21875 C 20.007812 -2.457031 19.519531 -1.804688 18.8125 -1.265625 C 18.113281 -0.722656 17.148438 -0.300781 15.921875 0 C 14.691406 0.300781 13.132812 0.453125 11.25 0.453125 C 9.351562 0.453125 7.785156 0.300781 6.546875 0 C 5.304688 -0.300781 4.335938 -0.722656 3.640625 -1.265625 C 2.941406 -1.804688 2.453125 -2.457031 2.171875 -3.21875 C 1.898438 -3.976562 1.765625 -4.828125 1.765625 -5.765625 L 1.765625 -16.15625 C 1.765625 -17.09375 1.898438 -17.941406 2.171875 -18.703125 C 2.453125 -19.460938 2.941406 -20.113281 3.640625 -20.65625 C 4.335938 -21.207031 5.304688 -21.632812 6.546875 -21.9375 C 7.785156 -22.25 9.351562 -22.40625 11.25 -22.40625 C 13.132812 -22.40625 14.691406 -22.25 15.921875 -21.9375 C 17.148438 -21.632812 18.113281 -21.207031 18.8125 -20.65625 C 19.519531 -20.113281 20.007812 -19.460938 20.28125 -18.703125 C 20.5625 -17.941406 20.703125 -17.09375 20.703125 -16.15625 Z M 8.6875 -6.859375 C 8.6875 -6.453125 8.835938 -6.109375 9.140625 -5.828125 C 9.453125 -5.554688 10.15625 -5.421875 11.25 -5.421875 C 12.34375 -5.421875 13.039062 -5.554688 13.34375 -5.828125 C 13.65625 -6.109375 13.8125 -6.453125 13.8125 -6.859375 L 13.8125 -15.0625 C 13.8125 -15.445312 13.65625 -15.773438 13.34375 -16.046875 C 13.039062 -16.328125 12.34375 -16.46875 11.25 -16.46875 C 10.15625 -16.46875 9.453125 -16.328125 9.140625 -16.046875 C 8.835938 -15.773438 8.6875 -15.445312 8.6875 -15.0625 Z M 8.6875 -6.859375 "/></g></g></g><g fill="rgb(85.099792%, 13.328552%, 15.289307%)" fill-opacity="1"><g transform="translate(135.499176, 33.296515)"><g><path d="M 12.46875 0 L 7.53125 0 C 7.144531 0 6.863281 -0.0820312 6.6875 -0.25 C 6.519531 -0.425781 6.4375 -0.707031 6.4375 -1.09375 L 6.4375 -16.0625 L 1.953125 -16.0625 C 1.566406 -16.0625 1.285156 -16.144531 1.109375 -16.3125 C 0.941406 -16.488281 0.859375 -16.769531 0.859375 -17.15625 L 0.859375 -20.84375 C 0.859375 -21.238281 0.941406 -21.519531 1.109375 -21.6875 C 1.285156 -21.863281 1.566406 -21.953125 1.953125 -21.953125 L 18.046875 -21.953125 C 18.429688 -21.953125 18.707031 -21.863281 18.875 -21.6875 C 19.050781 -21.519531 19.140625 -21.238281 19.140625 -20.84375 L 19.140625 -17.15625 C 19.140625 -16.769531 19.050781 -16.488281 18.875 -16.3125 C 18.707031 -16.144531 18.429688 -16.0625 18.046875 -16.0625 L 13.5625 -16.0625 L 13.5625 -1.09375 C 13.5625 -0.707031 13.472656 -0.425781 13.296875 -0.25 C 13.128906 -0.0820312 12.851562 0 12.46875 0 Z M 12.46875 0 "/></g></g></g><g fill="rgb(85.099792%, 13.328552%, 15.289307%)" fill-opacity="1"><g transform="translate(156.714682, 33.296515)"><g><path d="M 7.921875 0 L 3.203125 0 C 2.816406 0 2.535156 -0.0820312 2.359375 -0.25 C 2.191406 -0.425781 2.109375 -0.707031 2.109375 -1.09375 L 2.109375 -20.84375 C 2.109375 -21.238281 2.191406 -21.519531 2.359375 -21.6875 C 2.535156 -21.863281 2.816406 -21.953125 3.203125 -21.953125 L 7.921875 -21.953125 C 8.304688 -21.953125 8.582031 -21.863281 8.75 -21.6875 C 8.925781 -21.519531 9.015625 -21.238281 9.015625 -20.84375 L 9.015625 -14.234375 L 14.109375 -14.234375 L 14.109375 -20.84375 C 14.109375 -21.238281 14.191406 -21.519531 14.359375 -21.6875 C 14.535156 -21.863281 14.820312 -21.953125 15.21875 -21.953125 L 19.9375 -21.953125 C 20.320312 -21.953125 20.597656 -21.863281 20.765625 -21.6875 C 20.941406 -21.519531 21.03125 -21.238281 21.03125 -20.84375 L 21.03125 -1.09375 C 21.03125 -0.707031 20.941406 -0.425781 20.765625 -0.25 C 20.597656 -0.0820312 20.320312 0 19.9375 0 L 15.21875 0 C 14.820312 0 14.535156 -0.0820312 14.359375 -0.25 C 14.191406 -0.425781 14.109375 -0.707031 14.109375 -1.09375 L 14.109375 -7.859375 L 9.015625 -7.859375 L 9.015625 -1.09375 C 9.015625 -0.707031 8.925781 -0.425781 8.75 -0.25 C 8.582031 -0.0820312 8.304688 0 7.921875 0 Z M 7.921875 0 "/></g></g></g><g fill="rgb(85.099792%, 13.328552%, 15.289307%)" fill-opacity="1"><g transform="translate(181.069766, 33.296515)"><g><path d="M 20.796875 -5.765625 C 20.796875 -4.828125 20.65625 -3.976562 20.375 -3.21875 C 20.101562 -2.457031 19.613281 -1.804688 18.90625 -1.265625 C 18.207031 -0.722656 17.25 -0.300781 16.03125 0 C 14.8125 0.300781 13.257812 0.453125 11.375 0.453125 C 9.476562 0.453125 7.921875 0.300781 6.703125 0 C 5.484375 -0.300781 4.523438 -0.722656 3.828125 -1.265625 C 3.128906 -1.804688 2.640625 -2.457031 2.359375 -3.21875 C 2.085938 -3.976562 1.953125 -4.828125 1.953125 -5.765625 L 1.953125 -20.84375 C 1.953125 -21.238281 2.035156 -21.519531 2.203125 -21.6875 C 2.378906 -21.863281 2.660156 -21.953125 3.046875 -21.953125 L 7.828125 -21.953125 C 8.210938 -21.953125 8.492188 -21.863281 8.671875 -21.6875 C 8.847656 -21.519531 8.9375 -21.238281 8.9375 -20.84375 L 8.9375 -6.953125 C 8.9375 -6.546875 9.085938 -6.203125 9.390625 -5.921875 C 9.691406 -5.648438 10.375 -5.515625 11.4375 -5.515625 C 12.507812 -5.515625 13.195312 -5.648438 13.5 -5.921875 C 13.8125 -6.203125 13.96875 -6.546875 13.96875 -6.953125 L 13.96875 -20.84375 C 13.96875 -21.238281 14.050781 -21.519531 14.21875 -21.6875 C 14.394531 -21.863281 14.675781 -21.953125 15.0625 -21.953125 L 19.6875 -21.953125 C 20.070312 -21.953125 20.351562 -21.863281 20.53125 -21.6875 C 20.707031 -21.519531 20.796875 -21.238281 20.796875 -20.84375 Z M 20.796875 -5.765625 "/></g></g></g><g fill="rgb(85.099792%, 13.328552%, 15.289307%)" fill-opacity="1"><g transform="translate(205.028592, 33.296515)"><g><path d="M 17.34375 0 L 3.203125 0 C 2.816406 0 2.535156 -0.0820312 2.359375 -0.25 C 2.191406 -0.425781 2.109375 -0.707031 2.109375 -1.09375 L 2.109375 -20.84375 C 2.109375 -21.238281 2.191406 -21.519531 2.359375 -21.6875 C 2.535156 -21.863281 2.816406 -21.953125 3.203125 -21.953125 L 17.34375 -21.953125 C 17.726562 -21.953125 18.003906 -21.863281 18.171875 -21.6875 C 18.347656 -21.519531 18.4375 -21.238281 18.4375 -20.84375 L 18.4375 -17.28125 C 18.4375 -16.894531 18.347656 -16.613281 18.171875 -16.4375 C 18.003906 -16.269531 17.726562 -16.1875 17.34375 -16.1875 L 8.9375 -16.1875 L 8.9375 -13.84375 L 14.875 -13.84375 C 15.257812 -13.84375 15.535156 -13.753906 15.703125 -13.578125 C 15.878906 -13.410156 15.96875 -13.132812 15.96875 -12.75 L 15.96875 -9.484375 C 15.96875 -9.097656 15.878906 -8.816406 15.703125 -8.640625 C 15.535156 -8.472656 15.257812 -8.390625 14.875 -8.390625 L 8.9375 -8.390625 L 8.9375 -5.765625 L 17.34375 -5.765625 C 17.726562 -5.765625 18.003906 -5.675781 18.171875 -5.5 C 18.347656 -5.332031 18.4375 -5.054688 18.4375 -4.671875 L 18.4375 -1.09375 C 18.4375 -0.707031 18.347656 -0.425781 18.171875 -0.25 C 18.003906 -0.0820312 17.726562 0 17.34375 0 Z M 17.34375 0 "/></g></g></g><g fill="rgb(85.099792%, 13.328552%, 15.289307%)" fill-opacity="1"><g transform="translate(226.183131, 33.296515)"><g><path d="M 7.78125 0 L 3.203125 0 C 2.816406 0 2.535156 -0.0820312 2.359375 -0.25 C 2.191406 -0.425781 2.109375 -0.707031 2.109375 -1.09375 L 2.109375 -20.84375 C 2.109375 -21.238281 2.191406 -21.519531 2.359375 -21.6875 C 2.535156 -21.863281 2.816406 -21.953125 3.203125 -21.953125 L 6.375 -21.953125 C 6.757812 -21.953125 7.085938 -21.890625 7.359375 -21.765625 C 7.640625 -21.640625 7.910156 -21.425781 8.171875 -21.125 L 14.078125 -14.359375 L 14.078125 -20.84375 C 14.078125 -21.238281 14.164062 -21.519531 14.34375 -21.6875 C 14.519531 -21.863281 14.800781 -21.953125 15.1875 -21.953125 L 19.75 -21.953125 C 20.132812 -21.953125 20.410156 -21.863281 20.578125 -21.6875 C 20.753906 -21.519531 20.84375 -21.238281 20.84375 -20.84375 L 20.84375 -1.09375 C 20.84375 -0.707031 20.753906 -0.425781 20.578125 -0.25 C 20.410156 -0.0820312 20.132812 0 19.75 0 L 15.1875 0 C 14.800781 0 14.519531 -0.0820312 14.34375 -0.25 C 14.164062 -0.425781 14.078125 -0.707031 14.078125 -1.09375 L 14.078125 -4.84375 L 8.875 -11.15625 L 8.875 -1.09375 C 8.875 -0.707031 8.785156 -0.425781 8.609375 -0.25 C 8.441406 -0.0820312 8.164062 0 7.78125 0 Z M 7.78125 0 "/></g></g></g><g fill="rgb(85.099792%, 13.328552%, 15.289307%)" fill-opacity="1"><g transform="translate(250.355328, 33.296515)"><g><path d="M 7.921875 0 L 3.203125 0 C 2.816406 0 2.535156 -0.0820312 2.359375 -0.25 C 2.191406 -0.425781 2.109375 -0.707031 2.109375 -1.09375 L 2.109375 -20.84375 C 2.109375 -21.238281 2.191406 -21.519531 2.359375 -21.6875 C 2.535156 -21.863281 2.816406 -21.953125 3.203125 -21.953125 L 7.921875 -21.953125 C 8.304688 -21.953125 8.582031 -21.863281 8.75 -21.6875 C 8.925781 -21.519531 9.015625 -21.238281 9.015625 -20.84375 L 9.015625 -14.234375 L 14.109375 -14.234375 L 14.109375 -20.84375 C 14.109375 -21.238281 14.191406 -21.519531 14.359375 -21.6875 C 14.535156 -21.863281 14.820312 -21.953125 15.21875 -21.953125 L 19.9375 -21.953125 C 20.320312 -21.953125 20.597656 -21.863281 20.765625 -21.6875 C 20.941406 -21.519531 21.03125 -21.238281 21.03125 -20.84375 L 21.03125 -1.09375 C 21.03125 -0.707031 20.941406 -0.425781 20.765625 -0.25 C 20.597656 -0.0820312 20.320312 0 19.9375 0 L 15.21875 0 C 14.820312 0 14.535156 -0.0820312 14.359375 -0.25 C 14.191406 -0.425781 14.109375 -0.707031 14.109375 -1.09375 L 14.109375 -7.859375 L 9.015625 -7.859375 L 9.015625 -1.09375 C 9.015625 -0.707031 8.925781 -0.425781 8.75 -0.25 C 8.582031 -0.0820312 8.304688 0 7.921875 0 Z M 7.921875 0 "/></g></g></g><g fill="rgb(85.099792%, 13.328552%, 15.289307%)" fill-opacity="1"><g transform="translate(274.7104, 33.296515)"><g><path d="M 10.0625 -15.546875 L 8.625 -10.90625 L 13.40625 -10.90625 L 11.984375 -15.546875 C 11.898438 -15.734375 11.8125 -15.863281 11.71875 -15.9375 C 11.625 -16.019531 11.519531 -16.0625 11.40625 -16.0625 L 10.640625 -16.0625 C 10.515625 -16.0625 10.40625 -16.019531 10.3125 -15.9375 C 10.226562 -15.863281 10.144531 -15.734375 10.0625 -15.546875 Z M 8.328125 -1.09375 C 8.328125 -0.707031 8.238281 -0.425781 8.0625 -0.25 C 7.882812 -0.0820312 7.601562 0 7.21875 0 L 2.75 0 C 2.363281 0 2.082031 -0.0820312 1.90625 -0.25 C 1.726562 -0.425781 1.640625 -0.707031 1.640625 -1.09375 L 1.640625 -9.140625 C 1.640625 -9.753906 1.734375 -10.457031 1.921875 -11.25 C 2.117188 -12.039062 2.421875 -12.960938 2.828125 -14.015625 L 5.484375 -20.9375 C 5.609375 -21.289062 5.796875 -21.546875 6.046875 -21.703125 C 6.304688 -21.867188 6.640625 -21.953125 7.046875 -21.953125 L 15.25 -21.953125 C 15.632812 -21.953125 15.953125 -21.867188 16.203125 -21.703125 C 16.453125 -21.546875 16.640625 -21.289062 16.765625 -20.9375 L 19.421875 -14.015625 C 19.828125 -12.960938 20.125 -12.039062 20.3125 -11.25 C 20.507812 -10.457031 20.609375 -9.753906 20.609375 -9.140625 L 20.609375 -1.09375 C 20.609375 -0.707031 20.519531 -0.425781 20.34375 -0.25 C 20.175781 -0.0820312 19.898438 0 19.515625 0 L 14.90625 0 C 14.5 0 14.195312 -0.0820312 14 -0.25 C 13.8125 -0.425781 13.71875 -0.707031 13.71875 -1.09375 L 13.71875 -5.359375 L 8.328125 -5.359375 Z M 8.328125 -1.09375 "/></g></g></g><g fill="rgb(0%, 0%, 0%)" fill-opacity="1"><g transform="translate(298.171805, 33.296515)"><g><path d="M 8.9375 0 L 2.78125 0 C 2.382812 0 2.097656 -0.0820312 1.921875 -0.25 C 1.753906 -0.425781 1.671875 -0.707031 1.671875 -1.09375 L 1.671875 -7.28125 C 1.671875 -7.664062 1.753906 -7.945312 1.921875 -8.125 C 2.097656 -8.300781 2.382812 -8.390625 2.78125 -8.390625 L 8.9375 -8.390625 C 9.320312 -8.390625 9.597656 -8.300781 9.765625 -8.125 C 9.941406 -7.945312 10.03125 -7.664062 10.03125 -7.28125 L 10.03125 -1.09375 C 10.03125 -0.707031 9.941406 -0.425781 9.765625 -0.25 C 9.597656 -0.0820312 9.320312 0 8.9375 0 Z M 8.9375 0 "/></g></g></g><g fill="rgb(0%, 0%, 0%)" fill-opacity="1"><g transform="translate(311.096352, 33.296515)"><g><path d="M 7.75 0 L 3.203125 0 C 2.816406 0 2.535156 -0.0820312 2.359375 -0.25 C 2.191406 -0.425781 2.109375 -0.707031 2.109375 -1.09375 L 2.109375 -20.84375 C 2.109375 -21.238281 2.191406 -21.519531 2.359375 -21.6875 C 2.535156 -21.863281 2.816406 -21.953125 3.203125 -21.953125 L 8.109375 -21.953125 C 8.429688 -21.953125 8.695312 -21.878906 8.90625 -21.734375 C 9.125 -21.585938 9.328125 -21.351562 9.515625 -21.03125 L 12.25 -16.0625 C 12.351562 -15.882812 12.441406 -15.753906 12.515625 -15.671875 C 12.585938 -15.585938 12.679688 -15.546875 12.796875 -15.546875 L 13.078125 -15.546875 C 13.203125 -15.546875 13.296875 -15.585938 13.359375 -15.671875 C 13.429688 -15.753906 13.519531 -15.882812 13.625 -16.0625 L 16.34375 -21.03125 C 16.519531 -21.351562 16.710938 -21.585938 16.921875 -21.734375 C 17.140625 -21.878906 17.410156 -21.953125 17.734375 -21.953125 L 22.6875 -21.953125 C 23.070312 -21.953125 23.347656 -21.863281 23.515625 -21.6875 C 23.691406 -21.519531 23.78125 -21.238281 23.78125 -20.84375 L 23.78125 -1.09375 C 23.78125 -0.707031 23.691406 -0.425781 23.515625 -0.25 C 23.347656 -0.0820312 23.070312 0 22.6875 0 L 17.984375 0 C 17.597656 0 17.316406 -0.0820312 17.140625 -0.25 C 16.972656 -0.425781 16.890625 -0.707031 16.890625 -1.09375 L 16.890625 -11.828125 L 15.09375 -8.5 C 14.90625 -8.15625 14.679688 -7.90625 14.421875 -7.75 C 14.171875 -7.601562 13.851562 -7.53125 13.46875 -7.53125 L 12.25 -7.53125 C 11.863281 -7.53125 11.539062 -7.601562 11.28125 -7.75 C 11.03125 -7.90625 10.816406 -8.15625 10.640625 -8.5 L 8.84375 -11.828125 L 8.84375 -1.09375 C 8.84375 -0.707031 8.753906 -0.425781 8.578125 -0.25 C 8.410156 -0.0820312 8.132812 0 7.75 0 Z M 7.75 0 "/></g></g></g><g fill="rgb(0%, 0%, 0%)" fill-opacity="1"><g transform="translate(338.194761, 33.296515)"><g><path d="M 17.34375 0 L 3.203125 0 C 2.816406 0 2.535156 -0.0820312 2.359375 -0.25 C 2.191406 -0.425781 2.109375 -0.707031 2.109375 -1.09375 L 2.109375 -20.84375 C 2.109375 -21.238281 2.191406 -21.519531 2.359375 -21.6875 C 2.535156 -21.863281 2.816406 -21.953125 3.203125 -21.953125 L 17.34375 -21.953125 C 17.726562 -21.953125 18.003906 -21.863281 18.171875 -21.6875 C 18.347656 -21.519531 18.4375 -21.238281 18.4375 -20.84375 L 18.4375 -17.28125 C 18.4375 -16.894531 18.347656 -16.613281 18.171875 -16.4375 C 18.003906 -16.269531 17.726562 -16.1875 17.34375 -16.1875 L 8.9375 -16.1875 L 8.9375 -13.84375 L 14.875 -13.84375 C 15.257812 -13.84375 15.535156 -13.753906 15.703125 -13.578125 C 15.878906 -13.410156 15.96875 -13.132812 15.96875 -12.75 L 15.96875 -9.484375 C 15.96875 -9.097656 15.878906 -8.816406 15.703125 -8.640625 C 15.535156 -8.472656 15.257812 -8.390625 14.875 -8.390625 L 8.9375 -8.390625 L 8.9375 -5.765625 L 17.34375 -5.765625 C 17.726562 -5.765625 18.003906 -5.675781 18.171875 -5.5 C 18.347656 -5.332031 18.4375 -5.054688 18.4375 -4.671875 L 18.4375 -1.09375 C 18.4375 -0.707031 18.347656 -0.425781 18.171875 -0.25 C 18.003906 -0.0820312 17.726562 0 17.34375 0 Z M 17.34375 0 "/></g></g></g><g fill="rgb(0%, 0%, 0%)" fill-opacity="1"><g transform="translate(69.683952, 49.253959)"><g><path d="M 2.234375 0.015625 C 1.929688 0.015625 1.757812 -0.046875 1.71875 -0.171875 L 0.046875 -6.84375 C 0.0351562 -6.925781 0.03125 -6.976562 0.03125 -7 C 0.03125 -7.15625 0.21875 -7.234375 0.59375 -7.234375 L 0.796875 -7.234375 C 1.160156 -7.234375 1.363281 -7.144531 1.40625 -6.96875 L 2.359375 -3.046875 L 2.5 -2.375 L 2.640625 -1.75 C 2.671875 -1.925781 2.742188 -2.253906 2.859375 -2.734375 L 2.953125 -3.046875 L 3.9375 -7.03125 C 3.96875 -7.164062 4.132812 -7.234375 4.4375 -7.234375 L 4.765625 -7.234375 C 5.066406 -7.234375 5.234375 -7.164062 5.265625 -7.03125 L 6.25 -3.046875 C 6.300781 -2.828125 6.367188 -2.523438 6.453125 -2.140625 L 6.53125 -1.6875 L 6.84375 -3.046875 L 7.8125 -6.96875 C 7.851562 -7.144531 8.050781 -7.234375 8.40625 -7.234375 L 8.5 -7.234375 C 8.875 -7.234375 9.0625 -7.15625 9.0625 -7 L 9.046875 -6.84375 L 7.328125 -0.171875 C 7.304688 -0.109375 7.25 -0.0625 7.15625 -0.03125 C 7.0625 0 6.945312 0.015625 6.8125 0.015625 L 6.171875 0.015625 C 6.035156 0.015625 5.921875 0 5.828125 -0.03125 C 5.734375 -0.0625 5.675781 -0.109375 5.65625 -0.171875 L 4.71875 -3.953125 L 4.53125 -4.890625 L 4.359375 -3.953125 L 3.375 -0.171875 C 3.363281 -0.109375 3.3125 -0.0625 3.21875 -0.03125 C 3.125 0 3.007812 0.015625 2.875 0.015625 Z M 2.234375 0.015625 "/></g></g></g><g fill="rgb(0%, 0%, 0%)" fill-opacity="1"><g transform="translate(80.829861, 49.253959)"><g><path d="M 1.234375 0 C 1.109375 0 1.015625 -0.03125 0.953125 -0.09375 C 0.890625 -0.15625 0.859375 -0.25 0.859375 -0.375 L 0.859375 -6.84375 C 0.859375 -6.976562 0.890625 -7.070312 0.953125 -7.125 C 1.015625 -7.1875 1.109375 -7.21875 1.234375 -7.21875 L 4.84375 -7.21875 C 4.9375 -7.21875 5.003906 -7.179688 5.046875 -7.109375 C 5.097656 -7.046875 5.125 -6.9375 5.125 -6.78125 L 5.125 -6.5 C 5.125 -6.34375 5.097656 -6.226562 5.046875 -6.15625 C 5.003906 -6.09375 4.9375 -6.0625 4.84375 -6.0625 L 2.203125 -6.0625 L 2.203125 -4.265625 L 4.5625 -4.265625 C 4.65625 -4.265625 4.722656 -4.226562 4.765625 -4.15625 C 4.816406 -4.09375 4.84375 -3.984375 4.84375 -3.828125 L 4.84375 -3.5625 C 4.84375 -3.40625 4.816406 -3.289062 4.765625 -3.21875 C 4.722656 -3.144531 4.65625 -3.109375 4.5625 -3.109375 L 2.203125 -3.109375 L 2.203125 -1.15625 L 4.859375 -1.15625 C 4.953125 -1.15625 5.019531 -1.117188 5.0625 -1.046875 C 5.113281 -0.984375 5.140625 -0.875 5.140625 -0.71875 L 5.140625 -0.4375 C 5.140625 -0.28125 5.113281 -0.164062 5.0625 -0.09375 C 5.019531 -0.03125 4.953125 0 4.859375 0 Z M 1.234375 0 "/></g></g></g><g fill="rgb(0%, 0%, 0%)" fill-opacity="1"><g transform="translate(88.512255, 49.253959)"><g><path d="M 1.234375 0 C 1.109375 0 1.015625 -0.03125 0.953125 -0.09375 C 0.890625 -0.15625 0.859375 -0.25 0.859375 -0.375 L 0.859375 -6.84375 C 0.859375 -6.976562 0.890625 -7.070312 0.953125 -7.125 C 1.015625 -7.1875 1.109375 -7.21875 1.234375 -7.21875 L 3.203125 -7.21875 C 4.003906 -7.21875 4.601562 -7.050781 5 -6.71875 C 5.394531 -6.394531 5.59375 -5.953125 5.59375 -5.390625 C 5.59375 -5.046875 5.484375 -4.726562 5.265625 -4.4375 C 5.054688 -4.144531 4.789062 -3.941406 4.46875 -3.828125 L 4.484375 -3.78125 C 4.679688 -3.75 4.890625 -3.65625 5.109375 -3.5 C 5.328125 -3.351562 5.515625 -3.15625 5.671875 -2.90625 C 5.828125 -2.664062 5.90625 -2.390625 5.90625 -2.078125 C 5.90625 -1.398438 5.679688 -0.882812 5.234375 -0.53125 C 4.796875 -0.175781 4.144531 0 3.28125 0 Z M 3.09375 -4.265625 C 3.425781 -4.265625 3.691406 -4.347656 3.890625 -4.515625 C 4.097656 -4.691406 4.203125 -4.914062 4.203125 -5.1875 C 4.203125 -5.78125 3.832031 -6.078125 3.09375 -6.078125 L 2.203125 -6.078125 L 2.203125 -4.265625 Z M 3.390625 -1.15625 C 3.742188 -1.15625 4.015625 -1.242188 4.203125 -1.421875 C 4.398438 -1.597656 4.5 -1.847656 4.5 -2.171875 C 4.5 -2.472656 4.390625 -2.703125 4.171875 -2.859375 C 3.953125 -3.023438 3.640625 -3.109375 3.234375 -3.109375 L 2.203125 -3.109375 L 2.203125 -1.15625 Z M 3.390625 -1.15625 "/></g></g></g><g fill="rgb(0%, 0%, 0%)" fill-opacity="1"><g transform="translate(96.679121, 49.253959)"><g><path d="M 2.609375 0.078125 C 2.148438 0.078125 1.738281 0.03125 1.375 -0.0625 C 1.007812 -0.164062 0.726562 -0.289062 0.53125 -0.4375 C 0.363281 -0.5625 0.28125 -0.675781 0.28125 -0.78125 C 0.28125 -0.914062 0.347656 -1.078125 0.484375 -1.265625 C 0.617188 -1.460938 0.734375 -1.5625 0.828125 -1.5625 C 0.867188 -1.5625 0.953125 -1.523438 1.078125 -1.453125 C 1.296875 -1.347656 1.503906 -1.257812 1.703125 -1.1875 C 1.910156 -1.113281 2.15625 -1.078125 2.4375 -1.078125 C 2.738281 -1.078125 2.992188 -1.148438 3.203125 -1.296875 C 3.421875 -1.453125 3.53125 -1.675781 3.53125 -1.96875 C 3.53125 -2.15625 3.472656 -2.3125 3.359375 -2.4375 C 3.253906 -2.5625 3.125 -2.664062 2.96875 -2.75 C 2.8125 -2.84375 2.59375 -2.945312 2.3125 -3.0625 L 1.953125 -3.21875 C 1.628906 -3.351562 1.359375 -3.5 1.140625 -3.65625 C 0.929688 -3.8125 0.757812 -4.019531 0.625 -4.28125 C 0.488281 -4.539062 0.421875 -4.867188 0.421875 -5.265625 C 0.421875 -5.703125 0.53125 -6.070312 0.75 -6.375 C 0.96875 -6.6875 1.257812 -6.914062 1.625 -7.0625 C 1.988281 -7.21875 2.382812 -7.296875 2.8125 -7.296875 C 3.125 -7.296875 3.421875 -7.257812 3.703125 -7.1875 C 3.992188 -7.113281 4.222656 -7.019531 4.390625 -6.90625 C 4.523438 -6.800781 4.59375 -6.695312 4.59375 -6.59375 C 4.59375 -6.476562 4.535156 -6.320312 4.421875 -6.125 C 4.304688 -5.925781 4.203125 -5.828125 4.109375 -5.828125 C 4.078125 -5.828125 4.023438 -5.84375 3.953125 -5.875 C 3.878906 -5.914062 3.820312 -5.941406 3.78125 -5.953125 C 3.5 -6.078125 3.203125 -6.140625 2.890625 -6.140625 C 2.523438 -6.140625 2.253906 -6.0625 2.078125 -5.90625 C 1.898438 -5.757812 1.8125 -5.578125 1.8125 -5.359375 C 1.8125 -5.148438 1.863281 -4.984375 1.96875 -4.859375 C 2.070312 -4.734375 2.195312 -4.628906 2.34375 -4.546875 C 2.5 -4.472656 2.722656 -4.378906 3.015625 -4.265625 C 3.410156 -4.109375 3.734375 -3.953125 3.984375 -3.796875 C 4.242188 -3.648438 4.460938 -3.4375 4.640625 -3.15625 C 4.828125 -2.882812 4.921875 -2.53125 4.921875 -2.09375 C 4.921875 -1.375 4.695312 -0.832031 4.25 -0.46875 C 3.8125 -0.101562 3.265625 0.078125 2.609375 0.078125 Z M 2.609375 0.078125 "/></g></g></g><g fill="rgb(0%, 0%, 0%)" fill-opacity="1"><g transform="translate(103.887334, 49.253959)"><g><path d="M 1.328125 0.03125 C 0.960938 0.03125 0.78125 -0.0703125 0.78125 -0.28125 L 0.78125 -6.9375 C 0.78125 -7.144531 0.960938 -7.25 1.328125 -7.25 L 1.59375 -7.25 C 1.957031 -7.25 2.140625 -7.144531 2.140625 -6.9375 L 2.140625 -0.28125 C 2.140625 -0.0703125 1.957031 0.03125 1.59375 0.03125 Z M 1.328125 0.03125 "/></g></g></g><g fill="rgb(0%, 0%, 0%)" fill-opacity="1"><g transform="translate(108.858691, 49.253959)"><g><path d="M 2.703125 0.015625 C 2.335938 0.015625 2.15625 -0.0820312 2.15625 -0.28125 L 2.15625 -6.0625 L 0.40625 -6.0625 C 0.3125 -6.0625 0.238281 -6.09375 0.1875 -6.15625 C 0.144531 -6.226562 0.125 -6.34375 0.125 -6.5 L 0.125 -6.78125 C 0.125 -6.9375 0.144531 -7.046875 0.1875 -7.109375 C 0.238281 -7.179688 0.3125 -7.21875 0.40625 -7.21875 L 5.265625 -7.21875 C 5.359375 -7.21875 5.425781 -7.179688 5.46875 -7.109375 C 5.507812 -7.046875 5.53125 -6.9375 5.53125 -6.78125 L 5.53125 -6.5 C 5.53125 -6.34375 5.507812 -6.226562 5.46875 -6.15625 C 5.425781 -6.09375 5.359375 -6.0625 5.265625 -6.0625 L 3.515625 -6.0625 L 3.515625 -0.28125 C 3.515625 -0.0820312 3.332031 0.015625 2.96875 0.015625 Z M 2.703125 0.015625 "/></g></g></g><g fill="rgb(0%, 0%, 0%)" fill-opacity="1"><g transform="translate(116.572008, 49.253959)"><g><path d="M 1.234375 0 C 1.109375 0 1.015625 -0.03125 0.953125 -0.09375 C 0.890625 -0.15625 0.859375 -0.25 0.859375 -0.375 L 0.859375 -6.84375 C 0.859375 -6.976562 0.890625 -7.070312 0.953125 -7.125 C 1.015625 -7.1875 1.109375 -7.21875 1.234375 -7.21875 L 4.84375 -7.21875 C 4.9375 -7.21875 5.003906 -7.179688 5.046875 -7.109375 C 5.097656 -7.046875 5.125 -6.9375 5.125 -6.78125 L 5.125 -6.5 C 5.125 -6.34375 5.097656 -6.226562 5.046875 -6.15625 C 5.003906 -6.09375 4.9375 -6.0625 4.84375 -6.0625 L 2.203125 -6.0625 L 2.203125 -4.265625 L 4.5625 -4.265625 C 4.65625 -4.265625 4.722656 -4.226562 4.765625 -4.15625 C 4.816406 -4.09375 4.84375 -3.984375 4.84375 -3.828125 L 4.84375 -3.5625 C 4.84375 -3.40625 4.816406 -3.289062 4.765625 -3.21875 C 4.722656 -3.144531 4.65625 -3.109375 4.5625 -3.109375 L 2.203125 -3.109375 L 2.203125 -1.15625 L 4.859375 -1.15625 C 4.953125 -1.15625 5.019531 -1.117188 5.0625 -1.046875 C 5.113281 -0.984375 5.140625 -0.875 5.140625 -0.71875 L 5.140625 -0.4375 C 5.140625 -0.28125 5.113281 -0.164062 5.0625 -0.09375 C 5.019531 -0.03125 4.953125 0 4.859375 0 Z M 1.234375 0 "/></g></g></g><g fill="rgb(0%, 0%, 0%)" fill-opacity="1"><g transform="translate(124.2544, 49.253959)"><g/></g></g><g fill="rgb(0%, 0%, 0%)" fill-opacity="1"><g transform="translate(128.782514, 49.253959)"><g><path d="M 3.875 0.078125 C 2.71875 0.078125 1.863281 -0.21875 1.3125 -0.8125 C 0.769531 -1.414062 0.5 -2.351562 0.5 -3.625 C 0.5 -6.070312 1.640625 -7.296875 3.921875 -7.296875 C 4.253906 -7.296875 4.59375 -7.257812 4.9375 -7.1875 C 5.28125 -7.113281 5.550781 -7.019531 5.75 -6.90625 C 5.914062 -6.8125 6 -6.707031 6 -6.59375 C 6 -6.507812 5.96875 -6.398438 5.90625 -6.265625 C 5.84375 -6.140625 5.765625 -6.023438 5.671875 -5.921875 C 5.585938 -5.816406 5.507812 -5.765625 5.4375 -5.765625 C 5.425781 -5.765625 5.347656 -5.796875 5.203125 -5.859375 C 5.054688 -5.929688 4.875 -5.992188 4.65625 -6.046875 C 4.4375 -6.109375 4.179688 -6.140625 3.890625 -6.140625 C 3.210938 -6.140625 2.707031 -5.929688 2.375 -5.515625 C 2.050781 -5.109375 1.890625 -4.472656 1.890625 -3.609375 C 1.890625 -2.765625 2.050781 -2.128906 2.375 -1.703125 C 2.707031 -1.285156 3.207031 -1.078125 3.875 -1.078125 C 4.195312 -1.078125 4.472656 -1.113281 4.703125 -1.1875 C 4.929688 -1.257812 5.15625 -1.34375 5.375 -1.4375 C 5.476562 -1.5 5.550781 -1.53125 5.59375 -1.53125 C 5.675781 -1.53125 5.753906 -1.476562 5.828125 -1.375 C 5.910156 -1.28125 5.976562 -1.164062 6.03125 -1.03125 C 6.082031 -0.894531 6.109375 -0.800781 6.109375 -0.75 C 6.109375 -0.59375 5.992188 -0.445312 5.765625 -0.3125 C 5.546875 -0.195312 5.257812 -0.101562 4.90625 -0.03125 C 4.5625 0.0390625 4.21875 0.078125 3.875 0.078125 Z M 3.875 0.078125 "/></g></g></g><g fill="rgb(0%, 0%, 0%)" fill-opacity="1"><g transform="translate(137.217387, 49.253959)"><g><path d="M 1.40625 0.015625 C 1.039062 0.015625 0.859375 -0.0820312 0.859375 -0.28125 L 0.859375 -6.9375 C 0.859375 -7.132812 1.039062 -7.234375 1.40625 -7.234375 L 1.671875 -7.234375 C 2.035156 -7.234375 2.21875 -7.132812 2.21875 -6.9375 L 2.21875 -4.265625 L 5.328125 -4.265625 L 5.328125 -6.9375 C 5.328125 -7.132812 5.507812 -7.234375 5.875 -7.234375 L 6.140625 -7.234375 C 6.503906 -7.234375 6.6875 -7.132812 6.6875 -6.9375 L 6.6875 -0.28125 C 6.6875 -0.0820312 6.503906 0.015625 6.140625 0.015625 L 5.875 0.015625 C 5.507812 0.015625 5.328125 -0.0820312 5.328125 -0.28125 L 5.328125 -3.109375 L 2.21875 -3.109375 L 2.21875 -0.28125 C 2.21875 -0.0820312 2.035156 0.015625 1.671875 0.015625 Z M 1.40625 0.015625 "/></g></g></g><g fill="rgb(0%, 0%, 0%)" fill-opacity="1"><g transform="translate(146.827385, 49.253959)"><g><path d="M 3.78125 0.078125 C 2.726562 0.078125 1.914062 -0.238281 1.34375 -0.875 C 0.78125 -1.507812 0.5 -2.425781 0.5 -3.625 C 0.5 -4.8125 0.78125 -5.71875 1.34375 -6.34375 C 1.914062 -6.976562 2.726562 -7.296875 3.78125 -7.296875 C 4.832031 -7.296875 5.632812 -6.984375 6.1875 -6.359375 C 6.75 -5.734375 7.03125 -4.820312 7.03125 -3.625 C 7.03125 -2.425781 6.75 -1.507812 6.1875 -0.875 C 5.632812 -0.238281 4.832031 0.078125 3.78125 0.078125 Z M 3.78125 -1.078125 C 4.382812 -1.078125 4.84375 -1.289062 5.15625 -1.71875 C 5.476562 -2.15625 5.640625 -2.789062 5.640625 -3.625 C 5.640625 -4.445312 5.476562 -5.070312 5.15625 -5.5 C 4.84375 -5.925781 4.382812 -6.140625 3.78125 -6.140625 C 3.164062 -6.140625 2.695312 -5.925781 2.375 -5.5 C 2.050781 -5.070312 1.890625 -4.445312 1.890625 -3.625 C 1.890625 -2.789062 2.050781 -2.15625 2.375 -1.71875 C 2.695312 -1.289062 3.164062 -1.078125 3.78125 -1.078125 Z M 3.78125 -1.078125 "/></g></g></g><g fill="rgb(0%, 0%, 0%)" fill-opacity="1"><g transform="translate(156.416763, 49.253959)"><g/></g></g><g fill="rgb(0%, 0%, 0%)" fill-opacity="1"><g transform="translate(160.944877, 49.253959)"><g><path d="M 2.703125 0.015625 C 2.335938 0.015625 2.15625 -0.0820312 2.15625 -0.28125 L 2.15625 -6.0625 L 0.40625 -6.0625 C 0.3125 -6.0625 0.238281 -6.09375 0.1875 -6.15625 C 0.144531 -6.226562 0.125 -6.34375 0.125 -6.5 L 0.125 -6.78125 C 0.125 -6.9375 0.144531 -7.046875 0.1875 -7.109375 C 0.238281 -7.179688 0.3125 -7.21875 0.40625 -7.21875 L 5.265625 -7.21875 C 5.359375 -7.21875 5.425781 -7.179688 5.46875 -7.109375 C 5.507812 -7.046875 5.53125 -6.9375 5.53125 -6.78125 L 5.53125 -6.5 C 5.53125 -6.34375 5.507812 -6.226562 5.46875 -6.15625 C 5.425781 -6.09375 5.359375 -6.0625 5.265625 -6.0625 L 3.515625 -6.0625 L 3.515625 -0.28125 C 3.515625 -0.0820312 3.332031 0.015625 2.96875 0.015625 Z M 2.703125 0.015625 "/></g></g></g><g fill="rgb(0%, 0%, 0%)" fill-opacity="1"><g transform="translate(168.6582, 49.253959)"><g><path d="M 1.40625 0.015625 C 1.039062 0.015625 0.859375 -0.0820312 0.859375 -0.28125 L 0.859375 -6.9375 C 0.859375 -7.132812 1.039062 -7.234375 1.40625 -7.234375 L 1.671875 -7.234375 C 2.035156 -7.234375 2.21875 -7.132812 2.21875 -6.9375 L 2.21875 -4.265625 L 5.328125 -4.265625 L 5.328125 -6.9375 C 5.328125 -7.132812 5.507812 -7.234375 5.875 -7.234375 L 6.140625 -7.234375 C 6.503906 -7.234375 6.6875 -7.132812 6.6875 -6.9375 L 6.6875 -0.28125 C 6.6875 -0.0820312 6.503906 0.015625 6.140625 0.015625 L 5.875 0.015625 C 5.507812 0.015625 5.328125 -0.0820312 5.328125 -0.28125 L 5.328125 -3.109375 L 2.21875 -3.109375 L 2.21875 -0.28125 C 2.21875 -0.0820312 2.035156 0.015625 1.671875 0.015625 Z M 1.40625 0.015625 "/></g></g></g><g fill="rgb(0%, 0%, 0%)" fill-opacity="1"><g transform="translate(178.268198, 49.253959)"><g><path d="M 3.671875 0.078125 C 2.734375 0.078125 2.007812 -0.132812 1.5 -0.5625 C 1 -1 0.75 -1.601562 0.75 -2.375 L 0.75 -6.9375 C 0.75 -7.132812 0.929688 -7.234375 1.296875 -7.234375 L 1.546875 -7.234375 C 1.910156 -7.234375 2.09375 -7.132812 2.09375 -6.9375 L 2.09375 -2.4375 C 2.09375 -2.03125 2.238281 -1.703125 2.53125 -1.453125 C 2.832031 -1.203125 3.210938 -1.078125 3.671875 -1.078125 C 4.128906 -1.078125 4.507812 -1.203125 4.8125 -1.453125 C 5.113281 -1.710938 5.265625 -2.039062 5.265625 -2.4375 L 5.265625 -6.9375 C 5.265625 -7.132812 5.445312 -7.234375 5.8125 -7.234375 L 6.046875 -7.234375 C 6.410156 -7.234375 6.59375 -7.132812 6.59375 -6.9375 L 6.59375 -2.375 C 6.59375 -1.601562 6.335938 -1 5.828125 -0.5625 C 5.328125 -0.132812 4.609375 0.078125 3.671875 0.078125 Z M 3.671875 0.078125 "/></g></g></g><g fill="rgb(0%, 0%, 0%)" fill-opacity="1"><g transform="translate(187.661733, 49.253959)"><g><path d="M 1.234375 0 C 1.109375 0 1.015625 -0.03125 0.953125 -0.09375 C 0.890625 -0.15625 0.859375 -0.25 0.859375 -0.375 L 0.859375 -6.84375 C 0.859375 -6.976562 0.890625 -7.070312 0.953125 -7.125 C 1.015625 -7.1875 1.109375 -7.21875 1.234375 -7.21875 L 4.84375 -7.21875 C 4.9375 -7.21875 5.003906 -7.179688 5.046875 -7.109375 C 5.097656 -7.046875 5.125 -6.9375 5.125 -6.78125 L 5.125 -6.5 C 5.125 -6.34375 5.097656 -6.226562 5.046875 -6.15625 C 5.003906 -6.09375 4.9375 -6.0625 4.84375 -6.0625 L 2.203125 -6.0625 L 2.203125 -4.265625 L 4.5625 -4.265625 C 4.65625 -4.265625 4.722656 -4.226562 4.765625 -4.15625 C 4.816406 -4.09375 4.84375 -3.984375 4.84375 -3.828125 L 4.84375 -3.5625 C 4.84375 -3.40625 4.816406 -3.289062 4.765625 -3.21875 C 4.722656 -3.144531 4.65625 -3.109375 4.5625 -3.109375 L 2.203125 -3.109375 L 2.203125 -1.15625 L 4.859375 -1.15625 C 4.953125 -1.15625 5.019531 -1.117188 5.0625 -1.046875 C 5.113281 -0.984375 5.140625 -0.875 5.140625 -0.71875 L 5.140625 -0.4375 C 5.140625 -0.28125 5.113281 -0.164062 5.0625 -0.09375 C 5.019531 -0.03125 4.953125 0 4.859375 0 Z M 1.890625 -7.90625 C 1.742188 -7.90625 1.671875 -7.945312 1.671875 -8.03125 C 1.671875 -8.070312 1.691406 -8.128906 1.734375 -8.203125 L 2.375 -9.203125 C 2.414062 -9.285156 2.484375 -9.335938 2.578125 -9.359375 C 2.671875 -9.390625 2.796875 -9.40625 2.953125 -9.40625 L 3.109375 -9.40625 C 3.253906 -9.40625 3.375 -9.390625 3.46875 -9.359375 C 3.5625 -9.335938 3.632812 -9.285156 3.6875 -9.203125 L 4.3125 -8.203125 C 4.351562 -8.140625 4.375 -8.082031 4.375 -8.03125 C 4.375 -7.945312 4.304688 -7.90625 4.171875 -7.90625 L 4.015625 -7.90625 C 3.734375 -7.90625 3.539062 -7.976562 3.4375 -8.125 L 3.015625 -8.65625 L 2.625 -8.125 C 2.550781 -8.039062 2.46875 -7.984375 2.375 -7.953125 C 2.289062 -7.921875 2.179688 -7.90625 2.046875 -7.90625 Z M 1.890625 -7.90625 "/></g></g></g><g fill="rgb(0%, 0%, 0%)" fill-opacity="1"><g transform="translate(195.344125, 49.253959)"><g/></g></g><g fill="rgb(0%, 0%, 0%)" fill-opacity="1"><g transform="translate(199.872239, 49.253959)"><g><path d="M 1.328125 0.015625 C 0.960938 0.015625 0.78125 -0.0820312 0.78125 -0.28125 L 0.78125 -6.9375 C 0.78125 -7.132812 0.960938 -7.234375 1.328125 -7.234375 L 1.703125 -7.234375 C 1.847656 -7.234375 1.96875 -7.21875 2.0625 -7.1875 C 2.15625 -7.15625 2.234375 -7.085938 2.296875 -6.984375 L 4.921875 -2.953125 C 5.066406 -2.753906 5.191406 -2.550781 5.296875 -2.34375 L 5.328125 -2.34375 C 5.316406 -2.507812 5.3125 -2.742188 5.3125 -3.046875 L 5.3125 -6.9375 C 5.3125 -7.132812 5.492188 -7.234375 5.859375 -7.234375 L 6.078125 -7.234375 C 6.441406 -7.234375 6.625 -7.132812 6.625 -6.9375 L 6.625 -0.28125 C 6.625 -0.0820312 6.441406 0.015625 6.078125 0.015625 L 5.75 0.015625 C 5.601562 0.015625 5.488281 0 5.40625 -0.03125 C 5.320312 -0.0625 5.25 -0.125 5.1875 -0.21875 L 2.484375 -4.328125 C 2.335938 -4.535156 2.21875 -4.734375 2.125 -4.921875 L 2.078125 -4.921875 C 2.097656 -4.765625 2.109375 -4.53125 2.109375 -4.21875 L 2.109375 -0.28125 C 2.109375 -0.0820312 1.925781 0.015625 1.5625 0.015625 Z M 1.328125 0.015625 "/></g></g></g><g fill="rgb(0%, 0%, 0%)" fill-opacity="1"><g transform="translate(209.337929, 49.253959)"><g><path d="M 1.40625 0.015625 C 1.039062 0.015625 0.859375 -0.0820312 0.859375 -0.28125 L 0.859375 -6.9375 C 0.859375 -7.132812 1.039062 -7.234375 1.40625 -7.234375 L 1.671875 -7.234375 C 2.035156 -7.234375 2.21875 -7.132812 2.21875 -6.9375 L 2.21875 -4.265625 L 5.328125 -4.265625 L 5.328125 -6.9375 C 5.328125 -7.132812 5.507812 -7.234375 5.875 -7.234375 L 6.140625 -7.234375 C 6.503906 -7.234375 6.6875 -7.132812 6.6875 -6.9375 L 6.6875 -0.28125 C 6.6875 -0.0820312 6.503906 0.015625 6.140625 0.015625 L 5.875 0.015625 C 5.507812 0.015625 5.328125 -0.0820312 5.328125 -0.28125 L 5.328125 -3.109375 L 2.21875 -3.109375 L 2.21875 -0.28125 C 2.21875 -0.0820312 2.035156 0.015625 1.671875 0.015625 Z M 1.40625 0.015625 "/></g></g></g><g fill="rgb(0%, 0%, 0%)" fill-opacity="1"><g transform="translate(218.947927, 49.253959)"><g><path d="M 0.609375 0.015625 C 0.234375 0.015625 0.046875 -0.0507812 0.046875 -0.1875 C 0.046875 -0.207031 0.0546875 -0.265625 0.078125 -0.359375 L 2.40625 -7.046875 C 2.445312 -7.171875 2.625 -7.234375 2.9375 -7.234375 L 3.390625 -7.234375 C 3.691406 -7.234375 3.867188 -7.171875 3.921875 -7.046875 L 6.25 -0.359375 C 6.269531 -0.296875 6.28125 -0.238281 6.28125 -0.1875 C 6.28125 -0.0507812 6.113281 0.015625 5.78125 0.015625 L 5.46875 0.015625 C 5.164062 0.015625 4.988281 -0.046875 4.9375 -0.171875 L 4.46875 -1.59375 L 1.828125 -1.59375 L 1.34375 -0.171875 C 1.300781 -0.046875 1.148438 0.015625 0.890625 0.015625 Z M 4.078125 -2.75 L 3.328125 -5.015625 C 3.265625 -5.171875 3.210938 -5.382812 3.171875 -5.65625 L 3.140625 -5.65625 C 3.128906 -5.613281 3.109375 -5.519531 3.078125 -5.375 C 3.054688 -5.238281 3.023438 -5.117188 2.984375 -5.015625 L 2.203125 -2.75 Z M 3.28125 -7.953125 C 2.96875 -7.953125 2.738281 -8.035156 2.59375 -8.203125 L 1.984375 -8.875 C 1.828125 -9.039062 1.71875 -9.160156 1.65625 -9.234375 C 1.59375 -9.316406 1.5625 -9.378906 1.5625 -9.421875 C 1.5625 -9.472656 1.609375 -9.507812 1.703125 -9.53125 C 1.796875 -9.550781 1.941406 -9.5625 2.140625 -9.5625 C 2.554688 -9.5625 2.820312 -9.472656 2.9375 -9.296875 C 2.914062 -9.335938 3.023438 -9.148438 3.265625 -8.734375 C 3.285156 -8.691406 3.320312 -8.617188 3.375 -8.515625 C 3.4375 -8.410156 3.484375 -8.320312 3.515625 -8.25 C 3.554688 -8.175781 3.578125 -8.128906 3.578125 -8.109375 C 3.578125 -8.046875 3.554688 -8.003906 3.515625 -7.984375 C 3.472656 -7.960938 3.394531 -7.953125 3.28125 -7.953125 Z M 3.28125 -7.953125 "/></g></g></g><g fill="rgb(0%, 0%, 0%)" fill-opacity="1"><g transform="translate(227.320961, 49.253959)"><g/></g></g><g fill="rgb(0%, 0%, 0%)" fill-opacity="1"><g transform="translate(231.849076, 49.253959)"><g><path d="M 2.609375 0.078125 C 2.148438 0.078125 1.738281 0.03125 1.375 -0.0625 C 1.007812 -0.164062 0.726562 -0.289062 0.53125 -0.4375 C 0.363281 -0.5625 0.28125 -0.675781 0.28125 -0.78125 C 0.28125 -0.914062 0.347656 -1.078125 0.484375 -1.265625 C 0.617188 -1.460938 0.734375 -1.5625 0.828125 -1.5625 C 0.867188 -1.5625 0.953125 -1.523438 1.078125 -1.453125 C 1.296875 -1.347656 1.503906 -1.257812 1.703125 -1.1875 C 1.910156 -1.113281 2.15625 -1.078125 2.4375 -1.078125 C 2.738281 -1.078125 2.992188 -1.148438 3.203125 -1.296875 C 3.421875 -1.453125 3.53125 -1.675781 3.53125 -1.96875 C 3.53125 -2.15625 3.472656 -2.3125 3.359375 -2.4375 C 3.253906 -2.5625 3.125 -2.664062 2.96875 -2.75 C 2.8125 -2.84375 2.59375 -2.945312 2.3125 -3.0625 L 1.953125 -3.21875 C 1.628906 -3.351562 1.359375 -3.5 1.140625 -3.65625 C 0.929688 -3.8125 0.757812 -4.019531 0.625 -4.28125 C 0.488281 -4.539062 0.421875 -4.867188 0.421875 -5.265625 C 0.421875 -5.703125 0.53125 -6.070312 0.75 -6.375 C 0.96875 -6.6875 1.257812 -6.914062 1.625 -7.0625 C 1.988281 -7.21875 2.382812 -7.296875 2.8125 -7.296875 C 3.125 -7.296875 3.421875 -7.257812 3.703125 -7.1875 C 3.992188 -7.113281 4.222656 -7.019531 4.390625 -6.90625 C 4.523438 -6.800781 4.59375 -6.695312 4.59375 -6.59375 C 4.59375 -6.476562 4.535156 -6.320312 4.421875 -6.125 C 4.304688 -5.925781 4.203125 -5.828125 4.109375 -5.828125 C 4.078125 -5.828125 4.023438 -5.84375 3.953125 -5.875 C 3.878906 -5.914062 3.820312 -5.941406 3.78125 -5.953125 C 3.5 -6.078125 3.203125 -6.140625 2.890625 -6.140625 C 2.523438 -6.140625 2.253906 -6.0625 2.078125 -5.90625 C 1.898438 -5.757812 1.8125 -5.578125 1.8125 -5.359375 C 1.8125 -5.148438 1.863281 -4.984375 1.96875 -4.859375 C 2.070312 -4.734375 2.195312 -4.628906 2.34375 -4.546875 C 2.5 -4.472656 2.722656 -4.378906 3.015625 -4.265625 C 3.410156 -4.109375 3.734375 -3.953125 3.984375 -3.796875 C 4.242188 -3.648438 4.460938 -3.4375 4.640625 -3.15625 C 4.828125 -2.882812 4.921875 -2.53125 4.921875 -2.09375 C 4.921875 -1.375 4.695312 -0.832031 4.25 -0.46875 C 3.8125 -0.101562 3.265625 0.078125 2.609375 0.078125 Z M 2.609375 0.078125 "/></g></g></g><g fill="rgb(0%, 0%, 0%)" fill-opacity="1"><g transform="translate(239.057289, 49.253959)"><g><path d="M 4.96875 -8.6875 C 4.863281 -8.6875 4.789062 -8.695312 4.75 -8.71875 C 4.707031 -8.738281 4.6875 -8.773438 4.6875 -8.828125 C 4.6875 -8.859375 4.707031 -8.914062 4.75 -9 C 4.800781 -9.09375 4.867188 -9.210938 4.953125 -9.359375 C 5.035156 -9.492188 5.160156 -9.710938 5.328125 -10.015625 C 5.421875 -10.191406 5.6875 -10.28125 6.125 -10.28125 C 6.320312 -10.28125 6.460938 -10.269531 6.546875 -10.25 C 6.640625 -10.226562 6.6875 -10.191406 6.6875 -10.140625 C 6.6875 -10.097656 6.660156 -10.039062 6.609375 -9.96875 C 6.554688 -9.90625 6.382812 -9.710938 6.09375 -9.390625 L 5.65625 -8.921875 C 5.507812 -8.765625 5.28125 -8.6875 4.96875 -8.6875 Z M 2.65625 -7.734375 C 2.507812 -7.734375 2.4375 -7.773438 2.4375 -7.859375 C 2.4375 -7.898438 2.457031 -7.953125 2.5 -8.015625 L 3.140625 -9.03125 C 3.179688 -9.101562 3.25 -9.15625 3.34375 -9.1875 C 3.4375 -9.21875 3.5625 -9.234375 3.71875 -9.234375 L 3.875 -9.234375 C 4.019531 -9.234375 4.140625 -9.21875 4.234375 -9.1875 C 4.328125 -9.15625 4.394531 -9.101562 4.4375 -9.03125 L 5.078125 -8.015625 C 5.117188 -7.960938 5.140625 -7.910156 5.140625 -7.859375 C 5.140625 -7.773438 5.066406 -7.734375 4.921875 -7.734375 L 4.78125 -7.734375 C 4.5 -7.734375 4.304688 -7.804688 4.203125 -7.953125 L 3.78125 -8.484375 L 3.375 -7.953125 C 3.3125 -7.867188 3.234375 -7.8125 3.140625 -7.78125 C 3.054688 -7.75 2.945312 -7.734375 2.8125 -7.734375 Z M 3.78125 0.078125 C 2.726562 0.078125 1.914062 -0.238281 1.34375 -0.875 C 0.78125 -1.507812 0.5 -2.425781 0.5 -3.625 C 0.5 -4.8125 0.78125 -5.71875 1.34375 -6.34375 C 1.914062 -6.976562 2.726562 -7.296875 3.78125 -7.296875 C 4.832031 -7.296875 5.632812 -6.984375 6.1875 -6.359375 C 6.75 -5.734375 7.03125 -4.820312 7.03125 -3.625 C 7.03125 -2.425781 6.75 -1.507812 6.1875 -0.875 C 5.632812 -0.238281 4.832031 0.078125 3.78125 0.078125 Z M 3.78125 -1.078125 C 4.382812 -1.078125 4.84375 -1.289062 5.15625 -1.71875 C 5.476562 -2.15625 5.640625 -2.789062 5.640625 -3.625 C 5.640625 -4.445312 5.476562 -5.070312 5.15625 -5.5 C 4.84375 -5.925781 4.382812 -6.140625 3.78125 -6.140625 C 3.164062 -6.140625 2.695312 -5.925781 2.375 -5.5 C 2.050781 -5.070312 1.890625 -4.445312 1.890625 -3.625 C 1.890625 -2.789062 2.050781 -2.15625 2.375 -1.71875 C 2.695312 -1.289062 3.164062 -1.078125 3.78125 -1.078125 Z M 3.78125 -1.078125 "/></g></g></g><g fill="rgb(0%, 0%, 0%)" fill-opacity="1"><g transform="translate(248.646667, 49.253959)"><g/></g></g><g fill="rgb(0%, 0%, 0%)" fill-opacity="1"><g transform="translate(253.174781, 49.253959)"><g><path d="M 0.71875 0 C 0.613281 0 0.539062 -0.03125 0.5 -0.09375 C 0.457031 -0.164062 0.4375 -0.28125 0.4375 -0.4375 L 0.4375 -0.59375 C 0.4375 -0.75 0.457031 -0.863281 0.5 -0.9375 C 0.539062 -1.007812 0.613281 -1.046875 0.71875 -1.046875 L 2.234375 -1.046875 L 2.234375 -6 L 0.6875 -5.75 C 0.582031 -5.75 0.503906 -5.832031 0.453125 -6 C 0.410156 -6.164062 0.390625 -6.332031 0.390625 -6.5 C 0.390625 -6.644531 0.46875 -6.734375 0.625 -6.765625 L 3.140625 -7.25 C 3.222656 -7.25 3.304688 -7.222656 3.390625 -7.171875 C 3.484375 -7.128906 3.53125 -7.078125 3.53125 -7.015625 L 3.53125 -1.046875 L 4.78125 -1.046875 C 4.875 -1.046875 4.941406 -1.007812 4.984375 -0.9375 C 5.023438 -0.863281 5.046875 -0.75 5.046875 -0.59375 L 5.046875 -0.4375 C 5.046875 -0.28125 5.023438 -0.164062 4.984375 -0.09375 C 4.941406 -0.03125 4.875 0 4.78125 0 Z M 0.71875 0 "/></g></g></g><g fill="rgb(0%, 0%, 0%)" fill-opacity="1"><g transform="translate(260.743777, 49.253959)"><g/></g></g><g fill="rgb(0%, 0%, 0%)" fill-opacity="1"><g transform="translate(265.271903, 49.253959)"><g><path d="M 2.9375 0.015625 C 2.625 0.015625 2.453125 -0.046875 2.421875 -0.171875 L 0.140625 -6.859375 C 0.117188 -6.929688 0.109375 -6.988281 0.109375 -7.03125 C 0.109375 -7.164062 0.296875 -7.234375 0.671875 -7.234375 L 0.921875 -7.234375 C 1.222656 -7.234375 1.40625 -7.148438 1.46875 -6.984375 L 3.046875 -2.171875 L 3.140625 -1.75 L 3.1875 -1.75 L 3.296875 -2.171875 L 4.90625 -6.984375 C 4.957031 -7.148438 5.132812 -7.234375 5.4375 -7.234375 L 5.671875 -7.234375 C 6.046875 -7.234375 6.234375 -7.164062 6.234375 -7.03125 C 6.234375 -6.988281 6.222656 -6.929688 6.203125 -6.859375 L 3.921875 -0.171875 C 3.890625 -0.046875 3.71875 0.015625 3.40625 0.015625 Z M 2.9375 0.015625 "/></g></g></g><g fill="rgb(0%, 0%, 0%)" fill-opacity="1"><g transform="translate(273.686167, 49.253959)"><g><path d="M 1.328125 0.03125 C 0.960938 0.03125 0.78125 -0.0703125 0.78125 -0.28125 L 0.78125 -6.9375 C 0.78125 -7.144531 0.960938 -7.25 1.328125 -7.25 L 1.59375 -7.25 C 1.957031 -7.25 2.140625 -7.144531 2.140625 -6.9375 L 2.140625 -0.28125 C 2.140625 -0.0703125 1.957031 0.03125 1.59375 0.03125 Z M 1.328125 0.03125 "/></g></g></g><g fill="rgb(0%, 0%, 0%)" fill-opacity="1"><g transform="translate(278.657535, 49.253959)"><g><path d="M 1.234375 0 C 1.109375 0 1.015625 -0.03125 0.953125 -0.09375 C 0.890625 -0.15625 0.859375 -0.25 0.859375 -0.375 L 0.859375 -6.84375 C 0.859375 -6.976562 0.890625 -7.070312 0.953125 -7.125 C 1.015625 -7.1875 1.109375 -7.21875 1.234375 -7.21875 L 4.84375 -7.21875 C 4.9375 -7.21875 5.003906 -7.179688 5.046875 -7.109375 C 5.097656 -7.046875 5.125 -6.9375 5.125 -6.78125 L 5.125 -6.5 C 5.125 -6.34375 5.097656 -6.226562 5.046875 -6.15625 C 5.003906 -6.09375 4.9375 -6.0625 4.84375 -6.0625 L 2.203125 -6.0625 L 2.203125 -4.265625 L 4.5625 -4.265625 C 4.65625 -4.265625 4.722656 -4.226562 4.765625 -4.15625 C 4.816406 -4.09375 4.84375 -3.984375 4.84375 -3.828125 L 4.84375 -3.5625 C 4.84375 -3.40625 4.816406 -3.289062 4.765625 -3.21875 C 4.722656 -3.144531 4.65625 -3.109375 4.5625 -3.109375 L 2.203125 -3.109375 L 2.203125 -1.15625 L 4.859375 -1.15625 C 4.953125 -1.15625 5.019531 -1.117188 5.0625 -1.046875 C 5.113281 -0.984375 5.140625 -0.875 5.140625 -0.71875 L 5.140625 -0.4375 C 5.140625 -0.28125 5.113281 -0.164062 5.0625 -0.09375 C 5.019531 -0.03125 4.953125 0 4.859375 0 Z M 3.015625 2 C 2.648438 2 2.46875 1.898438 2.46875 1.703125 L 2.46875 1.125 C 2.46875 0.925781 2.65625 0.828125 3.03125 0.828125 C 3.394531 0.828125 3.578125 0.925781 3.578125 1.125 L 3.578125 1.703125 C 3.578125 1.898438 3.390625 2 3.015625 2 Z M 1.890625 -7.90625 C 1.742188 -7.90625 1.671875 -7.945312 1.671875 -8.03125 C 1.671875 -8.070312 1.691406 -8.128906 1.734375 -8.203125 L 2.375 -9.203125 C 2.414062 -9.285156 2.484375 -9.335938 2.578125 -9.359375 C 2.671875 -9.390625 2.796875 -9.40625 2.953125 -9.40625 L 3.109375 -9.40625 C 3.253906 -9.40625 3.375 -9.390625 3.46875 -9.359375 C 3.5625 -9.335938 3.632812 -9.285156 3.6875 -9.203125 L 4.3125 -8.203125 C 4.351562 -8.140625 4.375 -8.082031 4.375 -8.03125 C 4.375 -7.945312 4.304688 -7.90625 4.171875 -7.90625 L 4.015625 -7.90625 C 3.734375 -7.90625 3.539062 -7.976562 3.4375 -8.125 L 3.015625 -8.65625 L 2.625 -8.125 C 2.550781 -8.039062 2.46875 -7.984375 2.375 -7.953125 C 2.289062 -7.921875 2.179688 -7.90625 2.046875 -7.90625 Z M 1.890625 -7.90625 "/></g></g></g><g fill="rgb(0%, 0%, 0%)" fill-opacity="1"><g transform="translate(286.339938, 49.253959)"><g><path d="M 2.703125 0.015625 C 2.335938 0.015625 2.15625 -0.0820312 2.15625 -0.28125 L 2.15625 -6.0625 L 0.40625 -6.0625 C 0.3125 -6.0625 0.238281 -6.09375 0.1875 -6.15625 C 0.144531 -6.226562 0.125 -6.34375 0.125 -6.5 L 0.125 -6.78125 C 0.125 -6.9375 0.144531 -7.046875 0.1875 -7.109375 C 0.238281 -7.179688 0.3125 -7.21875 0.40625 -7.21875 L 5.265625 -7.21875 C 5.359375 -7.21875 5.425781 -7.179688 5.46875 -7.109375 C 5.507812 -7.046875 5.53125 -6.9375 5.53125 -6.78125 L 5.53125 -6.5 C 5.53125 -6.34375 5.507812 -6.226562 5.46875 -6.15625 C 5.425781 -6.09375 5.359375 -6.0625 5.265625 -6.0625 L 3.515625 -6.0625 L 3.515625 -0.28125 C 3.515625 -0.0820312 3.332031 0.015625 2.96875 0.015625 Z M 2.703125 0.015625 "/></g></g></g><g fill="rgb(0%, 0%, 0%)" fill-opacity="1"><g transform="translate(294.053266, 49.253959)"><g/></g></g><g fill="rgb(0%, 0%, 0%)" fill-opacity="1"><g transform="translate(298.581392, 49.253959)"><g><path d="M 1.328125 0.015625 C 0.960938 0.015625 0.78125 -0.0820312 0.78125 -0.28125 L 0.78125 -6.9375 C 0.78125 -7.132812 0.960938 -7.234375 1.328125 -7.234375 L 1.703125 -7.234375 C 1.847656 -7.234375 1.96875 -7.21875 2.0625 -7.1875 C 2.15625 -7.15625 2.234375 -7.085938 2.296875 -6.984375 L 4.921875 -2.953125 C 5.066406 -2.753906 5.191406 -2.550781 5.296875 -2.34375 L 5.328125 -2.34375 C 5.316406 -2.507812 5.3125 -2.742188 5.3125 -3.046875 L 5.3125 -6.9375 C 5.3125 -7.132812 5.492188 -7.234375 5.859375 -7.234375 L 6.078125 -7.234375 C 6.441406 -7.234375 6.625 -7.132812 6.625 -6.9375 L 6.625 -0.28125 C 6.625 -0.0820312 6.441406 0.015625 6.078125 0.015625 L 5.75 0.015625 C 5.601562 0.015625 5.488281 0 5.40625 -0.03125 C 5.320312 -0.0625 5.25 -0.125 5.1875 -0.21875 L 2.484375 -4.328125 C 2.335938 -4.535156 2.21875 -4.734375 2.125 -4.921875 L 2.078125 -4.921875 C 2.097656 -4.765625 2.109375 -4.53125 2.109375 -4.21875 L 2.109375 -0.28125 C 2.109375 -0.0820312 1.925781 0.015625 1.5625 0.015625 Z M 1.328125 0.015625 "/></g></g></g><g fill="rgb(0%, 0%, 0%)" fill-opacity="1"><g transform="translate(308.047081, 49.253959)"><g><path d="M 0.609375 0.015625 C 0.234375 0.015625 0.046875 -0.0507812 0.046875 -0.1875 C 0.046875 -0.207031 0.0546875 -0.265625 0.078125 -0.359375 L 2.40625 -7.046875 C 2.445312 -7.171875 2.625 -7.234375 2.9375 -7.234375 L 3.390625 -7.234375 C 3.691406 -7.234375 3.867188 -7.171875 3.921875 -7.046875 L 6.25 -0.359375 C 6.269531 -0.296875 6.28125 -0.238281 6.28125 -0.1875 C 6.28125 -0.0507812 6.113281 0.015625 5.78125 0.015625 L 5.46875 0.015625 C 5.164062 0.015625 4.988281 -0.046875 4.9375 -0.171875 L 4.46875 -1.59375 L 1.828125 -1.59375 L 1.34375 -0.171875 C 1.300781 -0.046875 1.148438 0.015625 0.890625 0.015625 Z M 4.078125 -2.75 L 3.328125 -5.015625 C 3.265625 -5.171875 3.210938 -5.382812 3.171875 -5.65625 L 3.140625 -5.65625 C 3.128906 -5.613281 3.109375 -5.519531 3.078125 -5.375 C 3.054688 -5.238281 3.023438 -5.117188 2.984375 -5.015625 L 2.203125 -2.75 Z M 4.078125 -2.75 "/></g></g></g><g fill="rgb(0%, 0%, 0%)" fill-opacity="1"><g transform="translate(316.420127, 49.253959)"><g><path d="M 4.1875 -1.828125 C 4.03125 -1.828125 3.914062 -1.882812 3.84375 -2 L 2.375 -4.59375 C 2.289062 -4.707031 2.210938 -4.847656 2.140625 -5.015625 L 2.09375 -5 C 2.101562 -4.882812 2.109375 -4.707031 2.109375 -4.46875 L 2.109375 -0.28125 C 2.109375 -0.0820312 1.925781 0.015625 1.5625 0.015625 L 1.328125 0.015625 C 0.960938 0.015625 0.78125 -0.0820312 0.78125 -0.28125 L 0.78125 -6.9375 C 0.78125 -7.132812 0.960938 -7.234375 1.328125 -7.234375 L 1.8125 -7.234375 C 2.113281 -7.234375 2.304688 -7.148438 2.390625 -6.984375 L 4.1875 -3.828125 C 4.257812 -3.710938 4.316406 -3.597656 4.359375 -3.484375 C 4.378906 -3.578125 4.429688 -3.695312 4.515625 -3.84375 L 6.328125 -6.984375 C 6.410156 -7.148438 6.597656 -7.234375 6.890625 -7.234375 L 7.359375 -7.234375 C 7.722656 -7.234375 7.90625 -7.132812 7.90625 -6.9375 L 7.90625 -0.28125 C 7.90625 -0.0820312 7.722656 0.015625 7.359375 0.015625 L 7.140625 0.015625 C 6.773438 0.015625 6.59375 -0.0820312 6.59375 -0.28125 L 6.59375 -4.453125 C 6.59375 -4.691406 6.59375 -4.867188 6.59375 -4.984375 L 6.5625 -4.984375 C 6.488281 -4.828125 6.410156 -4.6875 6.328125 -4.5625 L 4.875 -2 C 4.789062 -1.882812 4.671875 -1.828125 4.515625 -1.828125 Z M 4.1875 -1.828125 "/></g></g></g><g clip-path="url(#id3)"><path fill="rgb(85.099792%, 13.328552%, 15.289307%)" d="M 3.304688 51.269531 L 4.695312 51.269531 C 5.417969 51.269531 6.003906 50.683594 6.003906 49.960938 L 6.003906 18.070312 C 6.003906 17.347656 5.417969 16.761719 4.695312 16.761719 L 3.304688 16.761719 C 2.582031 16.761719 1.996094 17.347656 1.996094 18.070312 L 1.996094 49.960938 C 1.996094 50.683594 2.582031 51.269531 3.304688 51.269531 Z M 3.304688 51.269531 " fill-opacity="1" fill-rule="nonzero"/></g><path fill="rgb(85.099792%, 13.328552%, 15.289307%)" d="M 2.320312 19.140625 C 2.875 20.238281 4.101562 20.613281 5.058594 19.980469 L 28.308594 4.636719 C 29.269531 4.003906 29.597656 2.601562 29.042969 1.507812 C 28.488281 0.410156 27.261719 0.0351562 26.304688 0.667969 L 3.054688 16.011719 C 2.09375 16.644531 1.765625 18.042969 2.320312 19.140625 Z M 2.320312 19.140625 " fill-opacity="1" fill-rule="nonzero"/><path fill="rgb(85.099792%, 13.328552%, 15.289307%)" d="M 52.472656 19.121094 C 51.917969 20.214844 50.695312 20.59375 49.734375 19.960938 L 26.484375 4.617188 C 25.523438 3.984375 25.195312 2.582031 25.75 1.488281 C 26.300781 0.390625 27.527344 0.015625 28.488281 0.648438 L 51.738281 15.992188 C 52.695312 16.621094 53.027344 18.023438 52.472656 19.121094 Z M 52.472656 19.121094 " fill-opacity="1" fill-rule="nonzero"/><g clip-path="url(#id4)"><path fill="rgb(85.099792%, 13.328552%, 15.289307%)" d="M 50.070312 51.269531 L 51.464844 51.269531 C 52.1875 51.269531 52.769531 50.683594 52.769531 49.960938 L 52.769531 18.019531 C 52.769531 17.296875 52.183594 16.710938 51.464844 16.710938 L 50.070312 16.710938 C 49.347656 16.710938 48.765625 17.296875 48.765625 18.019531 L 48.765625 49.960938 C 48.765625 50.683594 49.347656 51.269531 50.070312 51.269531 Z M 50.070312 51.269531 " fill-opacity="1" fill-rule="nonzero"/></g><g clip-path="url(#id5)"><path fill="rgb(85.099792%, 13.328552%, 15.289307%)" d="M 2.0625 48.152344 L 2.0625 49.761719 C 2.0625 50.585938 2.730469 51.25 3.550781 51.25 L 51.285156 51.25 C 52.109375 51.25 52.773438 50.585938 52.773438 49.761719 L 52.773438 48.152344 C 52.773438 47.332031 52.109375 46.667969 51.285156 46.667969 L 3.550781 46.667969 C 2.730469 46.667969 2.0625 47.332031 2.0625 48.152344 Z M 2.0625 48.152344 " fill-opacity="1" fill-rule="nonzero"/></g><path fill="rgb(85.099792%, 13.328552%, 15.289307%)" d="M 32.160156 31.792969 C 32.160156 32.105469 32.128906 32.417969 32.066406 32.722656 C 32.007812 33.03125 31.914062 33.328125 31.796875 33.621094 C 31.675781 33.910156 31.527344 34.183594 31.355469 34.445312 C 31.179688 34.707031 30.980469 34.945312 30.761719 35.167969 C 30.539062 35.390625 30.296875 35.589844 30.039062 35.761719 C 29.777344 35.9375 29.5 36.082031 29.210938 36.203125 C 28.921875 36.324219 28.625 36.414062 28.316406 36.476562 C 28.007812 36.535156 27.699219 36.566406 27.382812 36.566406 C 27.070312 36.566406 26.761719 36.535156 26.453125 36.476562 C 26.144531 36.414062 25.847656 36.324219 25.558594 36.203125 C 25.269531 36.082031 24.992188 35.9375 24.730469 35.761719 C 24.472656 35.589844 24.230469 35.390625 24.007812 35.167969 C 23.785156 34.945312 23.589844 34.707031 23.414062 34.445312 C 23.242188 34.183594 23.09375 33.910156 22.972656 33.621094 C 22.855469 33.328125 22.761719 33.03125 22.703125 32.722656 C 22.640625 32.417969 22.609375 32.105469 22.609375 31.792969 C 22.609375 31.480469 22.640625 31.167969 22.703125 30.859375 C 22.761719 30.554688 22.855469 30.253906 22.972656 29.964844 C 23.09375 29.675781 23.242188 29.398438 23.414062 29.140625 C 23.589844 28.878906 23.785156 28.636719 24.007812 28.417969 C 24.230469 28.195312 24.472656 27.996094 24.730469 27.824219 C 24.992188 27.648438 25.269531 27.5 25.558594 27.382812 C 25.847656 27.261719 26.144531 27.171875 26.453125 27.109375 C 26.761719 27.046875 27.070312 27.019531 27.382812 27.019531 C 27.699219 27.019531 28.007812 27.046875 28.316406 27.109375 C 28.625 27.171875 28.921875 27.261719 29.210938 27.382812 C 29.5 27.5 29.777344 27.648438 30.039062 27.824219 C 30.296875 27.996094 30.539062 28.195312 30.761719 28.417969 C 30.980469 28.636719 31.179688 28.878906 31.355469 29.140625 C 31.527344 29.398438 31.675781 29.675781 31.796875 29.964844 C 31.914062 30.253906 32.007812 30.554688 32.066406 30.859375 C 32.128906 31.167969 32.160156 31.480469 32.160156 31.792969 Z M 32.160156 31.792969 " fill-opacity="1" fill-rule="nonzero"/><path fill="rgb(85.099792%, 13.328552%, 15.289307%)" d="M 31.703125 48.996094 C 28.722656 48.996094 25.742188 48.996094 22.761719 48.996094 C 23.722656 44.449219 24.683594 39.902344 25.640625 35.355469 L 29.128906 35.355469 C 29.988281 39.902344 30.84375 44.449219 31.703125 48.996094 Z M 31.703125 48.996094 " fill-opacity="1" fill-rule="nonzero"/></svg>