<svg xmlns="http://www.w3.org/2000/svg" xmlns:xlink="http://www.w3.org/1999/xlink" width="200" zoomAndPan="magnify" viewBox="0 0 150 30.000001" height="40" preserveAspectRatio="xMidYMid meet" version="1.0"><defs><g><g id="id1"/></g><clipPath id="id2"><path d="M 2.417969 0.234375 L 27.097656 0.234375 L 27.097656 28.539062 L 2.417969 28.539062 Z M 2.417969 0.234375 " clip-rule="nonzero"/></clipPath><clipPath id="id3"><path d="M 6.550781 5.5 L 22.515625 5.5 L 22.515625 21.464844 L 6.550781 21.464844 Z M 6.550781 5.5 " clip-rule="nonzero"/></clipPath></defs><g clip-path="url(#id2)"><path fill="rgb(89.408875%, 0%, 16.859436%)" d="M 27.070312 8.953125 L 27.070312 19.824219 C 27.070312 20.347656 26.9375 20.839844 26.679688 21.292969 C 26.417969 21.746094 26.0625 22.105469 25.613281 22.371094 L 16.230469 27.804688 C 15.777344 28.066406 15.289062 28.199219 14.761719 28.199219 C 14.238281 28.199219 13.75 28.066406 13.292969 27.804688 L 3.917969 22.371094 C 3.464844 22.109375 3.105469 21.75 2.84375 21.296875 C 2.578125 20.839844 2.449219 20.351562 2.445312 19.824219 L 2.445312 8.953125 C 2.445312 8.425781 2.578125 7.933594 2.84375 7.480469 C 3.105469 7.023438 3.464844 6.667969 3.917969 6.40625 L 13.296875 0.96875 C 13.753906 0.707031 14.242188 0.574219 14.765625 0.574219 C 15.289062 0.574219 15.78125 0.707031 16.234375 0.96875 L 25.617188 6.40625 C 26.066406 6.671875 26.421875 7.03125 26.679688 7.484375 C 26.941406 7.941406 27.070312 8.429688 27.070312 8.953125 Z M 27.070312 8.953125 " fill-opacity="1" fill-rule="nonzero"/></g><g clip-path="url(#id3)"><path fill="rgb(100%, 100%, 100%)" d="M 21.738281 10.117188 L 15.503906 5.960938 C 15.210938 5.761719 14.886719 5.664062 14.53125 5.664062 C 14.179688 5.664062 13.855469 5.761719 13.5625 5.960938 L 7.328125 10.117188 C 7.082031 10.277344 6.890625 10.488281 6.753906 10.75 C 6.613281 11.007812 6.546875 11.285156 6.550781 11.578125 L 6.550781 19.808594 C 6.550781 20.703125 7.402344 21.40625 8.488281 21.40625 L 20.578125 21.40625 C 21.664062 21.40625 22.515625 20.703125 22.515625 19.808594 L 22.515625 11.578125 C 22.519531 11.285156 22.453125 11.007812 22.3125 10.75 C 22.175781 10.488281 21.984375 10.277344 21.738281 10.117188 Z M 15.761719 20.175781 L 13.304688 20.175781 L 13.304688 16.375 C 13.304688 16.238281 13.351562 16.121094 13.449219 16.023438 C 13.546875 15.925781 13.664062 15.878906 13.800781 15.878906 L 15.265625 15.878906 C 15.402344 15.878906 15.519531 15.925781 15.617188 16.023438 C 15.710938 16.121094 15.761719 16.238281 15.761719 16.375 Z M 21.289062 19.808594 C 21.289062 19.957031 21.007812 20.175781 20.578125 20.175781 L 16.988281 20.175781 L 16.988281 16.375 C 16.988281 16.144531 16.945312 15.925781 16.859375 15.714844 C 16.769531 15.503906 16.644531 15.316406 16.484375 15.15625 C 16.324219 14.992188 16.136719 14.867188 15.925781 14.78125 C 15.714844 14.691406 15.492188 14.648438 15.265625 14.648438 L 13.800781 14.648438 C 13.574219 14.648438 13.351562 14.691406 13.140625 14.78125 C 12.929688 14.867188 12.742188 14.992188 12.582031 15.15625 C 12.421875 15.316406 12.296875 15.503906 12.207031 15.714844 C 12.121094 15.925781 12.078125 16.144531 12.078125 16.375 L 12.078125 20.175781 L 8.488281 20.175781 C 8.058594 20.175781 7.777344 19.957031 7.777344 19.808594 L 7.777344 11.578125 C 7.773438 11.390625 7.851562 11.25 8.011719 11.148438 L 14.246094 6.980469 C 14.4375 6.851562 14.628906 6.851562 14.820312 6.980469 L 21.0625 11.144531 C 21.21875 11.246094 21.292969 11.390625 21.289062 11.578125 Z M 21.289062 19.808594 " fill-opacity="1" fill-rule="nonzero"/></g><g fill="rgb(23.139954%, 25.489807%, 26.669312%)" fill-opacity="1"><g transform="translate(34.137888, 16.283717)"><g><path d="M 7.703125 -10.144531 C 6.566406 -10.144531 5.625 -9.652344 5.042969 -9.003906 L 5.042969 -13.734375 L 1.257812 -13.734375 L 1.257812 0 L 4.230469 0 L 4.667969 -1.40625 C 5.113281 -0.632812 6.347656 0.191406 7.703125 0.191406 C 10.621094 0.191406 12.585938 -1.679688 12.585938 -4.972656 C 12.585938 -8.261719 10.621094 -10.144531 7.703125 -10.144531 Z M 6.707031 -2.605469 C 5.496094 -2.605469 4.664062 -3.460938 4.664062 -4.972656 C 4.664062 -6.480469 5.496094 -7.351562 6.707031 -7.351562 C 8.136719 -7.351562 8.851562 -6.480469 8.851562 -4.972656 C 8.851562 -3.460938 8.136719 -2.605469 6.707031 -2.605469 Z M 6.707031 -2.605469 "/></g></g></g><g fill="rgb(23.139954%, 25.489807%, 26.669312%)" fill-opacity="1"><g transform="translate(47.232705, 16.283717)"><g><path d="M 8.054688 -13.734375 L 8.054688 -9.003906 C 7.476562 -9.652344 6.53125 -10.144531 5.398438 -10.144531 C 2.476562 -10.144531 0.515625 -8.261719 0.515625 -4.972656 C 0.515625 -1.679688 2.476562 0.191406 5.398438 0.191406 C 6.753906 0.191406 7.988281 -0.632812 8.429688 -1.40625 L 8.867188 0 L 11.84375 0 L 11.84375 -13.734375 Z M 6.390625 -2.605469 C 4.964844 -2.605469 4.25 -3.460938 4.25 -4.972656 C 4.25 -6.480469 4.964844 -7.351562 6.390625 -7.351562 C 7.601562 -7.351562 8.433594 -6.480469 8.433594 -4.972656 C 8.433594 -3.460938 7.601562 -2.605469 6.390625 -2.605469 Z M 6.390625 -2.605469 "/></g></g></g><g fill="rgb(23.139954%, 25.489807%, 26.669312%)" fill-opacity="1"><g transform="translate(60.327522, 16.283717)"><g><path d="M 6.09375 0.179688 C 8.660156 0.179688 10.859375 -0.804688 10.859375 -3.046875 C 10.859375 -5.796875 8.570312 -6.183594 6.726562 -6.363281 C 5.46875 -6.480469 4.140625 -6.445312 4.140625 -7.222656 C 4.140625 -7.722656 4.574219 -7.984375 5.480469 -7.984375 C 6.347656 -7.984375 6.835938 -7.523438 6.84375 -7.023438 L 10.640625 -7.023438 C 10.171875 -9.554688 7.730469 -10.125 5.605469 -10.125 C 2.820312 -10.125 0.777344 -9.132812 0.777344 -7.023438 C 0.777344 -4.25 3.226562 -4.015625 5.0625 -3.84375 C 6.417969 -3.734375 7.277344 -3.652344 7.277344 -2.894531 C 7.277344 -2.351562 6.871094 -2.132812 5.984375 -2.132812 C 4.945312 -2.132812 4.292969 -2.46875 4.292969 -3.355469 L 0.433594 -3.355469 C 0.777344 -0.261719 4.105469 0.179688 6.09375 0.179688 Z M 6.09375 0.179688 "/></g></g></g><g fill="rgb(89.408875%, 0%, 16.859436%)" fill-opacity="1"><g transform="translate(71.698372, 16.283717)"><g><path d="M 6.246094 -13.734375 C 5.117188 -11.707031 3.6875 -11.273438 2.261719 -11.019531 L 2.261719 -9.375 L 5.46875 -9.375 L 5.46875 0 L 9.203125 0 L 9.203125 -13.734375 Z M 6.246094 -13.734375 "/></g></g></g><g fill="rgb(89.408875%, 0%, 16.859436%)" fill-opacity="1"><g transform="translate(84.621483, 16.283717)"><g><path d="M 5.320312 -3 L 7.867188 -4.917969 C 11.148438 -7.394531 11.714844 -8.570312 11.714844 -9.945312 C 11.714844 -12.496094 9.457031 -13.941406 6.347656 -13.941406 C 3.046875 -13.941406 0.957031 -12.296875 0.957031 -9.429688 L 0.957031 -8.832031 L 4.683594 -8.832031 L 4.683594 -9.511719 C 4.683594 -10.847656 5.378906 -11.265625 6.382812 -11.265625 C 7.550781 -11.265625 8.011719 -10.730469 8.011719 -10.007812 C 8.011719 -9.410156 7.667969 -8.707031 6.980469 -8.074219 L 1.003906 -2.566406 L 1.003906 0 L 11.941406 0 L 11.941406 -3 Z M 5.320312 -3 "/></g></g></g><g fill="rgb(89.408875%, 0%, 16.859436%)" fill-opacity="1"><g transform="translate(97.544595, 16.283717)"><g><path d="M 6.453125 0.191406 C 10.160156 0.191406 12.3125 -1.511719 12.3125 -4.148438 C 12.3125 -6.238281 10.929688 -7.132812 9.855469 -7.40625 C 10.503906 -7.695312 11.617188 -8.625 11.617188 -10.152344 C 11.617188 -12.257812 9.539062 -13.921875 6.320312 -13.921875 C 2.972656 -13.921875 0.902344 -12.375 0.902344 -9.355469 L 4.691406 -9.355469 C 4.691406 -9.980469 4.78125 -11.21875 6.375 -11.21875 C 7.476562 -11.21875 8.144531 -10.894531 8.144531 -9.855469 C 8.144531 -9.003906 7.621094 -8.300781 6.238281 -8.300781 L 5.207031 -8.300781 L 5.207031 -6.039062 L 6.664062 -6.039062 C 7.890625 -6.039062 8.507812 -5.414062 8.507812 -4.304688 C 8.507812 -3.265625 8.027344 -2.558594 6.636719 -2.558594 C 5.027344 -2.558594 4.464844 -3.5625 4.464844 -5.027344 L 0.613281 -5.027344 C 0.613281 -1.492188 2.214844 0.191406 6.453125 0.191406 Z M 6.453125 0.191406 "/></g></g></g><g fill="rgb(23.139954%, 25.489807%, 26.669312%)" fill-opacity="1"><g transform="translate(110.460972, 16.283717)"><g><path d="M 1.746094 0 L 5.371094 0 L 5.371094 -3.625 L 1.746094 -3.625 Z M 1.746094 0 "/></g></g></g><g fill="rgb(23.139954%, 25.489807%, 26.669312%)" fill-opacity="1"><g transform="translate(117.573202, 16.283717)"><g><path d="M 8.136719 -9.890625 L 5.960938 -2.394531 L 3.851562 -9.890625 L -0.0625 -9.890625 L 3.632812 0 L 8.316406 0 L 12.078125 -9.890625 Z M 8.136719 -9.890625 "/></g></g></g><g fill="rgb(23.139954%, 25.489807%, 26.669312%)" fill-opacity="1"><g transform="translate(129.574525, 16.283717)"><g><path d="M 8.390625 -10.082031 C 6.636719 -10.082031 5.460938 -9.398438 4.859375 -8 L 4.464844 -9.890625 L 1.246094 -9.890625 L 1.246094 0 L 5.007812 0 L 5.007812 -5.164062 C 5.027344 -6.960938 6.113281 -7.386719 7.179688 -7.386719 C 8.046875 -7.386719 8.789062 -7.015625 8.789062 -5.75 L 8.789062 0 L 12.546875 0 L 12.546875 -6.652344 C 12.546875 -8.816406 11.164062 -10.082031 8.390625 -10.082031 Z M 8.390625 -10.082031 "/></g></g></g><g fill="rgb(0%, 0%, 0%)" fill-opacity="1"><g transform="translate(34.137888, 26.732492)"><g><path d="M 2.734375 -4.765625 L 2.734375 0 L 2.015625 0 L 2.015625 -4.765625 L 0.171875 -4.765625 L 0.171875 -5.359375 L 4.578125 -5.359375 L 4.578125 -4.765625 Z M 2.734375 -4.765625 "/></g></g><g transform="translate(38.888592, 26.732492)"><g><path d="M 0.734375 0 L 0.734375 -4.109375 L 1.421875 -4.109375 L 1.421875 0 Z M 1.65625 -4.5625 L 0.40625 -5.625 L 0.40625 -5.734375 L 1.1875 -5.734375 L 2.015625 -4.640625 L 2.015625 -4.5625 Z M 1.65625 -4.5625 "/></g></g><g transform="translate(41.049384, 26.732492)"><g><path d="M 2.921875 0 L 2.921875 -2.609375 C 2.921875 -3.003906 2.863281 -3.273438 2.75 -3.421875 C 2.644531 -3.578125 2.453125 -3.65625 2.171875 -3.65625 C 1.878906 -3.65625 1.644531 -3.539062 1.46875 -3.3125 C 1.300781 -3.09375 1.21875 -2.78125 1.21875 -2.375 L 1.21875 0 L 0.546875 0 L 0.546875 -3.234375 C 0.546875 -3.710938 0.535156 -4.003906 0.515625 -4.109375 L 1.15625 -4.109375 C 1.164062 -4.097656 1.171875 -4.0625 1.171875 -4 C 1.171875 -3.945312 1.171875 -3.882812 1.171875 -3.8125 C 1.179688 -3.738281 1.1875 -3.601562 1.1875 -3.40625 L 1.203125 -3.40625 C 1.347656 -3.695312 1.515625 -3.898438 1.703125 -4.015625 C 1.898438 -4.128906 2.132812 -4.1875 2.40625 -4.1875 C 2.71875 -4.1875 2.960938 -4.125 3.140625 -4 C 3.328125 -3.875 3.453125 -3.675781 3.515625 -3.40625 L 3.53125 -3.40625 C 3.675781 -3.6875 3.847656 -3.882812 4.046875 -4 C 4.242188 -4.125 4.488281 -4.1875 4.78125 -4.1875 C 5.195312 -4.1875 5.5 -4.070312 5.6875 -3.84375 C 5.875 -3.625 5.96875 -3.253906 5.96875 -2.734375 L 5.96875 0 L 5.296875 0 L 5.296875 -2.609375 C 5.296875 -3.003906 5.238281 -3.273438 5.125 -3.421875 C 5.019531 -3.578125 4.828125 -3.65625 4.546875 -3.65625 C 4.242188 -3.65625 4.007812 -3.546875 3.84375 -3.328125 C 3.675781 -3.109375 3.59375 -2.789062 3.59375 -2.375 L 3.59375 0 Z M 2.921875 0 "/></g></g><g transform="translate(47.527962, 26.732492)"><g/></g><g transform="translate(49.688754, 26.732492)"><g><path d="M 3.09375 0 L 1.703125 -1.875 L 1.203125 -1.46875 L 1.203125 0 L 0.53125 0 L 0.53125 -5.640625 L 1.203125 -5.640625 L 1.203125 -2.109375 L 3.015625 -4.109375 L 3.8125 -4.109375 L 2.140625 -2.34375 L 3.90625 0 Z M 3.09375 0 "/></g></g><g transform="translate(53.577419, 26.732492)"><g><path d="M 0.515625 -4.984375 L 0.515625 -5.640625 L 1.203125 -5.640625 L 1.203125 -4.984375 Z M 0.515625 0 L 0.515625 -4.109375 L 1.203125 -4.109375 L 1.203125 0 Z M 0.515625 0 "/></g></g><g transform="translate(55.305293, 26.732492)"><g><path d="M 1.046875 -1.90625 C 1.046875 -1.4375 1.144531 -1.070312 1.34375 -0.8125 C 1.539062 -0.5625 1.828125 -0.4375 2.203125 -0.4375 C 2.492188 -0.4375 2.726562 -0.492188 2.90625 -0.609375 C 3.082031 -0.734375 3.203125 -0.882812 3.265625 -1.0625 L 3.875 -0.890625 C 3.625 -0.242188 3.066406 0.078125 2.203125 0.078125 C 1.585938 0.078125 1.117188 -0.101562 0.796875 -0.46875 C 0.484375 -0.832031 0.328125 -1.367188 0.328125 -2.078125 C 0.328125 -2.753906 0.484375 -3.273438 0.796875 -3.640625 C 1.117188 -4.003906 1.578125 -4.1875 2.171875 -4.1875 C 3.378906 -4.1875 3.984375 -3.457031 3.984375 -2 L 3.984375 -1.90625 Z M 3.28125 -2.4375 C 3.238281 -2.863281 3.125 -3.175781 2.9375 -3.375 C 2.757812 -3.582031 2.5 -3.6875 2.15625 -3.6875 C 1.820312 -3.6875 1.554688 -3.570312 1.359375 -3.34375 C 1.171875 -3.125 1.070312 -2.820312 1.0625 -2.4375 Z M 3.1875 -5.984375 L 4.015625 -5.984375 L 4.015625 -5.9375 L 3.15625 -5.265625 L 2.78125 -5.265625 L 2.78125 -5.296875 Z M 3.234375 -4.640625 L 3.234375 -4.5625 L 2.828125 -4.5625 L 2 -5.203125 L 1.984375 -5.203125 L 1.140625 -4.5625 L 0.75 -4.5625 L 0.75 -4.640625 L 1.59375 -5.671875 L 2.375 -5.671875 Z M 3.234375 -4.640625 "/></g></g><g transform="translate(59.630675, 26.732492)"><g><path d="M 2.921875 0 L 2.921875 -2.609375 C 2.921875 -3.003906 2.863281 -3.273438 2.75 -3.421875 C 2.644531 -3.578125 2.453125 -3.65625 2.171875 -3.65625 C 1.878906 -3.65625 1.644531 -3.539062 1.46875 -3.3125 C 1.300781 -3.09375 1.21875 -2.78125 1.21875 -2.375 L 1.21875 0 L 0.546875 0 L 0.546875 -3.234375 C 0.546875 -3.710938 0.535156 -4.003906 0.515625 -4.109375 L 1.15625 -4.109375 C 1.164062 -4.097656 1.171875 -4.0625 1.171875 -4 C 1.171875 -3.945312 1.171875 -3.882812 1.171875 -3.8125 C 1.179688 -3.738281 1.1875 -3.601562 1.1875 -3.40625 L 1.203125 -3.40625 C 1.347656 -3.695312 1.515625 -3.898438 1.703125 -4.015625 C 1.898438 -4.128906 2.132812 -4.1875 2.40625 -4.1875 C 2.71875 -4.1875 2.960938 -4.125 3.140625 -4 C 3.328125 -3.875 3.453125 -3.675781 3.515625 -3.40625 L 3.53125 -3.40625 C 3.675781 -3.6875 3.847656 -3.882812 4.046875 -4 C 4.242188 -4.125 4.488281 -4.1875 4.78125 -4.1875 C 5.195312 -4.1875 5.5 -4.070312 5.6875 -3.84375 C 5.875 -3.625 5.96875 -3.253906 5.96875 -2.734375 L 5.96875 0 L 5.296875 0 L 5.296875 -2.609375 C 5.296875 -3.003906 5.238281 -3.273438 5.125 -3.421875 C 5.019531 -3.578125 4.828125 -3.65625 4.546875 -3.65625 C 4.242188 -3.65625 4.007812 -3.546875 3.84375 -3.328125 C 3.675781 -3.109375 3.59375 -2.789062 3.59375 -2.375 L 3.59375 0 Z M 2.921875 0 "/></g></g><g transform="translate(66.109253, 26.732492)"><g/></g><g transform="translate(68.270044, 26.732492)"><g><path d="M 4 -2.078125 C 4 -0.640625 3.492188 0.078125 2.484375 0.078125 C 2.171875 0.078125 1.910156 0.0195312 1.703125 -0.09375 C 1.503906 -0.207031 1.335938 -0.390625 1.203125 -0.640625 C 1.203125 -0.554688 1.195312 -0.429688 1.1875 -0.265625 C 1.175781 -0.109375 1.164062 -0.0195312 1.15625 0 L 0.5 0 C 0.519531 -0.132812 0.53125 -0.414062 0.53125 -0.84375 L 0.53125 -5.640625 L 1.203125 -5.640625 L 1.203125 -4.03125 C 1.203125 -3.863281 1.195312 -3.671875 1.1875 -3.453125 L 1.203125 -3.453125 C 1.328125 -3.710938 1.492188 -3.898438 1.703125 -4.015625 C 1.921875 -4.128906 2.179688 -4.1875 2.484375 -4.1875 C 3.003906 -4.1875 3.382812 -4.007812 3.625 -3.65625 C 3.875 -3.3125 4 -2.785156 4 -2.078125 Z M 3.28125 -2.046875 C 3.28125 -2.628906 3.203125 -3.039062 3.046875 -3.28125 C 2.898438 -3.53125 2.65625 -3.65625 2.3125 -3.65625 C 1.925781 -3.65625 1.644531 -3.523438 1.46875 -3.265625 C 1.289062 -3.003906 1.203125 -2.585938 1.203125 -2.015625 C 1.203125 -1.472656 1.285156 -1.070312 1.453125 -0.8125 C 1.628906 -0.550781 1.914062 -0.421875 2.3125 -0.421875 C 2.65625 -0.421875 2.898438 -0.546875 3.046875 -0.796875 C 3.203125 -1.054688 3.28125 -1.472656 3.28125 -2.046875 Z M 3.28125 -2.046875 "/></g></g><g transform="translate(72.595426, 26.732492)"><g><path d="M 1.578125 0.078125 C 1.160156 0.078125 0.847656 -0.03125 0.640625 -0.25 C 0.429688 -0.46875 0.328125 -0.765625 0.328125 -1.140625 C 0.328125 -1.566406 0.46875 -1.894531 0.75 -2.125 C 1.03125 -2.351562 1.484375 -2.476562 2.109375 -2.5 L 3.03125 -2.5 L 3.03125 -2.734375 C 3.03125 -3.066406 2.957031 -3.304688 2.8125 -3.453125 C 2.675781 -3.597656 2.453125 -3.671875 2.140625 -3.671875 C 1.835938 -3.671875 1.613281 -3.617188 1.46875 -3.515625 C 1.332031 -3.410156 1.253906 -3.242188 1.234375 -3.015625 L 0.515625 -3.078125 C 0.628906 -3.816406 1.175781 -4.1875 2.15625 -4.1875 C 2.675781 -4.1875 3.066406 -4.066406 3.328125 -3.828125 C 3.585938 -3.585938 3.71875 -3.242188 3.71875 -2.796875 L 3.71875 -1.03125 C 3.71875 -0.832031 3.742188 -0.679688 3.796875 -0.578125 C 3.847656 -0.472656 3.953125 -0.421875 4.109375 -0.421875 C 4.171875 -0.421875 4.242188 -0.429688 4.328125 -0.453125 L 4.328125 -0.015625 C 4.148438 0.015625 3.972656 0.03125 3.796875 0.03125 C 3.546875 0.03125 3.363281 -0.03125 3.25 -0.15625 C 3.132812 -0.289062 3.066406 -0.5 3.046875 -0.78125 L 3.03125 -0.78125 C 2.851562 -0.46875 2.648438 -0.242188 2.421875 -0.109375 C 2.191406 0.015625 1.910156 0.078125 1.578125 0.078125 Z M 1.734375 -0.4375 C 1.984375 -0.4375 2.203125 -0.492188 2.390625 -0.609375 C 2.585938 -0.722656 2.742188 -0.878906 2.859375 -1.078125 C 2.972656 -1.273438 3.03125 -1.476562 3.03125 -1.6875 L 3.03125 -2.03125 L 2.28125 -2.015625 C 1.957031 -2.003906 1.710938 -1.96875 1.546875 -1.90625 C 1.378906 -1.851562 1.25 -1.757812 1.15625 -1.625 C 1.070312 -1.5 1.03125 -1.335938 1.03125 -1.140625 C 1.03125 -0.910156 1.085938 -0.734375 1.203125 -0.609375 C 1.328125 -0.492188 1.503906 -0.4375 1.734375 -0.4375 Z M 3.1875 -5.984375 L 4.015625 -5.984375 L 4.015625 -5.9375 L 3.15625 -5.265625 L 2.78125 -5.265625 L 2.78125 -5.296875 Z M 3.234375 -4.640625 L 3.234375 -4.5625 L 2.828125 -4.5625 L 2 -5.203125 L 1.984375 -5.203125 L 1.140625 -4.5625 L 0.75 -4.5625 L 0.75 -4.640625 L 1.59375 -5.671875 L 2.375 -5.671875 Z M 3.234375 -4.640625 "/></g></g><g transform="translate(76.920807, 26.732492)"><g><path d="M 2.109375 -0.03125 C 1.878906 0.03125 1.644531 0.0625 1.40625 0.0625 C 0.863281 0.0625 0.59375 -0.25 0.59375 -0.875 L 0.59375 -3.609375 L 0.125 -3.609375 L 0.125 -4.109375 L 0.625 -4.109375 L 0.828125 -5.03125 L 1.28125 -5.03125 L 1.28125 -4.109375 L 2.03125 -4.109375 L 2.03125 -3.609375 L 1.28125 -3.609375 L 1.28125 -1.015625 C 1.28125 -0.816406 1.3125 -0.675781 1.375 -0.59375 C 1.4375 -0.519531 1.546875 -0.484375 1.703125 -0.484375 C 1.796875 -0.484375 1.929688 -0.5 2.109375 -0.53125 Z M 2.109375 -0.03125 "/></g></g><g transform="translate(79.081599, 26.732492)"><g/></g><g transform="translate(81.24239, 26.732492)"><g><path d="M 3.125 -0.65625 C 2.988281 -0.394531 2.816406 -0.207031 2.609375 -0.09375 C 2.398438 0.0195312 2.144531 0.078125 1.84375 0.078125 C 1.320312 0.078125 0.9375 -0.09375 0.6875 -0.4375 C 0.445312 -0.789062 0.328125 -1.320312 0.328125 -2.03125 C 0.328125 -3.46875 0.832031 -4.1875 1.84375 -4.1875 C 2.15625 -4.1875 2.410156 -4.128906 2.609375 -4.015625 C 2.816406 -3.898438 2.988281 -3.71875 3.125 -3.46875 L 3.125 -4.578125 L 1.984375 -4.578125 L 1.984375 -5.078125 L 3.125 -5.078125 L 3.125 -5.640625 L 3.796875 -5.640625 L 3.796875 -5.078125 L 4.3125 -5.078125 L 4.3125 -4.578125 L 3.796875 -4.578125 L 3.796875 -0.84375 C 3.796875 -0.414062 3.804688 -0.132812 3.828125 0 L 3.171875 0 C 3.160156 -0.0390625 3.148438 -0.132812 3.140625 -0.28125 C 3.140625 -0.425781 3.140625 -0.550781 3.140625 -0.65625 Z M 1.046875 -2.0625 C 1.046875 -1.488281 1.117188 -1.078125 1.265625 -0.828125 C 1.421875 -0.578125 1.671875 -0.453125 2.015625 -0.453125 C 2.398438 -0.453125 2.679688 -0.582031 2.859375 -0.84375 C 3.035156 -1.113281 3.125 -1.535156 3.125 -2.109375 C 3.125 -2.648438 3.035156 -3.046875 2.859375 -3.296875 C 2.679688 -3.554688 2.398438 -3.6875 2.015625 -3.6875 C 1.671875 -3.6875 1.421875 -3.554688 1.265625 -3.296875 C 1.117188 -3.046875 1.046875 -2.632812 1.046875 -2.0625 Z M 1.046875 -2.0625 "/></g></g><g transform="translate(85.567772, 26.732492)"><g><path d="M 4 -2.0625 C 4 -1.34375 3.835938 -0.804688 3.515625 -0.453125 C 3.203125 -0.0976562 2.742188 0.078125 2.140625 0.078125 C 1.546875 0.078125 1.09375 -0.101562 0.78125 -0.46875 C 0.476562 -0.832031 0.328125 -1.363281 0.328125 -2.0625 C 0.328125 -3.476562 0.941406 -4.1875 2.171875 -4.1875 C 2.796875 -4.1875 3.253906 -4.015625 3.546875 -3.671875 C 3.847656 -3.328125 4 -2.789062 4 -2.0625 Z M 3.28125 -2.0625 C 3.28125 -2.625 3.195312 -3.035156 3.03125 -3.296875 C 2.863281 -3.554688 2.582031 -3.6875 2.1875 -3.6875 C 1.78125 -3.6875 1.488281 -3.550781 1.3125 -3.28125 C 1.132812 -3.019531 1.046875 -2.613281 1.046875 -2.0625 C 1.046875 -1.519531 1.132812 -1.109375 1.3125 -0.828125 C 1.488281 -0.554688 1.765625 -0.421875 2.140625 -0.421875 C 2.546875 -0.421875 2.835938 -0.550781 3.015625 -0.8125 C 3.191406 -1.082031 3.28125 -1.5 3.28125 -2.0625 Z M 3.515625 -4.640625 L 3.515625 -4.5625 L 3.109375 -4.5625 L 2.28125 -5.203125 L 1.390625 -4.5625 L 1 -4.5625 L 1 -4.640625 L 1.890625 -5.671875 L 2.671875 -5.671875 Z M 2.078125 1.1875 L 2.078125 0.53125 L 2.765625 0.53125 L 2.765625 1.1875 Z M 2.078125 1.1875 "/></g></g><g transform="translate(89.893153, 26.732492)"><g><path d="M 3.140625 0 L 3.140625 -2.609375 C 3.140625 -2.878906 3.109375 -3.085938 3.046875 -3.234375 C 2.992188 -3.390625 2.910156 -3.5 2.796875 -3.5625 C 2.679688 -3.625 2.507812 -3.65625 2.28125 -3.65625 C 1.957031 -3.65625 1.695312 -3.539062 1.5 -3.3125 C 1.3125 -3.09375 1.21875 -2.78125 1.21875 -2.375 L 1.21875 0 L 0.546875 0 L 0.546875 -3.234375 C 0.546875 -3.710938 0.535156 -4.003906 0.515625 -4.109375 L 1.15625 -4.109375 C 1.164062 -4.097656 1.171875 -4.0625 1.171875 -4 C 1.171875 -3.945312 1.171875 -3.882812 1.171875 -3.8125 C 1.179688 -3.738281 1.1875 -3.601562 1.1875 -3.40625 L 1.203125 -3.40625 C 1.359375 -3.6875 1.539062 -3.882812 1.75 -4 C 1.957031 -4.125 2.210938 -4.1875 2.515625 -4.1875 C 2.972656 -4.1875 3.304688 -4.070312 3.515625 -3.84375 C 3.722656 -3.625 3.828125 -3.253906 3.828125 -2.734375 L 3.828125 0 Z M 3.140625 0 "/></g></g><g transform="translate(94.218534, 26.732492)"><g><path d="M 2.078125 1.609375 C 1.628906 1.609375 1.269531 1.519531 1 1.34375 C 0.738281 1.175781 0.570312 0.925781 0.5 0.59375 L 1.1875 0.5 C 1.226562 0.6875 1.328125 0.832031 1.484375 0.9375 C 1.640625 1.039062 1.84375 1.09375 2.09375 1.09375 C 2.78125 1.09375 3.125 0.691406 3.125 -0.109375 L 3.125 -0.765625 L 3.109375 -0.765625 C 2.984375 -0.503906 2.804688 -0.304688 2.578125 -0.171875 C 2.359375 -0.0351562 2.097656 0.03125 1.796875 0.03125 C 1.285156 0.03125 0.910156 -0.132812 0.671875 -0.46875 C 0.441406 -0.800781 0.328125 -1.328125 0.328125 -2.046875 C 0.328125 -2.773438 0.453125 -3.3125 0.703125 -3.65625 C 0.960938 -4 1.351562 -4.171875 1.875 -4.171875 C 2.164062 -4.171875 2.414062 -4.101562 2.625 -3.96875 C 2.84375 -3.84375 3.007812 -3.65625 3.125 -3.40625 C 3.125 -3.476562 3.128906 -3.609375 3.140625 -3.796875 C 3.148438 -3.984375 3.160156 -4.085938 3.171875 -4.109375 L 3.828125 -4.109375 C 3.804688 -3.972656 3.796875 -3.691406 3.796875 -3.265625 L 3.796875 -0.125 C 3.796875 1.03125 3.222656 1.609375 2.078125 1.609375 Z M 3.125 -2.0625 C 3.125 -2.394531 3.078125 -2.679688 2.984375 -2.921875 C 2.890625 -3.160156 2.757812 -3.34375 2.59375 -3.46875 C 2.4375 -3.601562 2.25 -3.671875 2.03125 -3.671875 C 1.6875 -3.671875 1.429688 -3.539062 1.265625 -3.28125 C 1.109375 -3.03125 1.03125 -2.625 1.03125 -2.0625 C 1.03125 -1.5 1.101562 -1.09375 1.25 -0.84375 C 1.40625 -0.59375 1.664062 -0.46875 2.03125 -0.46875 C 2.238281 -0.46875 2.425781 -0.53125 2.59375 -0.65625 C 2.757812 -0.789062 2.890625 -0.972656 2.984375 -1.203125 C 3.078125 -1.441406 3.125 -1.726562 3.125 -2.0625 Z M 3.125 -2.0625 "/></g></g><g transform="translate(98.543915, 26.732492)"><g/></g><g transform="translate(100.704707, 26.732492)"><g><path d="M 3.609375 -1.140625 C 3.609375 -0.753906 3.460938 -0.453125 3.171875 -0.234375 C 2.878906 -0.0234375 2.46875 0.078125 1.9375 0.078125 C 1.425781 0.078125 1.03125 -0.00390625 0.75 -0.171875 C 0.476562 -0.335938 0.300781 -0.601562 0.21875 -0.96875 L 0.828125 -1.078125 C 0.878906 -0.859375 0.992188 -0.695312 1.171875 -0.59375 C 1.359375 -0.488281 1.613281 -0.4375 1.9375 -0.4375 C 2.289062 -0.4375 2.546875 -0.488281 2.703125 -0.59375 C 2.859375 -0.707031 2.9375 -0.867188 2.9375 -1.078125 C 2.9375 -1.242188 2.878906 -1.375 2.765625 -1.46875 C 2.660156 -1.570312 2.484375 -1.660156 2.234375 -1.734375 L 1.75 -1.859375 C 1.351562 -1.960938 1.070312 -2.0625 0.90625 -2.15625 C 0.738281 -2.25 0.609375 -2.363281 0.515625 -2.5 C 0.421875 -2.644531 0.375 -2.820312 0.375 -3.03125 C 0.375 -3.40625 0.507812 -3.6875 0.78125 -3.875 C 1.050781 -4.070312 1.441406 -4.171875 1.953125 -4.171875 C 2.398438 -4.171875 2.757812 -4.09375 3.03125 -3.9375 C 3.300781 -3.78125 3.46875 -3.523438 3.53125 -3.171875 L 2.921875 -3.09375 C 2.878906 -3.269531 2.773438 -3.40625 2.609375 -3.5 C 2.441406 -3.601562 2.222656 -3.65625 1.953125 -3.65625 C 1.640625 -3.65625 1.410156 -3.609375 1.265625 -3.515625 C 1.117188 -3.421875 1.046875 -3.28125 1.046875 -3.09375 C 1.046875 -2.976562 1.078125 -2.878906 1.140625 -2.796875 C 1.203125 -2.722656 1.289062 -2.660156 1.40625 -2.609375 C 1.519531 -2.554688 1.769531 -2.484375 2.15625 -2.390625 C 2.519531 -2.296875 2.78125 -2.207031 2.9375 -2.125 C 3.101562 -2.050781 3.226562 -1.96875 3.3125 -1.875 C 3.40625 -1.78125 3.476562 -1.671875 3.53125 -1.546875 C 3.582031 -1.429688 3.609375 -1.296875 3.609375 -1.140625 Z M 3.609375 -1.140625 "/></g></g><g transform="translate(104.593373, 26.732492)"><g><path d="M 1.578125 0.078125 C 1.160156 0.078125 0.847656 -0.03125 0.640625 -0.25 C 0.429688 -0.46875 0.328125 -0.765625 0.328125 -1.140625 C 0.328125 -1.566406 0.46875 -1.894531 0.75 -2.125 C 1.03125 -2.351562 1.484375 -2.476562 2.109375 -2.5 L 3.03125 -2.5 L 3.03125 -2.734375 C 3.03125 -3.066406 2.957031 -3.304688 2.8125 -3.453125 C 2.675781 -3.597656 2.453125 -3.671875 2.140625 -3.671875 C 1.835938 -3.671875 1.613281 -3.617188 1.46875 -3.515625 C 1.332031 -3.410156 1.253906 -3.242188 1.234375 -3.015625 L 0.515625 -3.078125 C 0.628906 -3.816406 1.175781 -4.1875 2.15625 -4.1875 C 2.675781 -4.1875 3.066406 -4.066406 3.328125 -3.828125 C 3.585938 -3.585938 3.71875 -3.242188 3.71875 -2.796875 L 3.71875 -1.03125 C 3.71875 -0.832031 3.742188 -0.679688 3.796875 -0.578125 C 3.847656 -0.472656 3.953125 -0.421875 4.109375 -0.421875 C 4.171875 -0.421875 4.242188 -0.429688 4.328125 -0.453125 L 4.328125 -0.015625 C 4.148438 0.015625 3.972656 0.03125 3.796875 0.03125 C 3.546875 0.03125 3.363281 -0.03125 3.25 -0.15625 C 3.132812 -0.289062 3.066406 -0.5 3.046875 -0.78125 L 3.03125 -0.78125 C 2.851562 -0.46875 2.648438 -0.242188 2.421875 -0.109375 C 2.191406 0.015625 1.910156 0.078125 1.578125 0.078125 Z M 1.734375 -0.4375 C 1.984375 -0.4375 2.203125 -0.492188 2.390625 -0.609375 C 2.585938 -0.722656 2.742188 -0.878906 2.859375 -1.078125 C 2.972656 -1.273438 3.03125 -1.476562 3.03125 -1.6875 L 3.03125 -2.03125 L 2.28125 -2.015625 C 1.957031 -2.003906 1.710938 -1.96875 1.546875 -1.90625 C 1.378906 -1.851562 1.25 -1.757812 1.15625 -1.625 C 1.070312 -1.5 1.03125 -1.335938 1.03125 -1.140625 C 1.03125 -0.910156 1.085938 -0.734375 1.203125 -0.609375 C 1.328125 -0.492188 1.503906 -0.4375 1.734375 -0.4375 Z M 2.15625 -5.328125 C 2.15625 -5.398438 2.117188 -5.457031 2.046875 -5.5 C 1.984375 -5.550781 1.898438 -5.578125 1.796875 -5.578125 C 1.617188 -5.578125 1.441406 -5.546875 1.265625 -5.484375 L 1.140625 -5.859375 C 1.367188 -5.929688 1.617188 -5.96875 1.890625 -5.96875 C 2.484375 -5.96875 2.78125 -5.78125 2.78125 -5.40625 C 2.78125 -5.257812 2.726562 -5.128906 2.625 -5.015625 C 2.53125 -4.910156 2.367188 -4.84375 2.140625 -4.8125 L 2.140625 -4.625 L 1.703125 -4.625 L 1.703125 -5.078125 C 1.878906 -5.085938 2 -5.109375 2.0625 -5.140625 C 2.125 -5.179688 2.15625 -5.242188 2.15625 -5.328125 Z M 2.15625 -5.328125 "/></g></g><g transform="translate(108.918754, 26.732492)"><g><path d="M 3.140625 0 L 3.140625 -2.609375 C 3.140625 -2.878906 3.109375 -3.085938 3.046875 -3.234375 C 2.992188 -3.390625 2.910156 -3.5 2.796875 -3.5625 C 2.679688 -3.625 2.507812 -3.65625 2.28125 -3.65625 C 1.957031 -3.65625 1.695312 -3.539062 1.5 -3.3125 C 1.3125 -3.09375 1.21875 -2.78125 1.21875 -2.375 L 1.21875 0 L 0.546875 0 L 0.546875 -3.234375 C 0.546875 -3.710938 0.535156 -4.003906 0.515625 -4.109375 L 1.15625 -4.109375 C 1.164062 -4.097656 1.171875 -4.0625 1.171875 -4 C 1.171875 -3.945312 1.171875 -3.882812 1.171875 -3.8125 C 1.179688 -3.738281 1.1875 -3.601562 1.1875 -3.40625 L 1.203125 -3.40625 C 1.359375 -3.6875 1.539062 -3.882812 1.75 -4 C 1.957031 -4.125 2.210938 -4.1875 2.515625 -4.1875 C 2.972656 -4.1875 3.304688 -4.070312 3.515625 -3.84375 C 3.722656 -3.625 3.828125 -3.253906 3.828125 -2.734375 L 3.828125 0 Z M 3.140625 0 "/></g></g><g transform="translate(113.244135, 26.732492)"><g/></g><g transform="translate(115.404927, 26.732492)"><g><path d="M 2.078125 1.609375 C 1.628906 1.609375 1.269531 1.519531 1 1.34375 C 0.738281 1.175781 0.570312 0.925781 0.5 0.59375 L 1.1875 0.5 C 1.226562 0.6875 1.328125 0.832031 1.484375 0.9375 C 1.640625 1.039062 1.84375 1.09375 2.09375 1.09375 C 2.78125 1.09375 3.125 0.691406 3.125 -0.109375 L 3.125 -0.765625 L 3.109375 -0.765625 C 2.984375 -0.503906 2.804688 -0.304688 2.578125 -0.171875 C 2.359375 -0.0351562 2.097656 0.03125 1.796875 0.03125 C 1.285156 0.03125 0.910156 -0.132812 0.671875 -0.46875 C 0.441406 -0.800781 0.328125 -1.328125 0.328125 -2.046875 C 0.328125 -2.773438 0.453125 -3.3125 0.703125 -3.65625 C 0.960938 -4 1.351562 -4.171875 1.875 -4.171875 C 2.164062 -4.171875 2.414062 -4.101562 2.625 -3.96875 C 2.84375 -3.84375 3.007812 -3.65625 3.125 -3.40625 C 3.125 -3.476562 3.128906 -3.609375 3.140625 -3.796875 C 3.148438 -3.984375 3.160156 -4.085938 3.171875 -4.109375 L 3.828125 -4.109375 C 3.804688 -3.972656 3.796875 -3.691406 3.796875 -3.265625 L 3.796875 -0.125 C 3.796875 1.03125 3.222656 1.609375 2.078125 1.609375 Z M 3.125 -2.0625 C 3.125 -2.394531 3.078125 -2.679688 2.984375 -2.921875 C 2.890625 -3.160156 2.757812 -3.34375 2.59375 -3.46875 C 2.4375 -3.601562 2.25 -3.671875 2.03125 -3.671875 C 1.6875 -3.671875 1.429688 -3.539062 1.265625 -3.28125 C 1.109375 -3.03125 1.03125 -2.625 1.03125 -2.0625 C 1.03125 -1.5 1.101562 -1.09375 1.25 -0.84375 C 1.40625 -0.59375 1.664062 -0.46875 2.03125 -0.46875 C 2.238281 -0.46875 2.425781 -0.53125 2.59375 -0.65625 C 2.757812 -0.789062 2.890625 -0.972656 2.984375 -1.203125 C 3.078125 -1.441406 3.125 -1.726562 3.125 -2.0625 Z M 3.125 -2.0625 "/></g></g><g transform="translate(119.730308, 26.732492)"><g><path d="M 0.515625 -4.984375 L 0.515625 -5.640625 L 1.203125 -5.640625 L 1.203125 -4.984375 Z M 0.515625 0 L 0.515625 -4.109375 L 1.203125 -4.109375 L 1.203125 0 Z M 0.515625 0 "/></g></g><g transform="translate(121.458182, 26.732492)"><g><path d="M 1.578125 0.078125 C 1.160156 0.078125 0.847656 -0.03125 0.640625 -0.25 C 0.429688 -0.46875 0.328125 -0.765625 0.328125 -1.140625 C 0.328125 -1.566406 0.46875 -1.894531 0.75 -2.125 C 1.03125 -2.351562 1.484375 -2.476562 2.109375 -2.5 L 3.03125 -2.5 L 3.03125 -2.734375 C 3.03125 -3.066406 2.957031 -3.304688 2.8125 -3.453125 C 2.675781 -3.597656 2.453125 -3.671875 2.140625 -3.671875 C 1.835938 -3.671875 1.613281 -3.617188 1.46875 -3.515625 C 1.332031 -3.410156 1.253906 -3.242188 1.234375 -3.015625 L 0.515625 -3.078125 C 0.628906 -3.816406 1.175781 -4.1875 2.15625 -4.1875 C 2.675781 -4.1875 3.066406 -4.066406 3.328125 -3.828125 C 3.585938 -3.585938 3.71875 -3.242188 3.71875 -2.796875 L 3.71875 -1.03125 C 3.71875 -0.832031 3.742188 -0.679688 3.796875 -0.578125 C 3.847656 -0.472656 3.953125 -0.421875 4.109375 -0.421875 C 4.171875 -0.421875 4.242188 -0.429688 4.328125 -0.453125 L 4.328125 -0.015625 C 4.148438 0.015625 3.972656 0.03125 3.796875 0.03125 C 3.546875 0.03125 3.363281 -0.03125 3.25 -0.15625 C 3.132812 -0.289062 3.066406 -0.5 3.046875 -0.78125 L 3.03125 -0.78125 C 2.851562 -0.46875 2.648438 -0.242188 2.421875 -0.109375 C 2.191406 0.015625 1.910156 0.078125 1.578125 0.078125 Z M 1.734375 -0.4375 C 1.984375 -0.4375 2.203125 -0.492188 2.390625 -0.609375 C 2.585938 -0.722656 2.742188 -0.878906 2.859375 -1.078125 C 2.972656 -1.273438 3.03125 -1.476562 3.03125 -1.6875 L 3.03125 -2.03125 L 2.28125 -2.015625 C 1.957031 -2.003906 1.710938 -1.96875 1.546875 -1.90625 C 1.378906 -1.851562 1.25 -1.757812 1.15625 -1.625 C 1.070312 -1.5 1.03125 -1.335938 1.03125 -1.140625 C 1.03125 -0.910156 1.085938 -0.734375 1.203125 -0.609375 C 1.328125 -0.492188 1.503906 -0.4375 1.734375 -0.4375 Z M 1.28125 -4.5625 L 1.28125 -4.640625 L 2.09375 -5.734375 L 2.890625 -5.734375 L 2.890625 -5.625 L 1.625 -4.5625 Z M 1.28125 -4.5625 "/></g></g><g transform="translate(125.783563, 26.732492)"><g/></g><g transform="translate(127.944355, 26.732492)"><g><path d="M 2.109375 -0.03125 C 1.878906 0.03125 1.644531 0.0625 1.40625 0.0625 C 0.863281 0.0625 0.59375 -0.25 0.59375 -0.875 L 0.59375 -3.609375 L 0.125 -3.609375 L 0.125 -4.109375 L 0.625 -4.109375 L 0.828125 -5.03125 L 1.28125 -5.03125 L 1.28125 -4.109375 L 2.03125 -4.109375 L 2.03125 -3.609375 L 1.28125 -3.609375 L 1.28125 -1.015625 C 1.28125 -0.816406 1.3125 -0.675781 1.375 -0.59375 C 1.4375 -0.519531 1.546875 -0.484375 1.703125 -0.484375 C 1.796875 -0.484375 1.929688 -0.5 2.109375 -0.53125 Z M 2.109375 -0.03125 "/></g></g><g transform="translate(130.105147, 26.732492)"><g><path d="M 4 -2.0625 C 4 -1.34375 3.835938 -0.804688 3.515625 -0.453125 C 3.203125 -0.0976562 2.742188 0.078125 2.140625 0.078125 C 1.546875 0.078125 1.09375 -0.101562 0.78125 -0.46875 C 0.476562 -0.832031 0.328125 -1.363281 0.328125 -2.0625 C 0.328125 -3.476562 0.941406 -4.1875 2.171875 -4.1875 C 2.796875 -4.1875 3.253906 -4.015625 3.546875 -3.671875 C 3.847656 -3.328125 4 -2.789062 4 -2.0625 Z M 3.28125 -2.0625 C 3.28125 -2.625 3.195312 -3.035156 3.03125 -3.296875 C 2.863281 -3.554688 2.582031 -3.6875 2.1875 -3.6875 C 1.78125 -3.6875 1.488281 -3.550781 1.3125 -3.28125 C 1.132812 -3.019531 1.046875 -2.613281 1.046875 -2.0625 C 1.046875 -1.519531 1.132812 -1.109375 1.3125 -0.828125 C 1.488281 -0.554688 1.765625 -0.421875 2.140625 -0.421875 C 2.546875 -0.421875 2.835938 -0.550781 3.015625 -0.8125 C 3.191406 -1.082031 3.28125 -1.5 3.28125 -2.0625 Z M 3.1875 -5.984375 L 4.015625 -5.984375 L 4.015625 -5.9375 L 3.15625 -5.265625 L 2.78125 -5.265625 L 2.78125 -5.296875 Z M 3.234375 -4.640625 L 3.234375 -4.5625 L 2.828125 -4.5625 L 2 -5.203125 L 1.984375 -5.203125 L 1.140625 -4.5625 L 0.75 -4.5625 L 0.75 -4.640625 L 1.59375 -5.671875 L 2.375 -5.671875 Z M 3.234375 -4.640625 "/></g></g><g transform="translate(134.430528, 26.732492)"><g><path d="M 2.109375 -0.03125 C 1.878906 0.03125 1.644531 0.0625 1.40625 0.0625 C 0.863281 0.0625 0.59375 -0.25 0.59375 -0.875 L 0.59375 -3.609375 L 0.125 -3.609375 L 0.125 -4.109375 L 0.625 -4.109375 L 0.828125 -5.03125 L 1.28125 -5.03125 L 1.28125 -4.109375 L 2.03125 -4.109375 L 2.03125 -3.609375 L 1.28125 -3.609375 L 1.28125 -1.015625 C 1.28125 -0.816406 1.3125 -0.675781 1.375 -0.59375 C 1.4375 -0.519531 1.546875 -0.484375 1.703125 -0.484375 C 1.796875 -0.484375 1.929688 -0.5 2.109375 -0.53125 Z M 2.109375 -0.03125 "/></g></g></g></svg>